{"asset":{"generator":"Khronos glTF Blender I/O v4.5.51","version":"2.0"},"scene":0,"scenes":[{"name":"Scene","nodes":[33]}],"nodes":[{"name":"FrontFoot.R","rotation":[0.7071067690849304,-8.738456358514668e-7,-8.738456358514668e-7,0.7071067690849304],"scale":[0.9999999403953552,0.9999999403953552,0.9999999403953552],"translation":[-1.1065094470977783,0.10000347346067429,2.0247292518615723]},{"name":"FrontLowLeg.R","rotation":[-0.2850784659385681,-0.01819472946226597,-0.0054126339964568615,0.9583161473274231],"scale":[1,1.0000001192092896,0.9999999403953552],"translation":[8.149072527885437e-8,1.9524409770965576,6.705522537231445e-8]},{"children":[1],"name":"FrontUpLeg.R","rotation":[0.7065748572349548,-0.7050247192382812,-0.027422375977039337,0.05422314256429672],"scale":[1.0000001192092896,1.000000238418579,0.9999999403953552],"translation":[1.5944820574986807e-8,0.7349479794502258,8.246783522736223e-8]},{"children":[2],"name":"FrontLeg.R","rotation":[-1.8353281916461128e-7,-4.585404056456355e-8,0.7071067690849304,0.7071067690849304],"scale":[0.9999999403953552,0.9999999403953552,0.9999999403953552],"translation":[-0.3892464339733124,0.543147087097168,1.1599609851837158]},{"name":"BackLowLeg.R","rotation":[-0.4565264582633972,0.01721661351621151,0.008836045861244202,0.8894993662834167],"scale":[0.9999999403953552,1.0000001192092896,1],"translation":[-1.4901161193847656e-8,1.5659562349319458,1.4156103134155273e-7]},{"children":[4],"name":"BackUpLeg.R","rotation":[-0.6153371930122375,0.6013961434364319,-0.34836748242378235,0.3719179332256317],"scale":[0.9999999403953552,1,0.9999998807907104],"translation":[-1.0846976294942579e-7,0.8213825821876526,-1.4831556427452597e-7]},{"children":[5],"name":"BackLeg.R","rotation":[-2.740876823281724e-7,-1.364089285971204e-7,0.7071067690849304,0.7071067690849304],"scale":[0.9999999403953552,0.9999999403953552,0.9999999403953552],"translation":[-0.544836699962616,0.8379976749420166,-1.8745508193969727]},{"name":"FrontLowLeg.L","rotation":[-0.28473976254463196,0.050117067992687225,0.014908665791153908,0.9571777582168579],"translation":[9.592622518539429e-8,1.9524407386779785,-2.9802322387695312e-8]},{"children":[7],"name":"FrontUpLeg.L","rotation":[-0.0038634142838418484,-0.07768546044826508,0.7070962190628052,0.7028264403343201],"scale":[0.9999999403953552,0.9999999403953552,0.9999998807907104],"translation":[1.0828392049688773e-7,0.7349480986595154,-7.91570187175239e-8]},{"children":[8],"name":"FrontLeg.L","rotation":[-0.7071067690849304,-0.7071067690849304,7.41426298134229e-9,2.2197245641564223e-7],"scale":[0.9999999403953552,0.9999999403953552,0.9999999403953552],"translation":[0.32761386036872864,0.543147087097168,1.1599609851837158]},{"name":"BackLowLeg.L","rotation":[-0.45659124851226807,-0.008454210124909878,-0.004339280072599649,0.8896258473396301],"scale":[0.9999999403953552,0.9999998807907104,0.9999999403953552],"translation":[-1.210719347000122e-7,1.5659562349319458,1.1920928955078125e-7]},{"children":[10],"name":"BackUpLeg.L","rotation":[0.35441121459007263,0.3659762442111969,0.6118761897087097,0.6050302982330322],"translation":[-6.372159333523086e-8,0.8213830590248108,1.3671655096914037e-7]},{"children":[11],"name":"BackLeg.L","rotation":[-0.7071067690849304,-0.7071067690849304,1.0423023866223957e-7,3.062661733110872e-7],"scale":[0.9999999403953552,0.9999999403953552,0.9999999403953552],"translation":[0.4832039177417755,0.8379976749420166,-1.8745508193969727]},{"name":"Tail7","rotation":[0.00012342166155576706,1.1920927533992653e-7,1.3118495179043066e-10,1],"scale":[0.9999999403953552,1,1],"translation":[-3.5490488325962133e-9,1.057072639465332,-2.9802320611338473e-8]},{"children":[13],"name":"Tail6","rotation":[-0.0035426274407655,-1.1920862874603699e-7,-6.835660926185483e-10,0.9999937415122986],"scale":[1,0.9999999403953552,1],"translation":[1.4239134316085256e-9,1.4017343521118164,-2.4451196622976568e-8]},{"children":[14],"name":"Tail5","rotation":[0.018245380371809006,1.1918746878336606e-7,2.2913901887022803e-9,0.9998335838317871],"translation":[-7.838027449302842e-11,1.5700181722640991,-2.9802322387695312e-8]},{"children":[15],"name":"Tail4","rotation":[0.08280790597200394,7.634614511767279e-13,1.762684507904122e-12,0.9965655207633972],"translation":[-1.9531551931351032e-9,1.7133667469024658,-2.9802318834981634e-8]},{"children":[16],"name":"Tail3","rotation":[0.27320098876953125,-1.1470340410824065e-7,3.24539009000091e-8,0.9619569778442383],"translation":[8.770797421675525e-10,1.8840923309326172,-1.7346280856145313e-7]},{"children":[17],"name":"Tail2","rotation":[0.04521249607205391,1.0759738586219036e-11,1.1242820008305898e-8,0.9989773631095886],"scale":[1,0.9999999403953552,1],"translation":[4.871765213465551e-10,0.9977457523345947,-1.138581637860625e-7]},{"children":[18],"name":"Tail1","rotation":[0.9593065977096558,-3.332404219236196e-8,3.4297588058507245e-7,0.282366544008255],"scale":[0.9999999403953552,1,1.0000003576278687],"translation":[0.049349088221788406,-0.2737617492675781,0.4555422067642212]},{"children":[19],"name":"Back","rotation":[0.5953486561775208,1.9156171049417026e-7,1.4194228015185217e-7,0.8034675121307373],"scale":[0.9999999403953552,0.9999999403953552,0.9999999403953552],"translation":[-0.03228270635008812,1.0124256610870361,-4.087785720825195]},{"name":"Head","rotation":[-0.17898358404636383,-0.2545461356639862,0.04704151675105095,0.949188232421875],"scale":[0.9999998807907104,1,1],"translation":[-4.571575118461624e-9,1.3919947147369385,-2.4130241627062787e-7]},{"children":[21],"name":"Neck","rotation":[-0.008566583506762981,-0.008435148745775223,-0.018716074526309967,0.9997525215148926],"scale":[1.0000001192092896,0.9999999403953552,1],"translation":[0,1.1098079681396484,3.23721906170249e-7]},{"children":[22],"name":"Shoulders","rotation":[-0.007978498004376888,-0.7384924292564392,-0.6739492416381836,0.01891414076089859],"scale":[1,0.9999997615814209,1],"translation":[-0.0736546441912651,1.067129373550415,0.8460291028022766]},{"name":"Torso","rotation":[0.052304599434137344,0.000744712888263166,-0.013528183102607727,0.9985392689704895],"scale":[1,1,0.9999998807907104],"translation":[2.78021161648212e-9,1.597373366355896,2.3897811729511886e-7]},{"children":[24],"name":"Hips","rotation":[0.000005365118340705521,0.6954637765884399,0.7185611724853516,0.000005192662229092093],"scale":[0.9999999403953552,0.9999997615814209,0.9999998807907104],"translation":[-0.03228270635008812,1.2948400974273682,-3.159708261489868]},{"children":[3,6,9,12,20,23,25],"name":"Body","scale":[0.9999999403953552,0.9999999403953552,0.9999999403953552],"translation":[0.005377649795264006,2.302082061767578,-0.01735416054725647]},{"name":"BackFoot.R","rotation":[0.7071067690849304,-0.0000012110201623727335,-0.0000012110202760595712,0.7071067690849304],"scale":[0.9999999403953552,0.9999998807907104,0.9999998807907104],"translation":[-1.44301176071167,0.10000347346067429,-3.5552978515625]},{"name":"FrontFoot.L","rotation":[0.7071067690849304,-0.0000012110205034332466,-0.0000012110205034332466,0.7071067690849304],"scale":[0.9999999403953552,0.9999999403953552,0.9999999403953552],"translation":[1.0556323528289795,0.10000347346067429,2.0247292518615723]},{"name":"BackFoot.L","rotation":[0.7071067690849304,-0.0000015481948594242567,-0.0000015481948594242567,0.7071067690849304],"scale":[0.9999999403953552,0.9999998807907104,0.9999998807907104],"translation":[1.3921350240707397,0.10000347346067429,-3.5552978515625]},{"children":[0,26,27,28,29],"name":"root","scale":[0.9999999403953552,0.9999999403953552,0.9999999403953552]},{"mesh":0,"name":"Rat","skin":0},{"children":[31,30],"name":"Armature","scale":[0.3954920768737793,0.3954920768737793,0.3954920768737793]},{"name":"CreatureGround","scale":[0.23,0.23,0.23],"children":[32]}],"animations":[{"channels":[{"sampler":0,"target":{"node":30,"path":"translation"}},{"sampler":1,"target":{"node":30,"path":"rotation"}},{"sampler":2,"target":{"node":30,"path":"scale"}},{"sampler":3,"target":{"node":0,"path":"translation"}},{"sampler":4,"target":{"node":0,"path":"rotation"}},{"sampler":5,"target":{"node":0,"path":"scale"}},{"sampler":6,"target":{"node":26,"path":"translation"}},{"sampler":7,"target":{"node":26,"path":"rotation"}},{"sampler":8,"target":{"node":26,"path":"scale"}},{"sampler":9,"target":{"node":3,"path":"translation"}},{"sampler":10,"target":{"node":3,"path":"rotation"}},{"sampler":11,"target":{"node":3,"path":"scale"}},{"sampler":12,"target":{"node":2,"path":"translation"}},{"sampler":13,"target":{"node":2,"path":"rotation"}},{"sampler":14,"target":{"node":2,"path":"scale"}},{"sampler":15,"target":{"node":1,"path":"translation"}},{"sampler":16,"target":{"node":1,"path":"rotation"}},{"sampler":17,"target":{"node":1,"path":"scale"}},{"sampler":18,"target":{"node":6,"path":"translation"}},{"sampler":19,"target":{"node":6,"path":"rotation"}},{"sampler":20,"target":{"node":6,"path":"scale"}},{"sampler":21,"target":{"node":5,"path":"translation"}},{"sampler":22,"target":{"node":5,"path":"rotation"}},{"sampler":23,"target":{"node":5,"path":"scale"}},{"sampler":24,"target":{"node":4,"path":"translation"}},{"sampler":25,"target":{"node":4,"path":"rotation"}},{"sampler":26,"target":{"node":4,"path":"scale"}},{"sampler":27,"target":{"node":9,"path":"translation"}},{"sampler":28,"target":{"node":9,"path":"rotation"}},{"sampler":29,"target":{"node":9,"path":"scale"}},{"sampler":30,"target":{"node":8,"path":"translation"}},{"sampler":31,"target":{"node":8,"path":"rotation"}},{"sampler":32,"target":{"node":8,"path":"scale"}},{"sampler":33,"target":{"node":7,"path":"translation"}},{"sampler":34,"target":{"node":7,"path":"rotation"}},{"sampler":35,"target":{"node":7,"path":"scale"}},{"sampler":36,"target":{"node":12,"path":"translation"}},{"sampler":37,"target":{"node":12,"path":"rotation"}},{"sampler":38,"target":{"node":12,"path":"scale"}},{"sampler":39,"target":{"node":11,"path":"translation"}},{"sampler":40,"target":{"node":11,"path":"rotation"}},{"sampler":41,"target":{"node":11,"path":"scale"}},{"sampler":42,"target":{"node":10,"path":"translation"}},{"sampler":43,"target":{"node":10,"path":"rotation"}},{"sampler":44,"target":{"node":10,"path":"scale"}},{"sampler":45,"target":{"node":20,"path":"translation"}},{"sampler":46,"target":{"node":20,"path":"rotation"}},{"sampler":47,"target":{"node":20,"path":"scale"}},{"sampler":48,"target":{"node":19,"path":"translation"}},{"sampler":49,"target":{"node":19,"path":"rotation"}},{"sampler":50,"target":{"node":19,"path":"scale"}},{"sampler":51,"target":{"node":18,"path":"translation"}},{"sampler":52,"target":{"node":18,"path":"rotation"}},{"sampler":53,"target":{"node":18,"path":"scale"}},{"sampler":54,"target":{"node":17,"path":"translation"}},{"sampler":55,"target":{"node":17,"path":"rotation"}},{"sampler":56,"target":{"node":17,"path":"scale"}},{"sampler":57,"target":{"node":16,"path":"translation"}},{"sampler":58,"target":{"node":16,"path":"rotation"}},{"sampler":59,"target":{"node":16,"path":"scale"}},{"sampler":60,"target":{"node":15,"path":"translation"}},{"sampler":61,"target":{"node":15,"path":"rotation"}},{"sampler":62,"target":{"node":15,"path":"scale"}},{"sampler":63,"target":{"node":14,"path":"translation"}},{"sampler":64,"target":{"node":14,"path":"rotation"}},{"sampler":65,"target":{"node":14,"path":"scale"}},{"sampler":66,"target":{"node":13,"path":"translation"}},{"sampler":67,"target":{"node":13,"path":"rotation"}},{"sampler":68,"target":{"node":13,"path":"scale"}},{"sampler":69,"target":{"node":23,"path":"translation"}},{"sampler":70,"target":{"node":23,"path":"rotation"}},{"sampler":71,"target":{"node":23,"path":"scale"}},{"sampler":72,"target":{"node":22,"path":"translation"}},{"sampler":73,"target":{"node":22,"path":"rotation"}},{"sampler":74,"target":{"node":22,"path":"scale"}},{"sampler":75,"target":{"node":21,"path":"translation"}},{"sampler":76,"target":{"node":21,"path":"rotation"}},{"sampler":77,"target":{"node":21,"path":"scale"}},{"sampler":78,"target":{"node":25,"path":"translation"}},{"sampler":79,"target":{"node":25,"path":"rotation"}},{"sampler":80,"target":{"node":25,"path":"scale"}},{"sampler":81,"target":{"node":24,"path":"translation"}},{"sampler":82,"target":{"node":24,"path":"rotation"}},{"sampler":83,"target":{"node":24,"path":"scale"}},{"sampler":84,"target":{"node":27,"path":"translation"}},{"sampler":85,"target":{"node":27,"path":"rotation"}},{"sampler":86,"target":{"node":27,"path":"scale"}},{"sampler":87,"target":{"node":28,"path":"translation"}},{"sampler":88,"target":{"node":28,"path":"rotation"}},{"sampler":89,"target":{"node":28,"path":"scale"}},{"sampler":90,"target":{"node":29,"path":"translation"}},{"sampler":91,"target":{"node":29,"path":"rotation"}},{"sampler":92,"target":{"node":29,"path":"scale"}},{"sampler":93,"target":{"node":33,"path":"translation"}}],"name":"Rat_Attack","samplers":[{"input":11,"interpolation":"STEP","output":12},{"input":11,"interpolation":"STEP","output":13},{"input":11,"interpolation":"STEP","output":14},{"input":11,"interpolation":"STEP","output":15},{"input":11,"interpolation":"STEP","output":16},{"input":11,"interpolation":"STEP","output":14},{"input":17,"interpolation":"LINEAR","output":18},{"input":17,"interpolation":"LINEAR","output":19},{"input":11,"interpolation":"STEP","output":14},{"input":11,"interpolation":"STEP","output":20},{"input":17,"interpolation":"LINEAR","output":21},{"input":11,"interpolation":"STEP","output":14},{"input":11,"interpolation":"STEP","output":22},{"input":17,"interpolation":"LINEAR","output":23},{"input":11,"interpolation":"STEP","output":24},{"input":11,"interpolation":"STEP","output":25},{"input":17,"interpolation":"LINEAR","output":26},{"input":11,"interpolation":"STEP","output":27},{"input":11,"interpolation":"STEP","output":28},{"input":17,"interpolation":"LINEAR","output":29},{"input":11,"interpolation":"STEP","output":30},{"input":11,"interpolation":"STEP","output":31},{"input":17,"interpolation":"LINEAR","output":32},{"input":11,"interpolation":"STEP","output":33},{"input":11,"interpolation":"STEP","output":34},{"input":17,"interpolation":"LINEAR","output":35},{"input":11,"interpolation":"STEP","output":36},{"input":11,"interpolation":"STEP","output":37},{"input":17,"interpolation":"LINEAR","output":38},{"input":11,"interpolation":"STEP","output":14},{"input":11,"interpolation":"STEP","output":39},{"input":17,"interpolation":"LINEAR","output":40},{"input":11,"interpolation":"STEP","output":41},{"input":11,"interpolation":"STEP","output":42},{"input":17,"interpolation":"LINEAR","output":43},{"input":11,"interpolation":"STEP","output":44},{"input":11,"interpolation":"STEP","output":45},{"input":17,"interpolation":"LINEAR","output":46},{"input":11,"interpolation":"STEP","output":14},{"input":11,"interpolation":"STEP","output":47},{"input":17,"interpolation":"LINEAR","output":48},{"input":11,"interpolation":"STEP","output":49},{"input":11,"interpolation":"STEP","output":50},{"input":17,"interpolation":"LINEAR","output":51},{"input":11,"interpolation":"STEP","output":52},{"input":11,"interpolation":"STEP","output":53},{"input":11,"interpolation":"STEP","output":54},{"input":11,"interpolation":"STEP","output":14},{"input":11,"interpolation":"STEP","output":55},{"input":11,"interpolation":"STEP","output":56},{"input":11,"interpolation":"STEP","output":57},{"input":11,"interpolation":"STEP","output":58},{"input":17,"interpolation":"LINEAR","output":59},{"input":11,"interpolation":"STEP","output":60},{"input":11,"interpolation":"STEP","output":61},{"input":11,"interpolation":"STEP","output":62},{"input":11,"interpolation":"STEP","output":60},{"input":11,"interpolation":"STEP","output":63},{"input":11,"interpolation":"STEP","output":64},{"input":11,"interpolation":"STEP","output":65},{"input":11,"interpolation":"STEP","output":66},{"input":11,"interpolation":"STEP","output":67},{"input":11,"interpolation":"STEP","output":68},{"input":11,"interpolation":"STEP","output":69},{"input":11,"interpolation":"STEP","output":70},{"input":11,"interpolation":"STEP","output":71},{"input":11,"interpolation":"STEP","output":72},{"input":11,"interpolation":"STEP","output":73},{"input":11,"interpolation":"STEP","output":74},{"input":17,"interpolation":"LINEAR","output":75},{"input":17,"interpolation":"LINEAR","output":76},{"input":11,"interpolation":"STEP","output":77},{"input":11,"interpolation":"STEP","output":78},{"input":17,"interpolation":"LINEAR","output":79},{"input":11,"interpolation":"STEP","output":80},{"input":11,"interpolation":"STEP","output":81},{"input":17,"interpolation":"LINEAR","output":82},{"input":11,"interpolation":"STEP","output":83},{"input":11,"interpolation":"STEP","output":84},{"input":11,"interpolation":"STEP","output":85},{"input":11,"interpolation":"STEP","output":86},{"input":11,"interpolation":"STEP","output":87},{"input":11,"interpolation":"STEP","output":88},{"input":11,"interpolation":"STEP","output":89},{"input":11,"interpolation":"STEP","output":90},{"input":11,"interpolation":"STEP","output":91},{"input":11,"interpolation":"STEP","output":71},{"input":17,"interpolation":"LINEAR","output":92},{"input":11,"interpolation":"STEP","output":93},{"input":11,"interpolation":"STEP","output":14},{"input":11,"interpolation":"STEP","output":94},{"input":11,"interpolation":"STEP","output":95},{"input":11,"interpolation":"STEP","output":71},{"input":425,"output":426,"interpolation":"LINEAR"}]},{"channels":[{"sampler":0,"target":{"node":30,"path":"translation"}},{"sampler":1,"target":{"node":30,"path":"rotation"}},{"sampler":2,"target":{"node":30,"path":"scale"}},{"sampler":3,"target":{"node":0,"path":"translation"}},{"sampler":4,"target":{"node":0,"path":"rotation"}},{"sampler":5,"target":{"node":0,"path":"scale"}},{"sampler":6,"target":{"node":26,"path":"translation"}},{"sampler":7,"target":{"node":26,"path":"rotation"}},{"sampler":8,"target":{"node":26,"path":"scale"}},{"sampler":9,"target":{"node":3,"path":"translation"}},{"sampler":10,"target":{"node":3,"path":"rotation"}},{"sampler":11,"target":{"node":3,"path":"scale"}},{"sampler":12,"target":{"node":2,"path":"translation"}},{"sampler":13,"target":{"node":2,"path":"rotation"}},{"sampler":14,"target":{"node":2,"path":"scale"}},{"sampler":15,"target":{"node":1,"path":"translation"}},{"sampler":16,"target":{"node":1,"path":"rotation"}},{"sampler":17,"target":{"node":1,"path":"scale"}},{"sampler":18,"target":{"node":6,"path":"translation"}},{"sampler":19,"target":{"node":6,"path":"rotation"}},{"sampler":20,"target":{"node":6,"path":"scale"}},{"sampler":21,"target":{"node":5,"path":"translation"}},{"sampler":22,"target":{"node":5,"path":"rotation"}},{"sampler":23,"target":{"node":5,"path":"scale"}},{"sampler":24,"target":{"node":4,"path":"translation"}},{"sampler":25,"target":{"node":4,"path":"rotation"}},{"sampler":26,"target":{"node":4,"path":"scale"}},{"sampler":27,"target":{"node":9,"path":"translation"}},{"sampler":28,"target":{"node":9,"path":"rotation"}},{"sampler":29,"target":{"node":9,"path":"scale"}},{"sampler":30,"target":{"node":8,"path":"translation"}},{"sampler":31,"target":{"node":8,"path":"rotation"}},{"sampler":32,"target":{"node":8,"path":"scale"}},{"sampler":33,"target":{"node":7,"path":"translation"}},{"sampler":34,"target":{"node":7,"path":"rotation"}},{"sampler":35,"target":{"node":7,"path":"scale"}},{"sampler":36,"target":{"node":12,"path":"translation"}},{"sampler":37,"target":{"node":12,"path":"rotation"}},{"sampler":38,"target":{"node":12,"path":"scale"}},{"sampler":39,"target":{"node":11,"path":"translation"}},{"sampler":40,"target":{"node":11,"path":"rotation"}},{"sampler":41,"target":{"node":11,"path":"scale"}},{"sampler":42,"target":{"node":10,"path":"translation"}},{"sampler":43,"target":{"node":10,"path":"rotation"}},{"sampler":44,"target":{"node":10,"path":"scale"}},{"sampler":45,"target":{"node":20,"path":"translation"}},{"sampler":46,"target":{"node":20,"path":"rotation"}},{"sampler":47,"target":{"node":20,"path":"scale"}},{"sampler":48,"target":{"node":19,"path":"translation"}},{"sampler":49,"target":{"node":19,"path":"rotation"}},{"sampler":50,"target":{"node":19,"path":"scale"}},{"sampler":51,"target":{"node":18,"path":"translation"}},{"sampler":52,"target":{"node":18,"path":"rotation"}},{"sampler":53,"target":{"node":18,"path":"scale"}},{"sampler":54,"target":{"node":17,"path":"translation"}},{"sampler":55,"target":{"node":17,"path":"rotation"}},{"sampler":56,"target":{"node":17,"path":"scale"}},{"sampler":57,"target":{"node":16,"path":"translation"}},{"sampler":58,"target":{"node":16,"path":"rotation"}},{"sampler":59,"target":{"node":16,"path":"scale"}},{"sampler":60,"target":{"node":15,"path":"translation"}},{"sampler":61,"target":{"node":15,"path":"rotation"}},{"sampler":62,"target":{"node":15,"path":"scale"}},{"sampler":63,"target":{"node":14,"path":"translation"}},{"sampler":64,"target":{"node":14,"path":"rotation"}},{"sampler":65,"target":{"node":14,"path":"scale"}},{"sampler":66,"target":{"node":13,"path":"translation"}},{"sampler":67,"target":{"node":13,"path":"rotation"}},{"sampler":68,"target":{"node":13,"path":"scale"}},{"sampler":69,"target":{"node":23,"path":"translation"}},{"sampler":70,"target":{"node":23,"path":"rotation"}},{"sampler":71,"target":{"node":23,"path":"scale"}},{"sampler":72,"target":{"node":22,"path":"translation"}},{"sampler":73,"target":{"node":22,"path":"rotation"}},{"sampler":74,"target":{"node":22,"path":"scale"}},{"sampler":75,"target":{"node":21,"path":"translation"}},{"sampler":76,"target":{"node":21,"path":"rotation"}},{"sampler":77,"target":{"node":21,"path":"scale"}},{"sampler":78,"target":{"node":25,"path":"translation"}},{"sampler":79,"target":{"node":25,"path":"rotation"}},{"sampler":80,"target":{"node":25,"path":"scale"}},{"sampler":81,"target":{"node":24,"path":"translation"}},{"sampler":82,"target":{"node":24,"path":"rotation"}},{"sampler":83,"target":{"node":24,"path":"scale"}},{"sampler":84,"target":{"node":27,"path":"translation"}},{"sampler":85,"target":{"node":27,"path":"rotation"}},{"sampler":86,"target":{"node":27,"path":"scale"}},{"sampler":87,"target":{"node":28,"path":"translation"}},{"sampler":88,"target":{"node":28,"path":"rotation"}},{"sampler":89,"target":{"node":28,"path":"scale"}},{"sampler":90,"target":{"node":29,"path":"translation"}},{"sampler":91,"target":{"node":29,"path":"rotation"}},{"sampler":92,"target":{"node":29,"path":"scale"}},{"sampler":93,"target":{"node":33,"path":"translation"}}],"name":"Rat_Death","samplers":[{"input":96,"interpolation":"STEP","output":12},{"input":96,"interpolation":"STEP","output":13},{"input":96,"interpolation":"STEP","output":14},{"input":97,"interpolation":"LINEAR","output":98},{"input":97,"interpolation":"LINEAR","output":99},{"input":96,"interpolation":"STEP","output":14},{"input":97,"interpolation":"LINEAR","output":100},{"input":97,"interpolation":"LINEAR","output":101},{"input":96,"interpolation":"STEP","output":102},{"input":96,"interpolation":"LINEAR","output":103},{"input":97,"interpolation":"LINEAR","output":104},{"input":96,"interpolation":"STEP","output":105},{"input":96,"interpolation":"STEP","output":106},{"input":97,"interpolation":"LINEAR","output":107},{"input":96,"interpolation":"STEP","output":108},{"input":96,"interpolation":"STEP","output":109},{"input":97,"interpolation":"LINEAR","output":110},{"input":96,"interpolation":"STEP","output":111},{"input":96,"interpolation":"LINEAR","output":112},{"input":97,"interpolation":"LINEAR","output":113},{"input":96,"interpolation":"STEP","output":114},{"input":96,"interpolation":"STEP","output":115},{"input":97,"interpolation":"LINEAR","output":116},{"input":96,"interpolation":"STEP","output":117},{"input":96,"interpolation":"STEP","output":118},{"input":97,"interpolation":"LINEAR","output":119},{"input":96,"interpolation":"STEP","output":120},{"input":96,"interpolation":"LINEAR","output":121},{"input":97,"interpolation":"LINEAR","output":122},{"input":96,"interpolation":"STEP","output":123},{"input":96,"interpolation":"STEP","output":124},{"input":97,"interpolation":"LINEAR","output":125},{"input":96,"interpolation":"STEP","output":126},{"input":96,"interpolation":"STEP","output":127},{"input":97,"interpolation":"LINEAR","output":128},{"input":96,"interpolation":"STEP","output":129},{"input":96,"interpolation":"LINEAR","output":130},{"input":97,"interpolation":"LINEAR","output":131},{"input":96,"interpolation":"STEP","output":132},{"input":96,"interpolation":"STEP","output":133},{"input":97,"interpolation":"LINEAR","output":134},{"input":96,"interpolation":"STEP","output":135},{"input":96,"interpolation":"STEP","output":136},{"input":97,"interpolation":"LINEAR","output":137},{"input":96,"interpolation":"STEP","output":138},{"input":97,"interpolation":"LINEAR","output":139},{"input":96,"interpolation":"STEP","output":140},{"input":96,"interpolation":"STEP","output":141},{"input":96,"interpolation":"LINEAR","output":142},{"input":96,"interpolation":"LINEAR","output":143},{"input":96,"interpolation":"STEP","output":144},{"input":96,"interpolation":"STEP","output":145},{"input":97,"interpolation":"LINEAR","output":146},{"input":96,"interpolation":"STEP","output":147},{"input":96,"interpolation":"STEP","output":148},{"input":97,"interpolation":"LINEAR","output":149},{"input":96,"interpolation":"STEP","output":150},{"input":96,"interpolation":"STEP","output":151},{"input":97,"interpolation":"LINEAR","output":152},{"input":96,"interpolation":"STEP","output":153},{"input":96,"interpolation":"STEP","output":154},{"input":97,"interpolation":"LINEAR","output":155},{"input":96,"interpolation":"STEP","output":14},{"input":96,"interpolation":"STEP","output":156},{"input":97,"interpolation":"LINEAR","output":157},{"input":96,"interpolation":"STEP","output":158},{"input":96,"interpolation":"STEP","output":159},{"input":97,"interpolation":"LINEAR","output":160},{"input":96,"interpolation":"STEP","output":161},{"input":97,"interpolation":"LINEAR","output":162},{"input":97,"interpolation":"LINEAR","output":163},{"input":96,"interpolation":"STEP","output":164},{"input":96,"interpolation":"STEP","output":165},{"input":97,"interpolation":"LINEAR","output":166},{"input":96,"interpolation":"STEP","output":167},{"input":96,"interpolation":"STEP","output":168},{"input":97,"interpolation":"LINEAR","output":169},{"input":96,"interpolation":"STEP","output":170},{"input":97,"interpolation":"LINEAR","output":171},{"input":96,"interpolation":"LINEAR","output":172},{"input":96,"interpolation":"STEP","output":173},{"input":96,"interpolation":"STEP","output":174},{"input":96,"interpolation":"LINEAR","output":175},{"input":96,"interpolation":"STEP","output":176},{"input":97,"interpolation":"LINEAR","output":177},{"input":97,"interpolation":"LINEAR","output":178},{"input":96,"interpolation":"STEP","output":71},{"input":97,"interpolation":"LINEAR","output":179},{"input":97,"interpolation":"LINEAR","output":180},{"input":96,"interpolation":"STEP","output":181},{"input":97,"interpolation":"LINEAR","output":182},{"input":97,"interpolation":"LINEAR","output":183},{"input":96,"interpolation":"STEP","output":184},{"input":427,"output":428,"interpolation":"LINEAR"}]},{"channels":[{"sampler":0,"target":{"node":30,"path":"translation"}},{"sampler":1,"target":{"node":30,"path":"rotation"}},{"sampler":2,"target":{"node":30,"path":"scale"}},{"sampler":3,"target":{"node":0,"path":"translation"}},{"sampler":4,"target":{"node":0,"path":"rotation"}},{"sampler":5,"target":{"node":0,"path":"scale"}},{"sampler":6,"target":{"node":26,"path":"translation"}},{"sampler":7,"target":{"node":26,"path":"rotation"}},{"sampler":8,"target":{"node":26,"path":"scale"}},{"sampler":9,"target":{"node":3,"path":"translation"}},{"sampler":10,"target":{"node":3,"path":"rotation"}},{"sampler":11,"target":{"node":3,"path":"scale"}},{"sampler":12,"target":{"node":2,"path":"translation"}},{"sampler":13,"target":{"node":2,"path":"rotation"}},{"sampler":14,"target":{"node":2,"path":"scale"}},{"sampler":15,"target":{"node":1,"path":"translation"}},{"sampler":16,"target":{"node":1,"path":"rotation"}},{"sampler":17,"target":{"node":1,"path":"scale"}},{"sampler":18,"target":{"node":6,"path":"translation"}},{"sampler":19,"target":{"node":6,"path":"rotation"}},{"sampler":20,"target":{"node":6,"path":"scale"}},{"sampler":21,"target":{"node":5,"path":"translation"}},{"sampler":22,"target":{"node":5,"path":"rotation"}},{"sampler":23,"target":{"node":5,"path":"scale"}},{"sampler":24,"target":{"node":4,"path":"translation"}},{"sampler":25,"target":{"node":4,"path":"rotation"}},{"sampler":26,"target":{"node":4,"path":"scale"}},{"sampler":27,"target":{"node":9,"path":"translation"}},{"sampler":28,"target":{"node":9,"path":"rotation"}},{"sampler":29,"target":{"node":9,"path":"scale"}},{"sampler":30,"target":{"node":8,"path":"translation"}},{"sampler":31,"target":{"node":8,"path":"rotation"}},{"sampler":32,"target":{"node":8,"path":"scale"}},{"sampler":33,"target":{"node":7,"path":"translation"}},{"sampler":34,"target":{"node":7,"path":"rotation"}},{"sampler":35,"target":{"node":7,"path":"scale"}},{"sampler":36,"target":{"node":12,"path":"translation"}},{"sampler":37,"target":{"node":12,"path":"rotation"}},{"sampler":38,"target":{"node":12,"path":"scale"}},{"sampler":39,"target":{"node":11,"path":"translation"}},{"sampler":40,"target":{"node":11,"path":"rotation"}},{"sampler":41,"target":{"node":11,"path":"scale"}},{"sampler":42,"target":{"node":10,"path":"translation"}},{"sampler":43,"target":{"node":10,"path":"rotation"}},{"sampler":44,"target":{"node":10,"path":"scale"}},{"sampler":45,"target":{"node":20,"path":"translation"}},{"sampler":46,"target":{"node":20,"path":"rotation"}},{"sampler":47,"target":{"node":20,"path":"scale"}},{"sampler":48,"target":{"node":19,"path":"translation"}},{"sampler":49,"target":{"node":19,"path":"rotation"}},{"sampler":50,"target":{"node":19,"path":"scale"}},{"sampler":51,"target":{"node":18,"path":"translation"}},{"sampler":52,"target":{"node":18,"path":"rotation"}},{"sampler":53,"target":{"node":18,"path":"scale"}},{"sampler":54,"target":{"node":17,"path":"translation"}},{"sampler":55,"target":{"node":17,"path":"rotation"}},{"sampler":56,"target":{"node":17,"path":"scale"}},{"sampler":57,"target":{"node":16,"path":"translation"}},{"sampler":58,"target":{"node":16,"path":"rotation"}},{"sampler":59,"target":{"node":16,"path":"scale"}},{"sampler":60,"target":{"node":15,"path":"translation"}},{"sampler":61,"target":{"node":15,"path":"rotation"}},{"sampler":62,"target":{"node":15,"path":"scale"}},{"sampler":63,"target":{"node":14,"path":"translation"}},{"sampler":64,"target":{"node":14,"path":"rotation"}},{"sampler":65,"target":{"node":14,"path":"scale"}},{"sampler":66,"target":{"node":13,"path":"translation"}},{"sampler":67,"target":{"node":13,"path":"rotation"}},{"sampler":68,"target":{"node":13,"path":"scale"}},{"sampler":69,"target":{"node":23,"path":"translation"}},{"sampler":70,"target":{"node":23,"path":"rotation"}},{"sampler":71,"target":{"node":23,"path":"scale"}},{"sampler":72,"target":{"node":22,"path":"translation"}},{"sampler":73,"target":{"node":22,"path":"rotation"}},{"sampler":74,"target":{"node":22,"path":"scale"}},{"sampler":75,"target":{"node":21,"path":"translation"}},{"sampler":76,"target":{"node":21,"path":"rotation"}},{"sampler":77,"target":{"node":21,"path":"scale"}},{"sampler":78,"target":{"node":25,"path":"translation"}},{"sampler":79,"target":{"node":25,"path":"rotation"}},{"sampler":80,"target":{"node":25,"path":"scale"}},{"sampler":81,"target":{"node":24,"path":"translation"}},{"sampler":82,"target":{"node":24,"path":"rotation"}},{"sampler":83,"target":{"node":24,"path":"scale"}},{"sampler":84,"target":{"node":27,"path":"translation"}},{"sampler":85,"target":{"node":27,"path":"rotation"}},{"sampler":86,"target":{"node":27,"path":"scale"}},{"sampler":87,"target":{"node":28,"path":"translation"}},{"sampler":88,"target":{"node":28,"path":"rotation"}},{"sampler":89,"target":{"node":28,"path":"scale"}},{"sampler":90,"target":{"node":29,"path":"translation"}},{"sampler":91,"target":{"node":29,"path":"rotation"}},{"sampler":92,"target":{"node":29,"path":"scale"}},{"sampler":93,"target":{"node":33,"path":"translation"}}],"name":"Rat_Idle","samplers":[{"input":185,"interpolation":"STEP","output":12},{"input":185,"interpolation":"STEP","output":13},{"input":185,"interpolation":"STEP","output":14},{"input":185,"interpolation":"STEP","output":15},{"input":185,"interpolation":"STEP","output":16},{"input":185,"interpolation":"STEP","output":14},{"input":186,"interpolation":"LINEAR","output":187},{"input":185,"interpolation":"STEP","output":13},{"input":185,"interpolation":"STEP","output":14},{"input":185,"interpolation":"STEP","output":20},{"input":186,"interpolation":"LINEAR","output":188},{"input":185,"interpolation":"STEP","output":14},{"input":185,"interpolation":"STEP","output":22},{"input":186,"interpolation":"LINEAR","output":189},{"input":185,"interpolation":"STEP","output":24},{"input":185,"interpolation":"STEP","output":25},{"input":186,"interpolation":"LINEAR","output":190},{"input":185,"interpolation":"STEP","output":27},{"input":185,"interpolation":"STEP","output":28},{"input":186,"interpolation":"LINEAR","output":191},{"input":185,"interpolation":"STEP","output":30},{"input":185,"interpolation":"STEP","output":31},{"input":186,"interpolation":"LINEAR","output":192},{"input":185,"interpolation":"STEP","output":33},{"input":185,"interpolation":"STEP","output":34},{"input":186,"interpolation":"LINEAR","output":193},{"input":185,"interpolation":"STEP","output":36},{"input":185,"interpolation":"STEP","output":37},{"input":186,"interpolation":"LINEAR","output":194},{"input":185,"interpolation":"STEP","output":14},{"input":185,"interpolation":"STEP","output":195},{"input":186,"interpolation":"LINEAR","output":196},{"input":185,"interpolation":"STEP","output":74},{"input":185,"interpolation":"STEP","output":197},{"input":186,"interpolation":"LINEAR","output":198},{"input":185,"interpolation":"STEP","output":199},{"input":185,"interpolation":"STEP","output":45},{"input":186,"interpolation":"LINEAR","output":200},{"input":185,"interpolation":"STEP","output":14},{"input":185,"interpolation":"STEP","output":47},{"input":186,"interpolation":"LINEAR","output":201},{"input":185,"interpolation":"STEP","output":49},{"input":185,"interpolation":"STEP","output":50},{"input":186,"interpolation":"LINEAR","output":202},{"input":185,"interpolation":"STEP","output":52},{"input":185,"interpolation":"STEP","output":53},{"input":185,"interpolation":"STEP","output":54},{"input":185,"interpolation":"STEP","output":14},{"input":185,"interpolation":"STEP","output":55},{"input":185,"interpolation":"STEP","output":56},{"input":185,"interpolation":"STEP","output":57},{"input":185,"interpolation":"STEP","output":58},{"input":185,"interpolation":"STEP","output":203},{"input":185,"interpolation":"STEP","output":60},{"input":185,"interpolation":"STEP","output":61},{"input":186,"interpolation":"LINEAR","output":204},{"input":185,"interpolation":"STEP","output":60},{"input":185,"interpolation":"STEP","output":63},{"input":186,"interpolation":"LINEAR","output":205},{"input":185,"interpolation":"STEP","output":65},{"input":185,"interpolation":"STEP","output":66},{"input":186,"interpolation":"LINEAR","output":206},{"input":185,"interpolation":"STEP","output":68},{"input":185,"interpolation":"STEP","output":69},{"input":185,"interpolation":"STEP","output":70},{"input":185,"interpolation":"STEP","output":71},{"input":185,"interpolation":"STEP","output":72},{"input":186,"interpolation":"LINEAR","output":207},{"input":185,"interpolation":"STEP","output":74},{"input":185,"interpolation":"STEP","output":208},{"input":185,"interpolation":"STEP","output":209},{"input":185,"interpolation":"STEP","output":77},{"input":185,"interpolation":"STEP","output":78},{"input":186,"interpolation":"LINEAR","output":210},{"input":185,"interpolation":"STEP","output":80},{"input":185,"interpolation":"STEP","output":81},{"input":185,"interpolation":"STEP","output":211},{"input":185,"interpolation":"STEP","output":83},{"input":185,"interpolation":"STEP","output":84},{"input":185,"interpolation":"STEP","output":85},{"input":185,"interpolation":"STEP","output":86},{"input":185,"interpolation":"STEP","output":87},{"input":185,"interpolation":"STEP","output":88},{"input":185,"interpolation":"STEP","output":89},{"input":185,"interpolation":"STEP","output":90},{"input":185,"interpolation":"STEP","output":91},{"input":185,"interpolation":"STEP","output":71},{"input":185,"interpolation":"STEP","output":212},{"input":185,"interpolation":"STEP","output":93},{"input":185,"interpolation":"STEP","output":14},{"input":185,"interpolation":"STEP","output":94},{"input":185,"interpolation":"STEP","output":95},{"input":185,"interpolation":"STEP","output":71},{"input":429,"output":430,"interpolation":"LINEAR"}]},{"channels":[{"sampler":0,"target":{"node":30,"path":"translation"}},{"sampler":1,"target":{"node":30,"path":"rotation"}},{"sampler":2,"target":{"node":30,"path":"scale"}},{"sampler":3,"target":{"node":0,"path":"translation"}},{"sampler":4,"target":{"node":0,"path":"rotation"}},{"sampler":5,"target":{"node":0,"path":"scale"}},{"sampler":6,"target":{"node":26,"path":"translation"}},{"sampler":7,"target":{"node":26,"path":"rotation"}},{"sampler":8,"target":{"node":26,"path":"scale"}},{"sampler":9,"target":{"node":3,"path":"translation"}},{"sampler":10,"target":{"node":3,"path":"rotation"}},{"sampler":11,"target":{"node":3,"path":"scale"}},{"sampler":12,"target":{"node":2,"path":"translation"}},{"sampler":13,"target":{"node":2,"path":"rotation"}},{"sampler":14,"target":{"node":2,"path":"scale"}},{"sampler":15,"target":{"node":1,"path":"translation"}},{"sampler":16,"target":{"node":1,"path":"rotation"}},{"sampler":17,"target":{"node":1,"path":"scale"}},{"sampler":18,"target":{"node":6,"path":"translation"}},{"sampler":19,"target":{"node":6,"path":"rotation"}},{"sampler":20,"target":{"node":6,"path":"scale"}},{"sampler":21,"target":{"node":5,"path":"translation"}},{"sampler":22,"target":{"node":5,"path":"rotation"}},{"sampler":23,"target":{"node":5,"path":"scale"}},{"sampler":24,"target":{"node":4,"path":"translation"}},{"sampler":25,"target":{"node":4,"path":"rotation"}},{"sampler":26,"target":{"node":4,"path":"scale"}},{"sampler":27,"target":{"node":9,"path":"translation"}},{"sampler":28,"target":{"node":9,"path":"rotation"}},{"sampler":29,"target":{"node":9,"path":"scale"}},{"sampler":30,"target":{"node":8,"path":"translation"}},{"sampler":31,"target":{"node":8,"path":"rotation"}},{"sampler":32,"target":{"node":8,"path":"scale"}},{"sampler":33,"target":{"node":7,"path":"translation"}},{"sampler":34,"target":{"node":7,"path":"rotation"}},{"sampler":35,"target":{"node":7,"path":"scale"}},{"sampler":36,"target":{"node":12,"path":"translation"}},{"sampler":37,"target":{"node":12,"path":"rotation"}},{"sampler":38,"target":{"node":12,"path":"scale"}},{"sampler":39,"target":{"node":11,"path":"translation"}},{"sampler":40,"target":{"node":11,"path":"rotation"}},{"sampler":41,"target":{"node":11,"path":"scale"}},{"sampler":42,"target":{"node":10,"path":"translation"}},{"sampler":43,"target":{"node":10,"path":"rotation"}},{"sampler":44,"target":{"node":10,"path":"scale"}},{"sampler":45,"target":{"node":20,"path":"translation"}},{"sampler":46,"target":{"node":20,"path":"rotation"}},{"sampler":47,"target":{"node":20,"path":"scale"}},{"sampler":48,"target":{"node":19,"path":"translation"}},{"sampler":49,"target":{"node":19,"path":"rotation"}},{"sampler":50,"target":{"node":19,"path":"scale"}},{"sampler":51,"target":{"node":18,"path":"translation"}},{"sampler":52,"target":{"node":18,"path":"rotation"}},{"sampler":53,"target":{"node":18,"path":"scale"}},{"sampler":54,"target":{"node":17,"path":"translation"}},{"sampler":55,"target":{"node":17,"path":"rotation"}},{"sampler":56,"target":{"node":17,"path":"scale"}},{"sampler":57,"target":{"node":16,"path":"translation"}},{"sampler":58,"target":{"node":16,"path":"rotation"}},{"sampler":59,"target":{"node":16,"path":"scale"}},{"sampler":60,"target":{"node":15,"path":"translation"}},{"sampler":61,"target":{"node":15,"path":"rotation"}},{"sampler":62,"target":{"node":15,"path":"scale"}},{"sampler":63,"target":{"node":14,"path":"translation"}},{"sampler":64,"target":{"node":14,"path":"rotation"}},{"sampler":65,"target":{"node":14,"path":"scale"}},{"sampler":66,"target":{"node":13,"path":"translation"}},{"sampler":67,"target":{"node":13,"path":"rotation"}},{"sampler":68,"target":{"node":13,"path":"scale"}},{"sampler":69,"target":{"node":23,"path":"translation"}},{"sampler":70,"target":{"node":23,"path":"rotation"}},{"sampler":71,"target":{"node":23,"path":"scale"}},{"sampler":72,"target":{"node":22,"path":"translation"}},{"sampler":73,"target":{"node":22,"path":"rotation"}},{"sampler":74,"target":{"node":22,"path":"scale"}},{"sampler":75,"target":{"node":21,"path":"translation"}},{"sampler":76,"target":{"node":21,"path":"rotation"}},{"sampler":77,"target":{"node":21,"path":"scale"}},{"sampler":78,"target":{"node":25,"path":"translation"}},{"sampler":79,"target":{"node":25,"path":"rotation"}},{"sampler":80,"target":{"node":25,"path":"scale"}},{"sampler":81,"target":{"node":24,"path":"translation"}},{"sampler":82,"target":{"node":24,"path":"rotation"}},{"sampler":83,"target":{"node":24,"path":"scale"}},{"sampler":84,"target":{"node":27,"path":"translation"}},{"sampler":85,"target":{"node":27,"path":"rotation"}},{"sampler":86,"target":{"node":27,"path":"scale"}},{"sampler":87,"target":{"node":28,"path":"translation"}},{"sampler":88,"target":{"node":28,"path":"rotation"}},{"sampler":89,"target":{"node":28,"path":"scale"}},{"sampler":90,"target":{"node":29,"path":"translation"}},{"sampler":91,"target":{"node":29,"path":"rotation"}},{"sampler":92,"target":{"node":29,"path":"scale"}},{"sampler":93,"target":{"node":33,"path":"translation"}}],"name":"Rat_Walk","samplers":[{"input":354,"interpolation":"STEP","output":12},{"input":354,"interpolation":"STEP","output":13},{"input":354,"interpolation":"STEP","output":14},{"input":355,"interpolation":"LINEAR","output":356},{"input":355,"interpolation":"LINEAR","output":357},{"input":354,"interpolation":"STEP","output":14},{"input":355,"interpolation":"LINEAR","output":358},{"input":354,"interpolation":"STEP","output":13},{"input":354,"interpolation":"STEP","output":14},{"input":355,"interpolation":"LINEAR","output":359},{"input":355,"interpolation":"LINEAR","output":360},{"input":354,"interpolation":"STEP","output":14},{"input":354,"interpolation":"STEP","output":361},{"input":355,"interpolation":"LINEAR","output":362},{"input":354,"interpolation":"STEP","output":363},{"input":354,"interpolation":"STEP","output":364},{"input":355,"interpolation":"LINEAR","output":365},{"input":354,"interpolation":"STEP","output":366},{"input":355,"interpolation":"LINEAR","output":367},{"input":355,"interpolation":"LINEAR","output":368},{"input":354,"interpolation":"STEP","output":369},{"input":354,"interpolation":"STEP","output":370},{"input":355,"interpolation":"LINEAR","output":371},{"input":354,"interpolation":"STEP","output":372},{"input":354,"interpolation":"STEP","output":373},{"input":355,"interpolation":"LINEAR","output":374},{"input":354,"interpolation":"STEP","output":375},{"input":355,"interpolation":"LINEAR","output":376},{"input":355,"interpolation":"LINEAR","output":377},{"input":354,"interpolation":"STEP","output":14},{"input":354,"interpolation":"STEP","output":378},{"input":355,"interpolation":"LINEAR","output":379},{"input":354,"interpolation":"STEP","output":380},{"input":354,"interpolation":"STEP","output":381},{"input":355,"interpolation":"LINEAR","output":382},{"input":354,"interpolation":"STEP","output":383},{"input":355,"interpolation":"LINEAR","output":384},{"input":355,"interpolation":"LINEAR","output":385},{"input":354,"interpolation":"STEP","output":14},{"input":354,"interpolation":"STEP","output":386},{"input":355,"interpolation":"LINEAR","output":387},{"input":354,"interpolation":"STEP","output":388},{"input":354,"interpolation":"STEP","output":389},{"input":355,"interpolation":"LINEAR","output":390},{"input":354,"interpolation":"STEP","output":391},{"input":355,"interpolation":"LINEAR","output":392},{"input":354,"interpolation":"STEP","output":54},{"input":354,"interpolation":"STEP","output":14},{"input":354,"interpolation":"LINEAR","output":393},{"input":354,"interpolation":"STEP","output":56},{"input":354,"interpolation":"STEP","output":57},{"input":354,"interpolation":"STEP","output":394},{"input":355,"interpolation":"LINEAR","output":395},{"input":354,"interpolation":"STEP","output":60},{"input":354,"interpolation":"STEP","output":396},{"input":355,"interpolation":"LINEAR","output":397},{"input":354,"interpolation":"STEP","output":14},{"input":354,"interpolation":"STEP","output":398},{"input":355,"interpolation":"LINEAR","output":399},{"input":354,"interpolation":"STEP","output":266},{"input":354,"interpolation":"STEP","output":400},{"input":355,"interpolation":"LINEAR","output":401},{"input":354,"interpolation":"STEP","output":68},{"input":354,"interpolation":"STEP","output":402},{"input":355,"interpolation":"LINEAR","output":403},{"input":354,"interpolation":"STEP","output":404},{"input":354,"interpolation":"STEP","output":405},{"input":355,"interpolation":"LINEAR","output":406},{"input":354,"interpolation":"STEP","output":407},{"input":354,"interpolation":"LINEAR","output":408},{"input":355,"interpolation":"LINEAR","output":409},{"input":354,"interpolation":"STEP","output":77},{"input":354,"interpolation":"STEP","output":410},{"input":355,"interpolation":"LINEAR","output":411},{"input":354,"interpolation":"STEP","output":86},{"input":354,"interpolation":"STEP","output":412},{"input":355,"interpolation":"LINEAR","output":413},{"input":354,"interpolation":"STEP","output":414},{"input":354,"interpolation":"STEP","output":415},{"input":354,"interpolation":"STEP","output":85},{"input":354,"interpolation":"STEP","output":86},{"input":354,"interpolation":"STEP","output":416},{"input":354,"interpolation":"STEP","output":88},{"input":354,"interpolation":"STEP","output":89},{"input":355,"interpolation":"LINEAR","output":417},{"input":355,"interpolation":"LINEAR","output":418},{"input":354,"interpolation":"STEP","output":71},{"input":355,"interpolation":"LINEAR","output":419},{"input":355,"interpolation":"LINEAR","output":420},{"input":354,"interpolation":"STEP","output":14},{"input":355,"interpolation":"LINEAR","output":421},{"input":355,"interpolation":"LINEAR","output":422},{"input":354,"interpolation":"STEP","output":71},{"input":431,"output":432,"interpolation":"LINEAR"}]},{"name":"Hit","samplers":[{"input":423,"output":424,"interpolation":"LINEAR"},{"input":433,"output":434,"interpolation":"LINEAR"}],"channels":[{"sampler":0,"target":{"node":21,"path":"rotation"}},{"sampler":1,"target":{"node":33,"path":"translation"}}]}],"materials":[{"doubleSided":true,"name":"Pink","pbrMetallicRoughness":{"baseColorFactor":[0.8000000715255737,0.4603976309299469,0.41169273853302,1],"metallicFactor":0,"roughnessFactor":0.8500000238418579}},{"doubleSided":true,"name":"Grey","pbrMetallicRoughness":{"baseColorFactor":[0.14239461719989777,0.12006137520074844,0.13130934536457062,1],"metallicFactor":0,"roughnessFactor":0.8500000238418579}}],"meshes":[{"name":"Cylinder","primitives":[{"attributes":{"POSITION":0,"NORMAL":1,"JOINTS_0":2,"WEIGHTS_0":3},"indices":4,"material":0},{"attributes":{"POSITION":5,"NORMAL":6,"JOINTS_0":7,"WEIGHTS_0":8},"indices":9,"material":1}]}],"skins":[{"inverseBindMatrices":10,"joints":[30,0,26,3,2,1,6,5,4,9,8,7,12,11,10,20,19,18,17,16,15,14,13,23,22,21,25,24,27,28,29],"name":"Armature"}],"accessors":[{"bufferView":0,"componentType":5126,"count":5088,"max":[0.728473961353302,1.9285969734191895,2.069039821624756],"min":[-0.728473961353302,-0.0011607343330979347,-4.907060623168945],"type":"VEC3"},{"bufferView":1,"componentType":5126,"count":5088,"type":"VEC3"},{"bufferView":2,"componentType":5121,"count":5088,"type":"VEC4"},{"bufferView":3,"componentType":5126,"count":5088,"type":"VEC4"},{"bufferView":4,"componentType":5123,"count":7632,"type":"SCALAR"},{"bufferView":5,"componentType":5126,"count":2920,"max":[0.7429167032241821,2.290404796600342,2.0076887607574463],"min":[-0.7429167032241821,0.1826634705066681,-2.0706818103790283],"type":"VEC3"},{"bufferView":6,"componentType":5126,"count":2920,"type":"VEC3"},{"bufferView":7,"componentType":5121,"count":2920,"type":"VEC4"},{"bufferView":8,"componentType":5126,"count":2920,"type":"VEC4"},{"bufferView":9,"componentType":5123,"count":4380,"type":"SCALAR"},{"bufferView":10,"componentType":5126,"count":31,"type":"MAT4"},{"bufferView":11,"componentType":5126,"count":2,"max":[0.6666666666666666],"min":[0],"type":"SCALAR"},{"bufferView":12,"componentType":5126,"count":2,"type":"VEC3"},{"bufferView":13,"componentType":5126,"count":2,"type":"VEC4"},{"bufferView":14,"componentType":5126,"count":2,"type":"VEC3"},{"bufferView":15,"componentType":5126,"count":2,"type":"VEC3"},{"bufferView":16,"componentType":5126,"count":2,"type":"VEC4"},{"bufferView":17,"componentType":5126,"count":17,"max":[0.6666666666666666],"min":[0],"type":"SCALAR"},{"bufferView":18,"componentType":5126,"count":17,"type":"VEC3"},{"bufferView":19,"componentType":5126,"count":17,"type":"VEC4"},{"bufferView":20,"componentType":5126,"count":2,"type":"VEC3"},{"bufferView":21,"componentType":5126,"count":17,"type":"VEC4"},{"bufferView":22,"componentType":5126,"count":2,"type":"VEC3"},{"bufferView":23,"componentType":5126,"count":17,"type":"VEC4"},{"bufferView":24,"componentType":5126,"count":2,"type":"VEC3"},{"bufferView":25,"componentType":5126,"count":2,"type":"VEC3"},{"bufferView":26,"componentType":5126,"count":17,"type":"VEC4"},{"bufferView":27,"componentType":5126,"count":2,"type":"VEC3"},{"bufferView":28,"componentType":5126,"count":2,"type":"VEC3"},{"bufferView":29,"componentType":5126,"count":17,"type":"VEC4"},{"bufferView":30,"componentType":5126,"count":2,"type":"VEC3"},{"bufferView":31,"componentType":5126,"count":2,"type":"VEC3"},{"bufferView":32,"componentType":5126,"count":17,"type":"VEC4"},{"bufferView":33,"componentType":5126,"count":2,"type":"VEC3"},{"bufferView":34,"componentType":5126,"count":2,"type":"VEC3"},{"bufferView":35,"componentType":5126,"count":17,"type":"VEC4"},{"bufferView":36,"componentType":5126,"count":2,"type":"VEC3"},{"bufferView":37,"componentType":5126,"count":2,"type":"VEC3"},{"bufferView":38,"componentType":5126,"count":17,"type":"VEC4"},{"bufferView":39,"componentType":5126,"count":2,"type":"VEC3"},{"bufferView":40,"componentType":5126,"count":17,"type":"VEC4"},{"bufferView":41,"componentType":5126,"count":2,"type":"VEC3"},{"bufferView":42,"componentType":5126,"count":2,"type":"VEC3"},{"bufferView":43,"componentType":5126,"count":17,"type":"VEC4"},{"bufferView":44,"componentType":5126,"count":2,"type":"VEC3"},{"bufferView":45,"componentType":5126,"count":2,"type":"VEC3"},{"bufferView":46,"componentType":5126,"count":17,"type":"VEC4"},{"bufferView":47,"componentType":5126,"count":2,"type":"VEC3"},{"bufferView":48,"componentType":5126,"count":17,"type":"VEC4"},{"bufferView":49,"componentType":5126,"count":2,"type":"VEC3"},{"bufferView":50,"componentType":5126,"count":2,"type":"VEC3"},{"bufferView":51,"componentType":5126,"count":17,"type":"VEC4"},{"bufferView":52,"componentType":5126,"count":2,"type":"VEC3"},{"bufferView":53,"componentType":5126,"count":2,"type":"VEC3"},{"bufferView":54,"componentType":5126,"count":2,"type":"VEC4"},{"bufferView":55,"componentType":5126,"count":2,"type":"VEC3"},{"bufferView":56,"componentType":5126,"count":2,"type":"VEC4"},{"bufferView":57,"componentType":5126,"count":2,"type":"VEC3"},{"bufferView":58,"componentType":5126,"count":2,"type":"VEC3"},{"bufferView":59,"componentType":5126,"count":17,"type":"VEC4"},{"bufferView":60,"componentType":5126,"count":2,"type":"VEC3"},{"bufferView":61,"componentType":5126,"count":2,"type":"VEC3"},{"bufferView":62,"componentType":5126,"count":2,"type":"VEC4"},{"bufferView":63,"componentType":5126,"count":2,"type":"VEC3"},{"bufferView":64,"componentType":5126,"count":2,"type":"VEC4"},{"bufferView":65,"componentType":5126,"count":2,"type":"VEC3"},{"bufferView":66,"componentType":5126,"count":2,"type":"VEC3"},{"bufferView":67,"componentType":5126,"count":2,"type":"VEC4"},{"bufferView":68,"componentType":5126,"count":2,"type":"VEC3"},{"bufferView":69,"componentType":5126,"count":2,"type":"VEC3"},{"bufferView":70,"componentType":5126,"count":2,"type":"VEC4"},{"bufferView":71,"componentType":5126,"count":2,"type":"VEC3"},{"bufferView":72,"componentType":5126,"count":2,"type":"VEC3"},{"bufferView":73,"componentType":5126,"count":2,"type":"VEC4"},{"bufferView":74,"componentType":5126,"count":2,"type":"VEC3"},{"bufferView":75,"componentType":5126,"count":17,"type":"VEC3"},{"bufferView":76,"componentType":5126,"count":17,"type":"VEC4"},{"bufferView":77,"componentType":5126,"count":2,"type":"VEC3"},{"bufferView":78,"componentType":5126,"count":2,"type":"VEC3"},{"bufferView":79,"componentType":5126,"count":17,"type":"VEC4"},{"bufferView":80,"componentType":5126,"count":2,"type":"VEC3"},{"bufferView":81,"componentType":5126,"count":2,"type":"VEC3"},{"bufferView":82,"componentType":5126,"count":17,"type":"VEC4"},{"bufferView":83,"componentType":5126,"count":2,"type":"VEC3"},{"bufferView":84,"componentType":5126,"count":2,"type":"VEC3"},{"bufferView":85,"componentType":5126,"count":2,"type":"VEC4"},{"bufferView":86,"componentType":5126,"count":2,"type":"VEC3"},{"bufferView":87,"componentType":5126,"count":2,"type":"VEC3"},{"bufferView":88,"componentType":5126,"count":2,"type":"VEC4"},{"bufferView":89,"componentType":5126,"count":2,"type":"VEC3"},{"bufferView":90,"componentType":5126,"count":2,"type":"VEC3"},{"bufferView":91,"componentType":5126,"count":2,"type":"VEC4"},{"bufferView":92,"componentType":5126,"count":17,"type":"VEC3"},{"bufferView":93,"componentType":5126,"count":2,"type":"VEC4"},{"bufferView":94,"componentType":5126,"count":2,"type":"VEC3"},{"bufferView":95,"componentType":5126,"count":2,"type":"VEC4"},{"bufferView":96,"componentType":5126,"count":2,"max":[1.0833333333333333],"min":[0],"type":"SCALAR"},{"bufferView":97,"componentType":5126,"count":27,"max":[1.0833333333333333],"min":[0],"type":"SCALAR"},{"bufferView":98,"componentType":5126,"count":27,"type":"VEC3"},{"bufferView":99,"componentType":5126,"count":27,"type":"VEC4"},{"bufferView":100,"componentType":5126,"count":27,"type":"VEC3"},{"bufferView":101,"componentType":5126,"count":27,"type":"VEC4"},{"bufferView":102,"componentType":5126,"count":2,"type":"VEC3"},{"bufferView":103,"componentType":5126,"count":2,"type":"VEC3"},{"bufferView":104,"componentType":5126,"count":27,"type":"VEC4"},{"bufferView":105,"componentType":5126,"count":2,"type":"VEC3"},{"bufferView":106,"componentType":5126,"count":2,"type":"VEC3"},{"bufferView":107,"componentType":5126,"count":27,"type":"VEC4"},{"bufferView":108,"componentType":5126,"count":2,"type":"VEC3"},{"bufferView":109,"componentType":5126,"count":2,"type":"VEC3"},{"bufferView":110,"componentType":5126,"count":27,"type":"VEC4"},{"bufferView":111,"componentType":5126,"count":2,"type":"VEC3"},{"bufferView":112,"componentType":5126,"count":2,"type":"VEC3"},{"bufferView":113,"componentType":5126,"count":27,"type":"VEC4"},{"bufferView":114,"componentType":5126,"count":2,"type":"VEC3"},{"bufferView":115,"componentType":5126,"count":2,"type":"VEC3"},{"bufferView":116,"componentType":5126,"count":27,"type":"VEC4"},{"bufferView":117,"componentType":5126,"count":2,"type":"VEC3"},{"bufferView":118,"componentType":5126,"count":2,"type":"VEC3"},{"bufferView":119,"componentType":5126,"count":27,"type":"VEC4"},{"bufferView":120,"componentType":5126,"count":2,"type":"VEC3"},{"bufferView":121,"componentType":5126,"count":2,"type":"VEC3"},{"bufferView":122,"componentType":5126,"count":27,"type":"VEC4"},{"bufferView":123,"componentType":5126,"count":2,"type":"VEC3"},{"bufferView":124,"componentType":5126,"count":2,"type":"VEC3"},{"bufferView":125,"componentType":5126,"count":27,"type":"VEC4"},{"bufferView":126,"componentType":5126,"count":2,"type":"VEC3"},{"bufferView":127,"componentType":5126,"count":2,"type":"VEC3"},{"bufferView":128,"componentType":5126,"count":27,"type":"VEC4"},{"bufferView":129,"componentType":5126,"count":2,"type":"VEC3"},{"bufferView":130,"componentType":5126,"count":2,"type":"VEC3"},{"bufferView":131,"componentType":5126,"count":27,"type":"VEC4"},{"bufferView":132,"componentType":5126,"count":2,"type":"VEC3"},{"bufferView":133,"componentType":5126,"count":2,"type":"VEC3"},{"bufferView":134,"componentType":5126,"count":27,"type":"VEC4"},{"bufferView":135,"componentType":5126,"count":2,"type":"VEC3"},{"bufferView":136,"componentType":5126,"count":2,"type":"VEC3"},{"bufferView":137,"componentType":5126,"count":27,"type":"VEC4"},{"bufferView":138,"componentType":5126,"count":2,"type":"VEC3"},{"bufferView":139,"componentType":5126,"count":27,"type":"VEC3"},{"bufferView":140,"componentType":5126,"count":2,"type":"VEC4"},{"bufferView":141,"componentType":5126,"count":2,"type":"VEC3"},{"bufferView":142,"componentType":5126,"count":2,"type":"VEC3"},{"bufferView":143,"componentType":5126,"count":2,"type":"VEC4"},{"bufferView":144,"componentType":5126,"count":2,"type":"VEC3"},{"bufferView":145,"componentType":5126,"count":2,"type":"VEC3"},{"bufferView":146,"componentType":5126,"count":27,"type":"VEC4"},{"bufferView":147,"componentType":5126,"count":2,"type":"VEC3"},{"bufferView":148,"componentType":5126,"count":2,"type":"VEC3"},{"bufferView":149,"componentType":5126,"count":27,"type":"VEC4"},{"bufferView":150,"componentType":5126,"count":2,"type":"VEC3"},{"bufferView":151,"componentType":5126,"count":2,"type":"VEC3"},{"bufferView":152,"componentType":5126,"count":27,"type":"VEC4"},{"bufferView":153,"componentType":5126,"count":2,"type":"VEC3"},{"bufferView":154,"componentType":5126,"count":2,"type":"VEC3"},{"bufferView":155,"componentType":5126,"count":27,"type":"VEC4"},{"bufferView":156,"componentType":5126,"count":2,"type":"VEC3"},{"bufferView":157,"componentType":5126,"count":27,"type":"VEC4"},{"bufferView":158,"componentType":5126,"count":2,"type":"VEC3"},{"bufferView":159,"componentType":5126,"count":2,"type":"VEC3"},{"bufferView":160,"componentType":5126,"count":27,"type":"VEC4"},{"bufferView":161,"componentType":5126,"count":2,"type":"VEC3"},{"bufferView":162,"componentType":5126,"count":27,"type":"VEC3"},{"bufferView":163,"componentType":5126,"count":27,"type":"VEC4"},{"bufferView":164,"componentType":5126,"count":2,"type":"VEC3"},{"bufferView":165,"componentType":5126,"count":2,"type":"VEC3"},{"bufferView":166,"componentType":5126,"count":27,"type":"VEC4"},{"bufferView":167,"componentType":5126,"count":2,"type":"VEC3"},{"bufferView":168,"componentType":5126,"count":2,"type":"VEC3"},{"bufferView":169,"componentType":5126,"count":27,"type":"VEC4"},{"bufferView":170,"componentType":5126,"count":2,"type":"VEC3"},{"bufferView":171,"componentType":5126,"count":27,"type":"VEC3"},{"bufferView":172,"componentType":5126,"count":2,"type":"VEC4"},{"bufferView":173,"componentType":5126,"count":2,"type":"VEC3"},{"bufferView":174,"componentType":5126,"count":2,"type":"VEC3"},{"bufferView":175,"componentType":5126,"count":2,"type":"VEC4"},{"bufferView":176,"componentType":5126,"count":2,"type":"VEC3"},{"bufferView":177,"componentType":5126,"count":27,"type":"VEC3"},{"bufferView":178,"componentType":5126,"count":27,"type":"VEC4"},{"bufferView":179,"componentType":5126,"count":27,"type":"VEC3"},{"bufferView":180,"componentType":5126,"count":27,"type":"VEC4"},{"bufferView":181,"componentType":5126,"count":2,"type":"VEC3"},{"bufferView":182,"componentType":5126,"count":27,"type":"VEC3"},{"bufferView":183,"componentType":5126,"count":27,"type":"VEC4"},{"bufferView":184,"componentType":5126,"count":2,"type":"VEC3"},{"bufferView":185,"componentType":5126,"count":2,"max":[2.375],"min":[0],"type":"SCALAR"},{"bufferView":186,"componentType":5126,"count":58,"max":[2.375],"min":[0],"type":"SCALAR"},{"bufferView":187,"componentType":5126,"count":58,"type":"VEC3"},{"bufferView":188,"componentType":5126,"count":58,"type":"VEC4"},{"bufferView":189,"componentType":5126,"count":58,"type":"VEC4"},{"bufferView":190,"componentType":5126,"count":58,"type":"VEC4"},{"bufferView":191,"componentType":5126,"count":58,"type":"VEC4"},{"bufferView":192,"componentType":5126,"count":58,"type":"VEC4"},{"bufferView":193,"componentType":5126,"count":58,"type":"VEC4"},{"bufferView":194,"componentType":5126,"count":58,"type":"VEC4"},{"bufferView":195,"componentType":5126,"count":2,"type":"VEC3"},{"bufferView":196,"componentType":5126,"count":58,"type":"VEC4"},{"bufferView":197,"componentType":5126,"count":2,"type":"VEC3"},{"bufferView":198,"componentType":5126,"count":58,"type":"VEC4"},{"bufferView":199,"componentType":5126,"count":2,"type":"VEC3"},{"bufferView":200,"componentType":5126,"count":58,"type":"VEC4"},{"bufferView":201,"componentType":5126,"count":58,"type":"VEC4"},{"bufferView":202,"componentType":5126,"count":58,"type":"VEC4"},{"bufferView":203,"componentType":5126,"count":2,"type":"VEC4"},{"bufferView":204,"componentType":5126,"count":58,"type":"VEC4"},{"bufferView":205,"componentType":5126,"count":58,"type":"VEC4"},{"bufferView":206,"componentType":5126,"count":58,"type":"VEC4"},{"bufferView":207,"componentType":5126,"count":58,"type":"VEC4"},{"bufferView":208,"componentType":5126,"count":2,"type":"VEC3"},{"bufferView":209,"componentType":5126,"count":2,"type":"VEC4"},{"bufferView":210,"componentType":5126,"count":58,"type":"VEC4"},{"bufferView":211,"componentType":5126,"count":2,"type":"VEC4"},{"bufferView":212,"componentType":5126,"count":2,"type":"VEC3"},{"bufferView":213,"componentType":5126,"count":2,"max":[0.8333333333333334],"min":[0],"type":"SCALAR"},{"bufferView":214,"componentType":5126,"count":21,"max":[0.8333333333333334],"min":[0],"type":"SCALAR"},{"bufferView":215,"componentType":5126,"count":21,"type":"VEC3"},{"bufferView":216,"componentType":5126,"count":21,"type":"VEC4"},{"bufferView":217,"componentType":5126,"count":21,"type":"VEC3"},{"bufferView":218,"componentType":5126,"count":21,"type":"VEC4"},{"bufferView":219,"componentType":5126,"count":21,"type":"VEC3"},{"bufferView":220,"componentType":5126,"count":21,"type":"VEC4"},{"bufferView":221,"componentType":5126,"count":21,"type":"VEC4"},{"bufferView":222,"componentType":5126,"count":21,"type":"VEC4"},{"bufferView":223,"componentType":5126,"count":21,"type":"VEC3"},{"bufferView":224,"componentType":5126,"count":21,"type":"VEC4"},{"bufferView":225,"componentType":5126,"count":2,"type":"VEC3"},{"bufferView":226,"componentType":5126,"count":21,"type":"VEC4"},{"bufferView":227,"componentType":5126,"count":2,"type":"VEC3"},{"bufferView":228,"componentType":5126,"count":2,"type":"VEC3"},{"bufferView":229,"componentType":5126,"count":21,"type":"VEC4"},{"bufferView":230,"componentType":5126,"count":2,"type":"VEC3"},{"bufferView":231,"componentType":5126,"count":21,"type":"VEC3"},{"bufferView":232,"componentType":5126,"count":21,"type":"VEC4"},{"bufferView":233,"componentType":5126,"count":21,"type":"VEC4"},{"bufferView":234,"componentType":5126,"count":21,"type":"VEC4"},{"bufferView":235,"componentType":5126,"count":21,"type":"VEC3"},{"bufferView":236,"componentType":5126,"count":21,"type":"VEC4"},{"bufferView":237,"componentType":5126,"count":2,"type":"VEC3"},{"bufferView":238,"componentType":5126,"count":21,"type":"VEC4"},{"bufferView":239,"componentType":5126,"count":2,"type":"VEC3"},{"bufferView":240,"componentType":5126,"count":2,"type":"VEC3"},{"bufferView":241,"componentType":5126,"count":21,"type":"VEC4"},{"bufferView":242,"componentType":5126,"count":2,"type":"VEC3"},{"bufferView":243,"componentType":5126,"count":21,"type":"VEC3"},{"bufferView":244,"componentType":5126,"count":21,"type":"VEC4"},{"bufferView":245,"componentType":5126,"count":21,"type":"VEC4"},{"bufferView":246,"componentType":5126,"count":2,"type":"VEC3"},{"bufferView":247,"componentType":5126,"count":2,"type":"VEC3"},{"bufferView":248,"componentType":5126,"count":21,"type":"VEC4"},{"bufferView":249,"componentType":5126,"count":2,"type":"VEC3"},{"bufferView":250,"componentType":5126,"count":2,"type":"VEC3"},{"bufferView":251,"componentType":5126,"count":21,"type":"VEC4"},{"bufferView":252,"componentType":5126,"count":2,"type":"VEC3"},{"bufferView":253,"componentType":5126,"count":2,"type":"VEC3"},{"bufferView":254,"componentType":5126,"count":2,"type":"VEC4"},{"bufferView":255,"componentType":5126,"count":2,"type":"VEC3"},{"bufferView":256,"componentType":5126,"count":21,"type":"VEC4"},{"bufferView":257,"componentType":5126,"count":2,"type":"VEC3"},{"bufferView":258,"componentType":5126,"count":21,"type":"VEC3"},{"bufferView":259,"componentType":5126,"count":21,"type":"VEC4"},{"bufferView":260,"componentType":5126,"count":2,"type":"VEC4"},{"bufferView":261,"componentType":5126,"count":21,"type":"VEC4"},{"bufferView":262,"componentType":5126,"count":2,"type":"VEC3"},{"bufferView":263,"componentType":5126,"count":21,"type":"VEC3"},{"bufferView":264,"componentType":5126,"count":21,"type":"VEC4"},{"bufferView":265,"componentType":5126,"count":21,"type":"VEC4"},{"bufferView":266,"componentType":5126,"count":2,"type":"VEC3"},{"bufferView":267,"componentType":5126,"count":21,"type":"VEC3"},{"bufferView":268,"componentType":5126,"count":21,"type":"VEC4"},{"bufferView":269,"componentType":5126,"count":21,"type":"VEC3"},{"bufferView":270,"componentType":5126,"count":21,"type":"VEC4"},{"bufferView":271,"componentType":5126,"count":21,"type":"VEC3"},{"bufferView":272,"componentType":5126,"count":21,"type":"VEC4"},{"bufferView":273,"componentType":5126,"count":2,"max":[0.5],"min":[0],"type":"SCALAR"},{"bufferView":274,"componentType":5126,"count":13,"max":[0.5],"min":[0],"type":"SCALAR"},{"bufferView":275,"componentType":5126,"count":13,"type":"VEC3"},{"bufferView":276,"componentType":5126,"count":13,"type":"VEC4"},{"bufferView":277,"componentType":5126,"count":13,"type":"VEC3"},{"bufferView":278,"componentType":5126,"count":2,"type":"VEC4"},{"bufferView":279,"componentType":5126,"count":13,"type":"VEC3"},{"bufferView":280,"componentType":5126,"count":13,"type":"VEC4"},{"bufferView":281,"componentType":5126,"count":2,"type":"VEC3"},{"bufferView":282,"componentType":5126,"count":13,"type":"VEC4"},{"bufferView":283,"componentType":5126,"count":2,"type":"VEC3"},{"bufferView":284,"componentType":5126,"count":2,"type":"VEC3"},{"bufferView":285,"componentType":5126,"count":13,"type":"VEC4"},{"bufferView":286,"componentType":5126,"count":2,"type":"VEC3"},{"bufferView":287,"componentType":5126,"count":13,"type":"VEC3"},{"bufferView":288,"componentType":5126,"count":13,"type":"VEC4"},{"bufferView":289,"componentType":5126,"count":2,"type":"VEC3"},{"bufferView":290,"componentType":5126,"count":2,"type":"VEC3"},{"bufferView":291,"componentType":5126,"count":13,"type":"VEC4"},{"bufferView":292,"componentType":5126,"count":2,"type":"VEC3"},{"bufferView":293,"componentType":5126,"count":2,"type":"VEC3"},{"bufferView":294,"componentType":5126,"count":13,"type":"VEC4"},{"bufferView":295,"componentType":5126,"count":2,"type":"VEC3"},{"bufferView":296,"componentType":5126,"count":13,"type":"VEC3"},{"bufferView":297,"componentType":5126,"count":13,"type":"VEC4"},{"bufferView":298,"componentType":5126,"count":2,"type":"VEC3"},{"bufferView":299,"componentType":5126,"count":2,"type":"VEC3"},{"bufferView":300,"componentType":5126,"count":13,"type":"VEC4"},{"bufferView":301,"componentType":5126,"count":2,"type":"VEC3"},{"bufferView":302,"componentType":5126,"count":2,"type":"VEC3"},{"bufferView":303,"componentType":5126,"count":13,"type":"VEC4"},{"bufferView":304,"componentType":5126,"count":2,"type":"VEC3"},{"bufferView":305,"componentType":5126,"count":13,"type":"VEC3"},{"bufferView":306,"componentType":5126,"count":13,"type":"VEC4"},{"bufferView":307,"componentType":5126,"count":2,"type":"VEC3"},{"bufferView":308,"componentType":5126,"count":2,"type":"VEC3"},{"bufferView":309,"componentType":5126,"count":13,"type":"VEC4"},{"bufferView":310,"componentType":5126,"count":2,"type":"VEC3"},{"bufferView":311,"componentType":5126,"count":2,"type":"VEC3"},{"bufferView":312,"componentType":5126,"count":13,"type":"VEC4"},{"bufferView":313,"componentType":5126,"count":2,"type":"VEC3"},{"bufferView":314,"componentType":5126,"count":13,"type":"VEC3"},{"bufferView":315,"componentType":5126,"count":13,"type":"VEC4"},{"bufferView":316,"componentType":5126,"count":2,"type":"VEC3"},{"bufferView":317,"componentType":5126,"count":2,"type":"VEC4"},{"bufferView":318,"componentType":5126,"count":2,"type":"VEC3"},{"bufferView":319,"componentType":5126,"count":2,"type":"VEC3"},{"bufferView":320,"componentType":5126,"count":13,"type":"VEC4"},{"bufferView":321,"componentType":5126,"count":2,"type":"VEC3"},{"bufferView":322,"componentType":5126,"count":2,"type":"VEC3"},{"bufferView":323,"componentType":5126,"count":13,"type":"VEC4"},{"bufferView":324,"componentType":5126,"count":2,"type":"VEC3"},{"bufferView":325,"componentType":5126,"count":2,"type":"VEC3"},{"bufferView":326,"componentType":5126,"count":13,"type":"VEC4"},{"bufferView":327,"componentType":5126,"count":2,"type":"VEC3"},{"bufferView":328,"componentType":5126,"count":2,"type":"VEC3"},{"bufferView":329,"componentType":5126,"count":13,"type":"VEC4"},{"bufferView":330,"componentType":5126,"count":2,"type":"VEC3"},{"bufferView":331,"componentType":5126,"count":2,"type":"VEC3"},{"bufferView":332,"componentType":5126,"count":13,"type":"VEC4"},{"bufferView":333,"componentType":5126,"count":2,"type":"VEC3"},{"bufferView":334,"componentType":5126,"count":2,"type":"VEC3"},{"bufferView":335,"componentType":5126,"count":13,"type":"VEC4"},{"bufferView":336,"componentType":5126,"count":2,"type":"VEC3"},{"bufferView":337,"componentType":5126,"count":13,"type":"VEC3"},{"bufferView":338,"componentType":5126,"count":2,"type":"VEC3"},{"bufferView":339,"componentType":5126,"count":2,"type":"VEC3"},{"bufferView":340,"componentType":5126,"count":2,"type":"VEC4"},{"bufferView":341,"componentType":5126,"count":2,"type":"VEC3"},{"bufferView":342,"componentType":5126,"count":2,"type":"VEC4"},{"bufferView":343,"componentType":5126,"count":2,"type":"VEC3"},{"bufferView":344,"componentType":5126,"count":2,"type":"VEC3"},{"bufferView":345,"componentType":5126,"count":2,"type":"VEC3"},{"bufferView":346,"componentType":5126,"count":2,"type":"VEC4"},{"bufferView":347,"componentType":5126,"count":2,"type":"VEC3"},{"bufferView":348,"componentType":5126,"count":13,"type":"VEC3"},{"bufferView":349,"componentType":5126,"count":13,"type":"VEC4"},{"bufferView":350,"componentType":5126,"count":13,"type":"VEC3"},{"bufferView":351,"componentType":5126,"count":13,"type":"VEC4"},{"bufferView":352,"componentType":5126,"count":13,"type":"VEC3"},{"bufferView":353,"componentType":5126,"count":13,"type":"VEC4"},{"bufferView":354,"componentType":5126,"count":2,"max":[1.3333333333333333],"min":[0],"type":"SCALAR"},{"bufferView":355,"componentType":5126,"count":33,"max":[1.3333333333333333],"min":[0],"type":"SCALAR"},{"bufferView":356,"componentType":5126,"count":33,"type":"VEC3"},{"bufferView":357,"componentType":5126,"count":33,"type":"VEC4"},{"bufferView":358,"componentType":5126,"count":33,"type":"VEC3"},{"bufferView":359,"componentType":5126,"count":33,"type":"VEC3"},{"bufferView":360,"componentType":5126,"count":33,"type":"VEC4"},{"bufferView":361,"componentType":5126,"count":2,"type":"VEC3"},{"bufferView":362,"componentType":5126,"count":33,"type":"VEC4"},{"bufferView":363,"componentType":5126,"count":2,"type":"VEC3"},{"bufferView":364,"componentType":5126,"count":2,"type":"VEC3"},{"bufferView":365,"componentType":5126,"count":33,"type":"VEC4"},{"bufferView":366,"componentType":5126,"count":2,"type":"VEC3"},{"bufferView":367,"componentType":5126,"count":33,"type":"VEC3"},{"bufferView":368,"componentType":5126,"count":33,"type":"VEC4"},{"bufferView":369,"componentType":5126,"count":2,"type":"VEC3"},{"bufferView":370,"componentType":5126,"count":2,"type":"VEC3"},{"bufferView":371,"componentType":5126,"count":33,"type":"VEC4"},{"bufferView":372,"componentType":5126,"count":2,"type":"VEC3"},{"bufferView":373,"componentType":5126,"count":2,"type":"VEC3"},{"bufferView":374,"componentType":5126,"count":33,"type":"VEC4"},{"bufferView":375,"componentType":5126,"count":2,"type":"VEC3"},{"bufferView":376,"componentType":5126,"count":33,"type":"VEC3"},{"bufferView":377,"componentType":5126,"count":33,"type":"VEC4"},{"bufferView":378,"componentType":5126,"count":2,"type":"VEC3"},{"bufferView":379,"componentType":5126,"count":33,"type":"VEC4"},{"bufferView":380,"componentType":5126,"count":2,"type":"VEC3"},{"bufferView":381,"componentType":5126,"count":2,"type":"VEC3"},{"bufferView":382,"componentType":5126,"count":33,"type":"VEC4"},{"bufferView":383,"componentType":5126,"count":2,"type":"VEC3"},{"bufferView":384,"componentType":5126,"count":33,"type":"VEC3"},{"bufferView":385,"componentType":5126,"count":33,"type":"VEC4"},{"bufferView":386,"componentType":5126,"count":2,"type":"VEC3"},{"bufferView":387,"componentType":5126,"count":33,"type":"VEC4"},{"bufferView":388,"componentType":5126,"count":2,"type":"VEC3"},{"bufferView":389,"componentType":5126,"count":2,"type":"VEC3"},{"bufferView":390,"componentType":5126,"count":33,"type":"VEC4"},{"bufferView":391,"componentType":5126,"count":2,"type":"VEC3"},{"bufferView":392,"componentType":5126,"count":33,"type":"VEC3"},{"bufferView":393,"componentType":5126,"count":2,"type":"VEC3"},{"bufferView":394,"componentType":5126,"count":2,"type":"VEC3"},{"bufferView":395,"componentType":5126,"count":33,"type":"VEC4"},{"bufferView":396,"componentType":5126,"count":2,"type":"VEC3"},{"bufferView":397,"componentType":5126,"count":33,"type":"VEC4"},{"bufferView":398,"componentType":5126,"count":2,"type":"VEC3"},{"bufferView":399,"componentType":5126,"count":33,"type":"VEC4"},{"bufferView":400,"componentType":5126,"count":2,"type":"VEC3"},{"bufferView":401,"componentType":5126,"count":33,"type":"VEC4"},{"bufferView":402,"componentType":5126,"count":2,"type":"VEC3"},{"bufferView":403,"componentType":5126,"count":33,"type":"VEC4"},{"bufferView":404,"componentType":5126,"count":2,"type":"VEC3"},{"bufferView":405,"componentType":5126,"count":2,"type":"VEC3"},{"bufferView":406,"componentType":5126,"count":33,"type":"VEC4"},{"bufferView":407,"componentType":5126,"count":2,"type":"VEC3"},{"bufferView":408,"componentType":5126,"count":2,"type":"VEC3"},{"bufferView":409,"componentType":5126,"count":33,"type":"VEC4"},{"bufferView":410,"componentType":5126,"count":2,"type":"VEC3"},{"bufferView":411,"componentType":5126,"count":33,"type":"VEC4"},{"bufferView":412,"componentType":5126,"count":2,"type":"VEC3"},{"bufferView":413,"componentType":5126,"count":33,"type":"VEC4"},{"bufferView":414,"componentType":5126,"count":2,"type":"VEC3"},{"bufferView":415,"componentType":5126,"count":2,"type":"VEC3"},{"bufferView":416,"componentType":5126,"count":2,"type":"VEC3"},{"bufferView":417,"componentType":5126,"count":33,"type":"VEC3"},{"bufferView":418,"componentType":5126,"count":33,"type":"VEC4"},{"bufferView":419,"componentType":5126,"count":33,"type":"VEC3"},{"bufferView":420,"componentType":5126,"count":33,"type":"VEC4"},{"bufferView":421,"componentType":5126,"count":33,"type":"VEC3"},{"bufferView":422,"componentType":5126,"count":33,"type":"VEC4"},{"bufferView":423,"componentType":5126,"type":"SCALAR","count":4,"min":[0],"max":[0.32]},{"bufferView":424,"componentType":5126,"type":"VEC4","count":4},{"bufferView":425,"componentType":5126,"type":"SCALAR","count":42,"min":[0],"max":[0.6666666865348816]},{"bufferView":426,"componentType":5126,"type":"VEC3","count":42},{"bufferView":427,"componentType":5126,"type":"SCALAR","count":67,"min":[0],"max":[1.0833333730697632]},{"bufferView":428,"componentType":5126,"type":"VEC3","count":67},{"bufferView":429,"componentType":5126,"type":"SCALAR","count":144,"min":[0],"max":[2.375]},{"bufferView":430,"componentType":5126,"type":"VEC3","count":144},{"bufferView":431,"componentType":5126,"type":"SCALAR","count":82,"min":[0],"max":[1.3333333730697632]},{"bufferView":432,"componentType":5126,"type":"VEC3","count":82},{"bufferView":433,"componentType":5126,"type":"SCALAR","count":21,"min":[0],"max":[0.3199999928474426]},{"bufferView":434,"componentType":5126,"type":"VEC3","count":21}],"bufferViews":[{"buffer":0,"byteLength":61056,"byteOffset":0,"target":34962},{"buffer":0,"byteLength":61056,"byteOffset":61056,"target":34962},{"buffer":0,"byteLength":20352,"byteOffset":122112,"target":34962},{"buffer":0,"byteLength":81408,"byteOffset":142464,"target":34962},{"buffer":0,"byteLength":15264,"byteOffset":223872,"target":34963},{"buffer":0,"byteLength":35040,"byteOffset":239136,"target":34962},{"buffer":0,"byteLength":35040,"byteOffset":274176,"target":34962},{"buffer":0,"byteLength":11680,"byteOffset":309216,"target":34962},{"buffer":0,"byteLength":46720,"byteOffset":320896,"target":34962},{"buffer":0,"byteLength":8760,"byteOffset":367616,"target":34963},{"buffer":0,"byteLength":1984,"byteOffset":376376},{"buffer":0,"byteLength":8,"byteOffset":378360},{"buffer":0,"byteLength":24,"byteOffset":378368},{"buffer":0,"byteLength":32,"byteOffset":378392},{"buffer":0,"byteLength":24,"byteOffset":378424},{"buffer":0,"byteLength":24,"byteOffset":378448},{"buffer":0,"byteLength":32,"byteOffset":378472},{"buffer":0,"byteLength":68,"byteOffset":378504},{"buffer":0,"byteLength":204,"byteOffset":378572},{"buffer":0,"byteLength":272,"byteOffset":378776},{"buffer":0,"byteLength":24,"byteOffset":379048},{"buffer":0,"byteLength":272,"byteOffset":379072},{"buffer":0,"byteLength":24,"byteOffset":379344},{"buffer":0,"byteLength":272,"byteOffset":379368},{"buffer":0,"byteLength":24,"byteOffset":379640},{"buffer":0,"byteLength":24,"byteOffset":379664},{"buffer":0,"byteLength":272,"byteOffset":379688},{"buffer":0,"byteLength":24,"byteOffset":379960},{"buffer":0,"byteLength":24,"byteOffset":379984},{"buffer":0,"byteLength":272,"byteOffset":380008},{"buffer":0,"byteLength":24,"byteOffset":380280},{"buffer":0,"byteLength":24,"byteOffset":380304},{"buffer":0,"byteLength":272,"byteOffset":380328},{"buffer":0,"byteLength":24,"byteOffset":380600},{"buffer":0,"byteLength":24,"byteOffset":380624},{"buffer":0,"byteLength":272,"byteOffset":380648},{"buffer":0,"byteLength":24,"byteOffset":380920},{"buffer":0,"byteLength":24,"byteOffset":380944},{"buffer":0,"byteLength":272,"byteOffset":380968},{"buffer":0,"byteLength":24,"byteOffset":381240},{"buffer":0,"byteLength":272,"byteOffset":381264},{"buffer":0,"byteLength":24,"byteOffset":381536},{"buffer":0,"byteLength":24,"byteOffset":381560},{"buffer":0,"byteLength":272,"byteOffset":381584},{"buffer":0,"byteLength":24,"byteOffset":381856},{"buffer":0,"byteLength":24,"byteOffset":381880},{"buffer":0,"byteLength":272,"byteOffset":381904},{"buffer":0,"byteLength":24,"byteOffset":382176},{"buffer":0,"byteLength":272,"byteOffset":382200},{"buffer":0,"byteLength":24,"byteOffset":382472},{"buffer":0,"byteLength":24,"byteOffset":382496},{"buffer":0,"byteLength":272,"byteOffset":382520},{"buffer":0,"byteLength":24,"byteOffset":382792},{"buffer":0,"byteLength":24,"byteOffset":382816},{"buffer":0,"byteLength":32,"byteOffset":382840},{"buffer":0,"byteLength":24,"byteOffset":382872},{"buffer":0,"byteLength":32,"byteOffset":382896},{"buffer":0,"byteLength":24,"byteOffset":382928},{"buffer":0,"byteLength":24,"byteOffset":382952},{"buffer":0,"byteLength":272,"byteOffset":382976},{"buffer":0,"byteLength":24,"byteOffset":383248},{"buffer":0,"byteLength":24,"byteOffset":383272},{"buffer":0,"byteLength":32,"byteOffset":383296},{"buffer":0,"byteLength":24,"byteOffset":383328},{"buffer":0,"byteLength":32,"byteOffset":383352},{"buffer":0,"byteLength":24,"byteOffset":383384},{"buffer":0,"byteLength":24,"byteOffset":383408},{"buffer":0,"byteLength":32,"byteOffset":383432},{"buffer":0,"byteLength":24,"byteOffset":383464},{"buffer":0,"byteLength":24,"byteOffset":383488},{"buffer":0,"byteLength":32,"byteOffset":383512},{"buffer":0,"byteLength":24,"byteOffset":383544},{"buffer":0,"byteLength":24,"byteOffset":383568},{"buffer":0,"byteLength":32,"byteOffset":383592},{"buffer":0,"byteLength":24,"byteOffset":383624},{"buffer":0,"byteLength":204,"byteOffset":383648},{"buffer":0,"byteLength":272,"byteOffset":383852},{"buffer":0,"byteLength":24,"byteOffset":384124},{"buffer":0,"byteLength":24,"byteOffset":384148},{"buffer":0,"byteLength":272,"byteOffset":384172},{"buffer":0,"byteLength":24,"byteOffset":384444},{"buffer":0,"byteLength":24,"byteOffset":384468},{"buffer":0,"byteLength":272,"byteOffset":384492},{"buffer":0,"byteLength":24,"byteOffset":384764},{"buffer":0,"byteLength":24,"byteOffset":384788},{"buffer":0,"byteLength":32,"byteOffset":384812},{"buffer":0,"byteLength":24,"byteOffset":384844},{"buffer":0,"byteLength":24,"byteOffset":384868},{"buffer":0,"byteLength":32,"byteOffset":384892},{"buffer":0,"byteLength":24,"byteOffset":384924},{"buffer":0,"byteLength":24,"byteOffset":384948},{"buffer":0,"byteLength":32,"byteOffset":384972},{"buffer":0,"byteLength":204,"byteOffset":385004},{"buffer":0,"byteLength":32,"byteOffset":385208},{"buffer":0,"byteLength":24,"byteOffset":385240},{"buffer":0,"byteLength":32,"byteOffset":385264},{"buffer":0,"byteLength":8,"byteOffset":385296},{"buffer":0,"byteLength":108,"byteOffset":385304},{"buffer":0,"byteLength":324,"byteOffset":385412},{"buffer":0,"byteLength":432,"byteOffset":385736},{"buffer":0,"byteLength":324,"byteOffset":386168},{"buffer":0,"byteLength":432,"byteOffset":386492},{"buffer":0,"byteLength":24,"byteOffset":386924},{"buffer":0,"byteLength":24,"byteOffset":386948},{"buffer":0,"byteLength":432,"byteOffset":386972},{"buffer":0,"byteLength":24,"byteOffset":387404},{"buffer":0,"byteLength":24,"byteOffset":387428},{"buffer":0,"byteLength":432,"byteOffset":387452},{"buffer":0,"byteLength":24,"byteOffset":387884},{"buffer":0,"byteLength":24,"byteOffset":387908},{"buffer":0,"byteLength":432,"byteOffset":387932},{"buffer":0,"byteLength":24,"byteOffset":388364},{"buffer":0,"byteLength":24,"byteOffset":388388},{"buffer":0,"byteLength":432,"byteOffset":388412},{"buffer":0,"byteLength":24,"byteOffset":388844},{"buffer":0,"byteLength":24,"byteOffset":388868},{"buffer":0,"byteLength":432,"byteOffset":388892},{"buffer":0,"byteLength":24,"byteOffset":389324},{"buffer":0,"byteLength":24,"byteOffset":389348},{"buffer":0,"byteLength":432,"byteOffset":389372},{"buffer":0,"byteLength":24,"byteOffset":389804},{"buffer":0,"byteLength":24,"byteOffset":389828},{"buffer":0,"byteLength":432,"byteOffset":389852},{"buffer":0,"byteLength":24,"byteOffset":390284},{"buffer":0,"byteLength":24,"byteOffset":390308},{"buffer":0,"byteLength":432,"byteOffset":390332},{"buffer":0,"byteLength":24,"byteOffset":390764},{"buffer":0,"byteLength":24,"byteOffset":390788},{"buffer":0,"byteLength":432,"byteOffset":390812},{"buffer":0,"byteLength":24,"byteOffset":391244},{"buffer":0,"byteLength":24,"byteOffset":391268},{"buffer":0,"byteLength":432,"byteOffset":391292},{"buffer":0,"byteLength":24,"byteOffset":391724},{"buffer":0,"byteLength":24,"byteOffset":391748},{"buffer":0,"byteLength":432,"byteOffset":391772},{"buffer":0,"byteLength":24,"byteOffset":392204},{"buffer":0,"byteLength":24,"byteOffset":392228},{"buffer":0,"byteLength":432,"byteOffset":392252},{"buffer":0,"byteLength":24,"byteOffset":392684},{"buffer":0,"byteLength":324,"byteOffset":392708},{"buffer":0,"byteLength":32,"byteOffset":393032},{"buffer":0,"byteLength":24,"byteOffset":393064},{"buffer":0,"byteLength":24,"byteOffset":393088},{"buffer":0,"byteLength":32,"byteOffset":393112},{"buffer":0,"byteLength":24,"byteOffset":393144},{"buffer":0,"byteLength":24,"byteOffset":393168},{"buffer":0,"byteLength":432,"byteOffset":393192},{"buffer":0,"byteLength":24,"byteOffset":393624},{"buffer":0,"byteLength":24,"byteOffset":393648},{"buffer":0,"byteLength":432,"byteOffset":393672},{"buffer":0,"byteLength":24,"byteOffset":394104},{"buffer":0,"byteLength":24,"byteOffset":394128},{"buffer":0,"byteLength":432,"byteOffset":394152},{"buffer":0,"byteLength":24,"byteOffset":394584},{"buffer":0,"byteLength":24,"byteOffset":394608},{"buffer":0,"byteLength":432,"byteOffset":394632},{"buffer":0,"byteLength":24,"byteOffset":395064},{"buffer":0,"byteLength":432,"byteOffset":395088},{"buffer":0,"byteLength":24,"byteOffset":395520},{"buffer":0,"byteLength":24,"byteOffset":395544},{"buffer":0,"byteLength":432,"byteOffset":395568},{"buffer":0,"byteLength":24,"byteOffset":396000},{"buffer":0,"byteLength":324,"byteOffset":396024},{"buffer":0,"byteLength":432,"byteOffset":396348},{"buffer":0,"byteLength":24,"byteOffset":396780},{"buffer":0,"byteLength":24,"byteOffset":396804},{"buffer":0,"byteLength":432,"byteOffset":396828},{"buffer":0,"byteLength":24,"byteOffset":397260},{"buffer":0,"byteLength":24,"byteOffset":397284},{"buffer":0,"byteLength":432,"byteOffset":397308},{"buffer":0,"byteLength":24,"byteOffset":397740},{"buffer":0,"byteLength":324,"byteOffset":397764},{"buffer":0,"byteLength":32,"byteOffset":398088},{"buffer":0,"byteLength":24,"byteOffset":398120},{"buffer":0,"byteLength":24,"byteOffset":398144},{"buffer":0,"byteLength":32,"byteOffset":398168},{"buffer":0,"byteLength":24,"byteOffset":398200},{"buffer":0,"byteLength":324,"byteOffset":398224},{"buffer":0,"byteLength":432,"byteOffset":398548},{"buffer":0,"byteLength":324,"byteOffset":398980},{"buffer":0,"byteLength":432,"byteOffset":399304},{"buffer":0,"byteLength":24,"byteOffset":399736},{"buffer":0,"byteLength":324,"byteOffset":399760},{"buffer":0,"byteLength":432,"byteOffset":400084},{"buffer":0,"byteLength":24,"byteOffset":400516},{"buffer":0,"byteLength":8,"byteOffset":400540},{"buffer":0,"byteLength":232,"byteOffset":400548},{"buffer":0,"byteLength":696,"byteOffset":400780},{"buffer":0,"byteLength":928,"byteOffset":401476},{"buffer":0,"byteLength":928,"byteOffset":402404},{"buffer":0,"byteLength":928,"byteOffset":403332},{"buffer":0,"byteLength":928,"byteOffset":404260},{"buffer":0,"byteLength":928,"byteOffset":405188},{"buffer":0,"byteLength":928,"byteOffset":406116},{"buffer":0,"byteLength":928,"byteOffset":407044},{"buffer":0,"byteLength":24,"byteOffset":407972},{"buffer":0,"byteLength":928,"byteOffset":407996},{"buffer":0,"byteLength":24,"byteOffset":408924},{"buffer":0,"byteLength":928,"byteOffset":408948},{"buffer":0,"byteLength":24,"byteOffset":409876},{"buffer":0,"byteLength":928,"byteOffset":409900},{"buffer":0,"byteLength":928,"byteOffset":410828},{"buffer":0,"byteLength":928,"byteOffset":411756},{"buffer":0,"byteLength":32,"byteOffset":412684},{"buffer":0,"byteLength":928,"byteOffset":412716},{"buffer":0,"byteLength":928,"byteOffset":413644},{"buffer":0,"byteLength":928,"byteOffset":414572},{"buffer":0,"byteLength":928,"byteOffset":415500},{"buffer":0,"byteLength":24,"byteOffset":416428},{"buffer":0,"byteLength":32,"byteOffset":416452},{"buffer":0,"byteLength":928,"byteOffset":416484},{"buffer":0,"byteLength":32,"byteOffset":417412},{"buffer":0,"byteLength":24,"byteOffset":417444},{"buffer":0,"byteLength":8,"byteOffset":417468},{"buffer":0,"byteLength":84,"byteOffset":417476},{"buffer":0,"byteLength":252,"byteOffset":417560},{"buffer":0,"byteLength":336,"byteOffset":417812},{"buffer":0,"byteLength":252,"byteOffset":418148},{"buffer":0,"byteLength":336,"byteOffset":418400},{"buffer":0,"byteLength":252,"byteOffset":418736},{"buffer":0,"byteLength":336,"byteOffset":418988},{"buffer":0,"byteLength":336,"byteOffset":419324},{"buffer":0,"byteLength":336,"byteOffset":419660},{"buffer":0,"byteLength":252,"byteOffset":419996},{"buffer":0,"byteLength":336,"byteOffset":420248},{"buffer":0,"byteLength":24,"byteOffset":420584},{"buffer":0,"byteLength":336,"byteOffset":420608},{"buffer":0,"byteLength":24,"byteOffset":420944},{"buffer":0,"byteLength":24,"byteOffset":420968},{"buffer":0,"byteLength":336,"byteOffset":420992},{"buffer":0,"byteLength":24,"byteOffset":421328},{"buffer":0,"byteLength":252,"byteOffset":421352},{"buffer":0,"byteLength":336,"byteOffset":421604},{"buffer":0,"byteLength":336,"byteOffset":421940},{"buffer":0,"byteLength":336,"byteOffset":422276},{"buffer":0,"byteLength":252,"byteOffset":422612},{"buffer":0,"byteLength":336,"byteOffset":422864},{"buffer":0,"byteLength":24,"byteOffset":423200},{"buffer":0,"byteLength":336,"byteOffset":423224},{"buffer":0,"byteLength":24,"byteOffset":423560},{"buffer":0,"byteLength":24,"byteOffset":423584},{"buffer":0,"byteLength":336,"byteOffset":423608},{"buffer":0,"byteLength":24,"byteOffset":423944},{"buffer":0,"byteLength":252,"byteOffset":423968},{"buffer":0,"byteLength":336,"byteOffset":424220},{"buffer":0,"byteLength":336,"byteOffset":424556},{"buffer":0,"byteLength":24,"byteOffset":424892},{"buffer":0,"byteLength":24,"byteOffset":424916},{"buffer":0,"byteLength":336,"byteOffset":424940},{"buffer":0,"byteLength":24,"byteOffset":425276},{"buffer":0,"byteLength":24,"byteOffset":425300},{"buffer":0,"byteLength":336,"byteOffset":425324},{"buffer":0,"byteLength":24,"byteOffset":425660},{"buffer":0,"byteLength":24,"byteOffset":425684},{"buffer":0,"byteLength":32,"byteOffset":425708},{"buffer":0,"byteLength":24,"byteOffset":425740},{"buffer":0,"byteLength":336,"byteOffset":425764},{"buffer":0,"byteLength":24,"byteOffset":426100},{"buffer":0,"byteLength":252,"byteOffset":426124},{"buffer":0,"byteLength":336,"byteOffset":426376},{"buffer":0,"byteLength":32,"byteOffset":426712},{"buffer":0,"byteLength":336,"byteOffset":426744},{"buffer":0,"byteLength":24,"byteOffset":427080},{"buffer":0,"byteLength":252,"byteOffset":427104},{"buffer":0,"byteLength":336,"byteOffset":427356},{"buffer":0,"byteLength":336,"byteOffset":427692},{"buffer":0,"byteLength":24,"byteOffset":428028},{"buffer":0,"byteLength":252,"byteOffset":428052},{"buffer":0,"byteLength":336,"byteOffset":428304},{"buffer":0,"byteLength":252,"byteOffset":428640},{"buffer":0,"byteLength":336,"byteOffset":428892},{"buffer":0,"byteLength":252,"byteOffset":429228},{"buffer":0,"byteLength":336,"byteOffset":429480},{"buffer":0,"byteLength":8,"byteOffset":429816},{"buffer":0,"byteLength":52,"byteOffset":429824},{"buffer":0,"byteLength":156,"byteOffset":429876},{"buffer":0,"byteLength":208,"byteOffset":430032},{"buffer":0,"byteLength":156,"byteOffset":430240},{"buffer":0,"byteLength":32,"byteOffset":430396},{"buffer":0,"byteLength":156,"byteOffset":430428},{"buffer":0,"byteLength":208,"byteOffset":430584},{"buffer":0,"byteLength":24,"byteOffset":430792},{"buffer":0,"byteLength":208,"byteOffset":430816},{"buffer":0,"byteLength":24,"byteOffset":431024},{"buffer":0,"byteLength":24,"byteOffset":431048},{"buffer":0,"byteLength":208,"byteOffset":431072},{"buffer":0,"byteLength":24,"byteOffset":431280},{"buffer":0,"byteLength":156,"byteOffset":431304},{"buffer":0,"byteLength":208,"byteOffset":431460},{"buffer":0,"byteLength":24,"byteOffset":431668},{"buffer":0,"byteLength":24,"byteOffset":431692},{"buffer":0,"byteLength":208,"byteOffset":431716},{"buffer":0,"byteLength":24,"byteOffset":431924},{"buffer":0,"byteLength":24,"byteOffset":431948},{"buffer":0,"byteLength":208,"byteOffset":431972},{"buffer":0,"byteLength":24,"byteOffset":432180},{"buffer":0,"byteLength":156,"byteOffset":432204},{"buffer":0,"byteLength":208,"byteOffset":432360},{"buffer":0,"byteLength":24,"byteOffset":432568},{"buffer":0,"byteLength":24,"byteOffset":432592},{"buffer":0,"byteLength":208,"byteOffset":432616},{"buffer":0,"byteLength":24,"byteOffset":432824},{"buffer":0,"byteLength":24,"byteOffset":432848},{"buffer":0,"byteLength":208,"byteOffset":432872},{"buffer":0,"byteLength":24,"byteOffset":433080},{"buffer":0,"byteLength":156,"byteOffset":433104},{"buffer":0,"byteLength":208,"byteOffset":433260},{"buffer":0,"byteLength":24,"byteOffset":433468},{"buffer":0,"byteLength":24,"byteOffset":433492},{"buffer":0,"byteLength":208,"byteOffset":433516},{"buffer":0,"byteLength":24,"byteOffset":433724},{"buffer":0,"byteLength":24,"byteOffset":433748},{"buffer":0,"byteLength":208,"byteOffset":433772},{"buffer":0,"byteLength":24,"byteOffset":433980},{"buffer":0,"byteLength":156,"byteOffset":434004},{"buffer":0,"byteLength":208,"byteOffset":434160},{"buffer":0,"byteLength":24,"byteOffset":434368},{"buffer":0,"byteLength":32,"byteOffset":434392},{"buffer":0,"byteLength":24,"byteOffset":434424},{"buffer":0,"byteLength":24,"byteOffset":434448},{"buffer":0,"byteLength":208,"byteOffset":434472},{"buffer":0,"byteLength":24,"byteOffset":434680},{"buffer":0,"byteLength":24,"byteOffset":434704},{"buffer":0,"byteLength":208,"byteOffset":434728},{"buffer":0,"byteLength":24,"byteOffset":434936},{"buffer":0,"byteLength":24,"byteOffset":434960},{"buffer":0,"byteLength":208,"byteOffset":434984},{"buffer":0,"byteLength":24,"byteOffset":435192},{"buffer":0,"byteLength":24,"byteOffset":435216},{"buffer":0,"byteLength":208,"byteOffset":435240},{"buffer":0,"byteLength":24,"byteOffset":435448},{"buffer":0,"byteLength":24,"byteOffset":435472},{"buffer":0,"byteLength":208,"byteOffset":435496},{"buffer":0,"byteLength":24,"byteOffset":435704},{"buffer":0,"byteLength":24,"byteOffset":435728},{"buffer":0,"byteLength":208,"byteOffset":435752},{"buffer":0,"byteLength":24,"byteOffset":435960},{"buffer":0,"byteLength":156,"byteOffset":435984},{"buffer":0,"byteLength":24,"byteOffset":436140},{"buffer":0,"byteLength":24,"byteOffset":436164},{"buffer":0,"byteLength":32,"byteOffset":436188},{"buffer":0,"byteLength":24,"byteOffset":436220},{"buffer":0,"byteLength":32,"byteOffset":436244},{"buffer":0,"byteLength":24,"byteOffset":436276},{"buffer":0,"byteLength":24,"byteOffset":436300},{"buffer":0,"byteLength":24,"byteOffset":436324},{"buffer":0,"byteLength":32,"byteOffset":436348},{"buffer":0,"byteLength":24,"byteOffset":436380},{"buffer":0,"byteLength":156,"byteOffset":436404},{"buffer":0,"byteLength":208,"byteOffset":436560},{"buffer":0,"byteLength":156,"byteOffset":436768},{"buffer":0,"byteLength":208,"byteOffset":436924},{"buffer":0,"byteLength":156,"byteOffset":437132},{"buffer":0,"byteLength":208,"byteOffset":437288},{"buffer":0,"byteLength":8,"byteOffset":437496},{"buffer":0,"byteLength":132,"byteOffset":437504},{"buffer":0,"byteLength":396,"byteOffset":437636},{"buffer":0,"byteLength":528,"byteOffset":438032},{"buffer":0,"byteLength":396,"byteOffset":438560},{"buffer":0,"byteLength":396,"byteOffset":438956},{"buffer":0,"byteLength":528,"byteOffset":439352},{"buffer":0,"byteLength":24,"byteOffset":439880},{"buffer":0,"byteLength":528,"byteOffset":439904},{"buffer":0,"byteLength":24,"byteOffset":440432},{"buffer":0,"byteLength":24,"byteOffset":440456},{"buffer":0,"byteLength":528,"byteOffset":440480},{"buffer":0,"byteLength":24,"byteOffset":441008},{"buffer":0,"byteLength":396,"byteOffset":441032},{"buffer":0,"byteLength":528,"byteOffset":441428},{"buffer":0,"byteLength":24,"byteOffset":441956},{"buffer":0,"byteLength":24,"byteOffset":441980},{"buffer":0,"byteLength":528,"byteOffset":442004},{"buffer":0,"byteLength":24,"byteOffset":442532},{"buffer":0,"byteLength":24,"byteOffset":442556},{"buffer":0,"byteLength":528,"byteOffset":442580},{"buffer":0,"byteLength":24,"byteOffset":443108},{"buffer":0,"byteLength":396,"byteOffset":443132},{"buffer":0,"byteLength":528,"byteOffset":443528},{"buffer":0,"byteLength":24,"byteOffset":444056},{"buffer":0,"byteLength":528,"byteOffset":444080},{"buffer":0,"byteLength":24,"byteOffset":444608},{"buffer":0,"byteLength":24,"byteOffset":444632},{"buffer":0,"byteLength":528,"byteOffset":444656},{"buffer":0,"byteLength":24,"byteOffset":445184},{"buffer":0,"byteLength":396,"byteOffset":445208},{"buffer":0,"byteLength":528,"byteOffset":445604},{"buffer":0,"byteLength":24,"byteOffset":446132},{"buffer":0,"byteLength":528,"byteOffset":446156},{"buffer":0,"byteLength":24,"byteOffset":446684},{"buffer":0,"byteLength":24,"byteOffset":446708},{"buffer":0,"byteLength":528,"byteOffset":446732},{"buffer":0,"byteLength":24,"byteOffset":447260},{"buffer":0,"byteLength":396,"byteOffset":447284},{"buffer":0,"byteLength":24,"byteOffset":447680},{"buffer":0,"byteLength":24,"byteOffset":447704},{"buffer":0,"byteLength":528,"byteOffset":447728},{"buffer":0,"byteLength":24,"byteOffset":448256},{"buffer":0,"byteLength":528,"byteOffset":448280},{"buffer":0,"byteLength":24,"byteOffset":448808},{"buffer":0,"byteLength":528,"byteOffset":448832},{"buffer":0,"byteLength":24,"byteOffset":449360},{"buffer":0,"byteLength":528,"byteOffset":449384},{"buffer":0,"byteLength":24,"byteOffset":449912},{"buffer":0,"byteLength":528,"byteOffset":449936},{"buffer":0,"byteLength":24,"byteOffset":450464},{"buffer":0,"byteLength":24,"byteOffset":450488},{"buffer":0,"byteLength":528,"byteOffset":450512},{"buffer":0,"byteLength":24,"byteOffset":451040},{"buffer":0,"byteLength":24,"byteOffset":451064},{"buffer":0,"byteLength":528,"byteOffset":451088},{"buffer":0,"byteLength":24,"byteOffset":451616},{"buffer":0,"byteLength":528,"byteOffset":451640},{"buffer":0,"byteLength":24,"byteOffset":452168},{"buffer":0,"byteLength":528,"byteOffset":452192},{"buffer":0,"byteLength":24,"byteOffset":452720},{"buffer":0,"byteLength":24,"byteOffset":452744},{"buffer":0,"byteLength":24,"byteOffset":452768},{"buffer":0,"byteLength":396,"byteOffset":452792},{"buffer":0,"byteLength":528,"byteOffset":453188},{"buffer":0,"byteLength":396,"byteOffset":453716},{"buffer":0,"byteLength":528,"byteOffset":454112},{"buffer":0,"byteLength":396,"byteOffset":454640},{"buffer":0,"byteLength":528,"byteOffset":455036},{"buffer":1,"byteLength":16},{"buffer":2,"byteLength":64},{"buffer":3,"byteLength":168},{"buffer":4,"byteLength":504},{"buffer":5,"byteLength":268},{"buffer":6,"byteLength":804},{"buffer":7,"byteLength":576},{"buffer":8,"byteLength":1728},{"buffer":9,"byteLength":328},{"buffer":10,"byteLength":984},{"buffer":11,"byteLength":84},{"buffer":12,"byteLength":252}],"buffers":[{"byteLength":455564,"uri":"data:application/octet-stream;base64,"},{"byteLength":16,"uri":"data:application/octet-stream;base64,"},{"byteLength":64,"uri":"data:application/octet-stream;base64,"},{"byteLength":168,"uri":"data:application/octet-stream;base64,"},{"byteLength":504,"uri":"data:application/octet-stream;base64,"},{"byteLength":268,"uri":"data:application/octet-stream;base64,"},{"byteLength":804,"uri":"data:application/octet-stream;base64,"},{"byteLength":576,"uri":"data:application/octet-stream;base64,"},{"byteLength":1728,"uri":"data:application/octet-stream;base64,"},{"byteLength":328,"uri":"data:application/octet-stream;base64,"},{"byteLength":984,"uri":"data:application/octet-stream;base64,"},{"byteLength":84,"uri":"data:application/octet-stream;base64,"},{"byteLength":252,"uri":"data:application/octet-stream;base64,"}]}