{"asset":{"generator":"Khronos glTF Blender I/O v4.5.51","version":"2.0"},"scene":0,"scenes":[{"name":"Scene","nodes":[30]}],"nodes":[{"name":"Head","rotation":[-0.39687255024909973,2.1507965186629008e-07,-1.9184916766334936e-07,0.917873740196228],"scale":[1,0.9999999403953552,0.9999999403953552],"translation":[1.5117507246031892e-10,0.32839804887771606,1.6861449125826766e-07]},{"name":"Wing.R","rotation":[0.7306007146835327,0.39376431703567505,0.5444785356521606,0.12130744010210037],"scale":[1,1,0.9999999403953552],"translation":[0.3059847354888916,-0.36302581429481506,0.1780398041009903]},{"name":"Wing.L","rotation":[0.5511016249656677,0.13930687308311462,0.7308531999588013,0.3778020143508911],"scale":[1.0000001192092896,1.0000001192092896,1.0000004768371582],"translation":[-0.3407936692237854,-0.36302581429481506,0.17803962528705597]},{"name":"Sting","rotation":[3.868825970698708e-08,0.981049656867981,-0.1937566101551056,1.910174063368686e-07],"scale":[1,0.9999997019767761,0.9999998807907104],"translation":[3.2003910632738553e-09,0.7660291194915771,9.319356841785975e-09]},{"children":[3],"name":"Abdomen3","rotation":[-0.44972822070121765,1.4641928203218413e-07,-6.460397550256403e-09,0.8931654691696167],"scale":[1,0.9999999403953552,1],"translation":[7.85098563937936e-09,0.7284961938858032,-1.065020960311358e-08]},{"children":[4],"name":"Abdomen2","rotation":[-0.19423019886016846,-1.661938568986443e-07,-2.173498181434752e-08,0.980955958366394],"translation":[3.971218021092682e-09,0.6029919981956482,-1.448422466410193e-07]},{"children":[5],"name":"Abdomen","rotation":[-2.0081252216641587e-07,-0.24215754866600037,0.9702369570732117,1.828234275080831e-08],"scale":[1,0.999999463558197,0.9999986886978149],"translation":[-0.013427126221358776,-0.6699534058570862,-0.3537084460258484]},{"children":[0,1,2,6],"name":"Neck","rotation":[-0.07652672380208969,-0.7029532194137573,-0.07652665674686432,0.7029538154602051],"scale":[0.9999999403953552,0.9999997615814209,1],"translation":[-1.944430039202416e-07,0.4404507279396057,-5.700272254216543e-09]},{"name":"BottomLeg3.R","rotation":[-0.12619994580745697,0.2860485911369324,-0.4532030522823334,0.8347795009613037],"scale":[1,1,1.0000001192092896],"translation":[2.086162567138672e-07,0.37668025493621826,-1.341104507446289e-07]},{"children":[8],"name":"BottomLeg2.R","rotation":[0.2215849757194519,0.6523855328559875,0.2109004259109497,0.6934077739715576],"scale":[1.0000001192092896,1.0000001192092896,1],"translation":[-1.4528632164001465e-07,0.2683559060096741,1.862645149230957e-09]},{"children":[9],"name":"BottomLeg1.R","rotation":[-0.5257673859596252,-0.5314659476280212,-0.6494808793067932,0.13887836039066315],"scale":[1.0000001192092896,1,1],"translation":[0.30009087920188904,-0.1261976659297943,0.145846888422966]},{"name":"MidLeg3.R","rotation":[-0.20780181884765625,0.4370761513710022,-0.44161590933799744,0.7554854154586792],"scale":[1.0000001192092896,0.9999999403953552,0.9999999403953552],"translation":[1.043081283569336e-07,0.26270774006843567,-7.450580596923828e-08]},{"children":[11],"name":"MidLeg2.R","rotation":[0.46694663166999817,0.4378219544887543,-0.06387685984373093,0.765632152557373],"scale":[1,1.0000001192092896,1.0000001192092896],"translation":[2.9802322387695312e-08,0.2285044938325882,0]},{"children":[12],"name":"MidLeg1.R","rotation":[-0.6550249457359314,-0.5645619630813599,-0.39100903272628784,0.3151572346687317],"scale":[0.9999999403953552,0.9999998807907104,0.9999999403953552],"translation":[0.35289889574050903,0.006324264220893383,0.32697829604148865]},{"name":"TopLeg3.R","rotation":[-0.43406033515930176,0.5015537142753601,-0.3400813043117523,0.6666185855865479],"scale":[1.0000001192092896,1.000000238418579,0.9999999403953552],"translation":[-2.60770320892334e-08,0.24798740446567535,-1.1175870895385742e-08]},{"children":[14],"name":"TopLeg2.R","rotation":[0.47119593620300293,0.42160290479660034,-0.22397269308567047,0.7416614294052124],"scale":[1.0000001192092896,1,1],"translation":[-1.6391277313232422e-07,0.2028246521949768,-1.1175870895385742e-08]},{"children":[15],"name":"TopLeg1.R","rotation":[-0.7050502300262451,-0.6651566028594971,-0.2270272821187973,0.09449639171361923],"scale":[0.9999999403953552,0.9999995231628418,1],"translation":[0.2721004784107208,0.2417888045310974,0.3478718400001526]},{"name":"BottomLeg3.L","rotation":[0.46990346908569336,-0.6487604379653931,0.048033714294433594,0.5966518521308899],"scale":[0.9999998807907104,0.9999998807907104,0.9999999403953552],"translation":[1.4901161193847656e-08,0.3979230523109436,5.960464477539063e-08]},{"children":[17],"name":"BottomLeg2.L","rotation":[-0.23544660210609436,0.9567878842353821,0.17058251798152924,0.004852024372667074],"scale":[0.9999998807907104,0.9999999403953552,1],"translation":[-7.450580596923828e-08,0.1871025711297989,-8.940696716308594e-08]},{"children":[18],"name":"BottomLeg1.L","rotation":[-0.44601503014564514,-0.15492624044418335,-0.7068796753883362,0.5266779065132141],"scale":[1,0.9999999403953552,1],"translation":[0.29496169090270996,-0.15403002500534058,-0.16052232682704926]},{"name":"MidLeg3.L","rotation":[0.369884192943573,-0.9195736646652222,0.11173344403505325,0.07131320983171463],"scale":[1,0.9999997615814209,1.0000001192092896],"translation":[-1.1548399925231934e-07,0.2963508367538452,0]},{"children":[20],"name":"MidLeg2.L","rotation":[0.3910423815250397,-0.8031767010688782,-0.11126631498336792,0.435445636510849],"scale":[1,0.9999999403953552,1],"translation":[-1.043081283569336e-07,0.3035048842430115,5.960464477539063e-08]},{"children":[21],"name":"MidLeg1.L","rotation":[-0.4297865927219391,-0.2425186038017273,-0.6698275804519653,0.5547965168952942],"scale":[1,0.9999998807907104,0.9999999403953552],"translation":[0.228062242269516,0.05204113945364952,-0.1992052048444748]},{"name":"TopLeg3.L","rotation":[-0.5178918242454529,0.5280395746231079,-0.026476504281163216,0.6725037097930908],"scale":[1.0000001192092896,1.0000001192092896,1.0000001192092896],"translation":[8.940696716308594e-08,0.19655421376228333,1.4901161193847656e-08]},{"children":[23],"name":"TopLeg2.L","rotation":[-0.008776353672146797,0.3193621337413788,-0.33945542573928833,0.8847038745880127],"scale":[0.9999999403953552,1,0.9999999403953552],"translation":[3.0174851417541504e-07,0.2922865152359009,-5.960464477539063e-08]},{"children":[24],"name":"TopLeg1.L","rotation":[-0.5800530910491943,-0.7750520706176758,0.15553748607635498,0.19657279551029205],"scale":[1,1.0000001192092896,1],"translation":[0.22001585364341736,0.18581730127334595,-0.16514675319194794]},{"children":[7,10,13,16,19,22,25],"name":"Thorax","rotation":[-0.36976879835128784,0.6027197241783142,-0.3697684407234192,0.6027198433876038],"scale":[1,0.9999998807907104,0.9999999403953552],"translation":[-0.033058397471904755,2.155564308166504,-0.12473104894161224]},{"children":[26],"name":"Body","rotation":[0,-1.1920930376163597e-07,0,1],"translation":[-1.7430513921112833e-08,0.48238256573677063,-0.20341432094573975]},{"children":[27],"name":"Root","rotation":[0,-0.7071068286895752,0,0.7071067094802856],"scale":[1,0.9999999403953552,1]},{"mesh":0,"name":"Wasp","skin":0},{"children":[29,28],"name":"Armature"}],"animations":[{"channels":[{"sampler":0,"target":{"node":28,"path":"translation"}},{"sampler":1,"target":{"node":28,"path":"rotation"}},{"sampler":2,"target":{"node":28,"path":"scale"}},{"sampler":3,"target":{"node":27,"path":"translation"}},{"sampler":4,"target":{"node":27,"path":"rotation"}},{"sampler":5,"target":{"node":27,"path":"scale"}},{"sampler":6,"target":{"node":26,"path":"translation"}},{"sampler":7,"target":{"node":26,"path":"rotation"}},{"sampler":8,"target":{"node":26,"path":"scale"}},{"sampler":9,"target":{"node":7,"path":"translation"}},{"sampler":10,"target":{"node":7,"path":"rotation"}},{"sampler":11,"target":{"node":7,"path":"scale"}},{"sampler":12,"target":{"node":0,"path":"translation"}},{"sampler":13,"target":{"node":0,"path":"rotation"}},{"sampler":14,"target":{"node":0,"path":"scale"}},{"sampler":15,"target":{"node":1,"path":"translation"}},{"sampler":16,"target":{"node":1,"path":"rotation"}},{"sampler":17,"target":{"node":1,"path":"scale"}},{"sampler":18,"target":{"node":2,"path":"translation"}},{"sampler":19,"target":{"node":2,"path":"rotation"}},{"sampler":20,"target":{"node":2,"path":"scale"}},{"sampler":21,"target":{"node":6,"path":"translation"}},{"sampler":22,"target":{"node":6,"path":"rotation"}},{"sampler":23,"target":{"node":6,"path":"scale"}},{"sampler":24,"target":{"node":5,"path":"translation"}},{"sampler":25,"target":{"node":5,"path":"rotation"}},{"sampler":26,"target":{"node":5,"path":"scale"}},{"sampler":27,"target":{"node":4,"path":"translation"}},{"sampler":28,"target":{"node":4,"path":"rotation"}},{"sampler":29,"target":{"node":4,"path":"scale"}},{"sampler":30,"target":{"node":3,"path":"translation"}},{"sampler":31,"target":{"node":3,"path":"rotation"}},{"sampler":32,"target":{"node":3,"path":"scale"}},{"sampler":33,"target":{"node":10,"path":"translation"}},{"sampler":34,"target":{"node":10,"path":"rotation"}},{"sampler":35,"target":{"node":10,"path":"scale"}},{"sampler":36,"target":{"node":9,"path":"translation"}},{"sampler":37,"target":{"node":9,"path":"rotation"}},{"sampler":38,"target":{"node":9,"path":"scale"}},{"sampler":39,"target":{"node":8,"path":"translation"}},{"sampler":40,"target":{"node":8,"path":"rotation"}},{"sampler":41,"target":{"node":8,"path":"scale"}},{"sampler":42,"target":{"node":13,"path":"translation"}},{"sampler":43,"target":{"node":13,"path":"rotation"}},{"sampler":44,"target":{"node":13,"path":"scale"}},{"sampler":45,"target":{"node":12,"path":"translation"}},{"sampler":46,"target":{"node":12,"path":"rotation"}},{"sampler":47,"target":{"node":12,"path":"scale"}},{"sampler":48,"target":{"node":11,"path":"translation"}},{"sampler":49,"target":{"node":11,"path":"rotation"}},{"sampler":50,"target":{"node":11,"path":"scale"}},{"sampler":51,"target":{"node":16,"path":"translation"}},{"sampler":52,"target":{"node":16,"path":"rotation"}},{"sampler":53,"target":{"node":16,"path":"scale"}},{"sampler":54,"target":{"node":15,"path":"translation"}},{"sampler":55,"target":{"node":15,"path":"rotation"}},{"sampler":56,"target":{"node":15,"path":"scale"}},{"sampler":57,"target":{"node":14,"path":"translation"}},{"sampler":58,"target":{"node":14,"path":"rotation"}},{"sampler":59,"target":{"node":14,"path":"scale"}},{"sampler":60,"target":{"node":19,"path":"translation"}},{"sampler":61,"target":{"node":19,"path":"rotation"}},{"sampler":62,"target":{"node":19,"path":"scale"}},{"sampler":63,"target":{"node":18,"path":"translation"}},{"sampler":64,"target":{"node":18,"path":"rotation"}},{"sampler":65,"target":{"node":18,"path":"scale"}},{"sampler":66,"target":{"node":17,"path":"translation"}},{"sampler":67,"target":{"node":17,"path":"rotation"}},{"sampler":68,"target":{"node":17,"path":"scale"}},{"sampler":69,"target":{"node":22,"path":"translation"}},{"sampler":70,"target":{"node":22,"path":"rotation"}},{"sampler":71,"target":{"node":22,"path":"scale"}},{"sampler":72,"target":{"node":21,"path":"translation"}},{"sampler":73,"target":{"node":21,"path":"rotation"}},{"sampler":74,"target":{"node":21,"path":"scale"}},{"sampler":75,"target":{"node":20,"path":"translation"}},{"sampler":76,"target":{"node":20,"path":"rotation"}},{"sampler":77,"target":{"node":20,"path":"scale"}},{"sampler":78,"target":{"node":25,"path":"translation"}},{"sampler":79,"target":{"node":25,"path":"rotation"}},{"sampler":80,"target":{"node":25,"path":"scale"}},{"sampler":81,"target":{"node":24,"path":"translation"}},{"sampler":82,"target":{"node":24,"path":"rotation"}},{"sampler":83,"target":{"node":24,"path":"scale"}},{"sampler":84,"target":{"node":23,"path":"translation"}},{"sampler":85,"target":{"node":23,"path":"rotation"}},{"sampler":86,"target":{"node":23,"path":"scale"}}],"name":"Wasp_Attack","samplers":[{"input":21,"interpolation":"STEP","output":22},{"input":21,"interpolation":"STEP","output":23},{"input":21,"interpolation":"STEP","output":24},{"input":25,"interpolation":"LINEAR","output":26},{"input":25,"interpolation":"LINEAR","output":27},{"input":21,"interpolation":"STEP","output":28},{"input":21,"interpolation":"STEP","output":29},{"input":25,"interpolation":"LINEAR","output":30},{"input":21,"interpolation":"STEP","output":31},{"input":21,"interpolation":"STEP","output":32},{"input":25,"interpolation":"LINEAR","output":33},{"input":21,"interpolation":"STEP","output":34},{"input":21,"interpolation":"STEP","output":35},{"input":25,"interpolation":"LINEAR","output":36},{"input":21,"interpolation":"STEP","output":37},{"input":21,"interpolation":"STEP","output":38},{"input":25,"interpolation":"LINEAR","output":39},{"input":21,"interpolation":"STEP","output":40},{"input":21,"interpolation":"STEP","output":41},{"input":25,"interpolation":"LINEAR","output":42},{"input":21,"interpolation":"STEP","output":43},{"input":21,"interpolation":"STEP","output":44},{"input":21,"interpolation":"STEP","output":45},{"input":21,"interpolation":"STEP","output":46},{"input":21,"interpolation":"STEP","output":47},{"input":25,"interpolation":"LINEAR","output":48},{"input":21,"interpolation":"STEP","output":49},{"input":21,"interpolation":"STEP","output":50},{"input":25,"interpolation":"LINEAR","output":51},{"input":21,"interpolation":"STEP","output":52},{"input":21,"interpolation":"STEP","output":53},{"input":25,"interpolation":"LINEAR","output":54},{"input":21,"interpolation":"STEP","output":55},{"input":21,"interpolation":"STEP","output":56},{"input":21,"interpolation":"STEP","output":57},{"input":21,"interpolation":"STEP","output":58},{"input":21,"interpolation":"STEP","output":59},{"input":21,"interpolation":"STEP","output":60},{"input":21,"interpolation":"STEP","output":61},{"input":21,"interpolation":"STEP","output":62},{"input":25,"interpolation":"LINEAR","output":63},{"input":21,"interpolation":"STEP","output":64},{"input":21,"interpolation":"STEP","output":65},{"input":21,"interpolation":"STEP","output":66},{"input":21,"interpolation":"STEP","output":67},{"input":21,"interpolation":"STEP","output":68},{"input":21,"interpolation":"STEP","output":69},{"input":21,"interpolation":"STEP","output":70},{"input":21,"interpolation":"STEP","output":71},{"input":25,"interpolation":"LINEAR","output":72},{"input":21,"interpolation":"STEP","output":73},{"input":21,"interpolation":"STEP","output":74},{"input":21,"interpolation":"STEP","output":75},{"input":21,"interpolation":"STEP","output":76},{"input":21,"interpolation":"STEP","output":77},{"input":21,"interpolation":"STEP","output":78},{"input":21,"interpolation":"STEP","output":79},{"input":21,"interpolation":"STEP","output":80},{"input":25,"interpolation":"LINEAR","output":81},{"input":21,"interpolation":"STEP","output":82},{"input":21,"interpolation":"STEP","output":83},{"input":21,"interpolation":"STEP","output":84},{"input":21,"interpolation":"STEP","output":85},{"input":21,"interpolation":"STEP","output":86},{"input":21,"interpolation":"STEP","output":87},{"input":21,"interpolation":"STEP","output":88},{"input":21,"interpolation":"STEP","output":89},{"input":25,"interpolation":"LINEAR","output":90},{"input":21,"interpolation":"STEP","output":91},{"input":21,"interpolation":"STEP","output":92},{"input":21,"interpolation":"STEP","output":93},{"input":21,"interpolation":"STEP","output":94},{"input":21,"interpolation":"STEP","output":95},{"input":21,"interpolation":"STEP","output":96},{"input":21,"interpolation":"STEP","output":97},{"input":21,"interpolation":"STEP","output":98},{"input":25,"interpolation":"LINEAR","output":99},{"input":21,"interpolation":"STEP","output":76},{"input":21,"interpolation":"STEP","output":100},{"input":21,"interpolation":"STEP","output":101},{"input":21,"interpolation":"STEP","output":102},{"input":21,"interpolation":"STEP","output":103},{"input":21,"interpolation":"STEP","output":104},{"input":21,"interpolation":"STEP","output":49},{"input":21,"interpolation":"STEP","output":105},{"input":25,"interpolation":"LINEAR","output":106},{"input":21,"interpolation":"STEP","output":107}]},{"channels":[{"sampler":0,"target":{"node":28,"path":"translation"}},{"sampler":1,"target":{"node":28,"path":"rotation"}},{"sampler":2,"target":{"node":28,"path":"scale"}},{"sampler":3,"target":{"node":27,"path":"translation"}},{"sampler":4,"target":{"node":27,"path":"rotation"}},{"sampler":5,"target":{"node":27,"path":"scale"}},{"sampler":6,"target":{"node":26,"path":"translation"}},{"sampler":7,"target":{"node":26,"path":"rotation"}},{"sampler":8,"target":{"node":26,"path":"scale"}},{"sampler":9,"target":{"node":7,"path":"translation"}},{"sampler":10,"target":{"node":7,"path":"rotation"}},{"sampler":11,"target":{"node":7,"path":"scale"}},{"sampler":12,"target":{"node":0,"path":"translation"}},{"sampler":13,"target":{"node":0,"path":"rotation"}},{"sampler":14,"target":{"node":0,"path":"scale"}},{"sampler":15,"target":{"node":1,"path":"translation"}},{"sampler":16,"target":{"node":1,"path":"rotation"}},{"sampler":17,"target":{"node":1,"path":"scale"}},{"sampler":18,"target":{"node":2,"path":"translation"}},{"sampler":19,"target":{"node":2,"path":"rotation"}},{"sampler":20,"target":{"node":2,"path":"scale"}},{"sampler":21,"target":{"node":6,"path":"translation"}},{"sampler":22,"target":{"node":6,"path":"rotation"}},{"sampler":23,"target":{"node":6,"path":"scale"}},{"sampler":24,"target":{"node":5,"path":"translation"}},{"sampler":25,"target":{"node":5,"path":"rotation"}},{"sampler":26,"target":{"node":5,"path":"scale"}},{"sampler":27,"target":{"node":4,"path":"translation"}},{"sampler":28,"target":{"node":4,"path":"rotation"}},{"sampler":29,"target":{"node":4,"path":"scale"}},{"sampler":30,"target":{"node":3,"path":"translation"}},{"sampler":31,"target":{"node":3,"path":"rotation"}},{"sampler":32,"target":{"node":3,"path":"scale"}},{"sampler":33,"target":{"node":10,"path":"translation"}},{"sampler":34,"target":{"node":10,"path":"rotation"}},{"sampler":35,"target":{"node":10,"path":"scale"}},{"sampler":36,"target":{"node":9,"path":"translation"}},{"sampler":37,"target":{"node":9,"path":"rotation"}},{"sampler":38,"target":{"node":9,"path":"scale"}},{"sampler":39,"target":{"node":8,"path":"translation"}},{"sampler":40,"target":{"node":8,"path":"rotation"}},{"sampler":41,"target":{"node":8,"path":"scale"}},{"sampler":42,"target":{"node":13,"path":"translation"}},{"sampler":43,"target":{"node":13,"path":"rotation"}},{"sampler":44,"target":{"node":13,"path":"scale"}},{"sampler":45,"target":{"node":12,"path":"translation"}},{"sampler":46,"target":{"node":12,"path":"rotation"}},{"sampler":47,"target":{"node":12,"path":"scale"}},{"sampler":48,"target":{"node":11,"path":"translation"}},{"sampler":49,"target":{"node":11,"path":"rotation"}},{"sampler":50,"target":{"node":11,"path":"scale"}},{"sampler":51,"target":{"node":16,"path":"translation"}},{"sampler":52,"target":{"node":16,"path":"rotation"}},{"sampler":53,"target":{"node":16,"path":"scale"}},{"sampler":54,"target":{"node":15,"path":"translation"}},{"sampler":55,"target":{"node":15,"path":"rotation"}},{"sampler":56,"target":{"node":15,"path":"scale"}},{"sampler":57,"target":{"node":14,"path":"translation"}},{"sampler":58,"target":{"node":14,"path":"rotation"}},{"sampler":59,"target":{"node":14,"path":"scale"}},{"sampler":60,"target":{"node":19,"path":"translation"}},{"sampler":61,"target":{"node":19,"path":"rotation"}},{"sampler":62,"target":{"node":19,"path":"scale"}},{"sampler":63,"target":{"node":18,"path":"translation"}},{"sampler":64,"target":{"node":18,"path":"rotation"}},{"sampler":65,"target":{"node":18,"path":"scale"}},{"sampler":66,"target":{"node":17,"path":"translation"}},{"sampler":67,"target":{"node":17,"path":"rotation"}},{"sampler":68,"target":{"node":17,"path":"scale"}},{"sampler":69,"target":{"node":22,"path":"translation"}},{"sampler":70,"target":{"node":22,"path":"rotation"}},{"sampler":71,"target":{"node":22,"path":"scale"}},{"sampler":72,"target":{"node":21,"path":"translation"}},{"sampler":73,"target":{"node":21,"path":"rotation"}},{"sampler":74,"target":{"node":21,"path":"scale"}},{"sampler":75,"target":{"node":20,"path":"translation"}},{"sampler":76,"target":{"node":20,"path":"rotation"}},{"sampler":77,"target":{"node":20,"path":"scale"}},{"sampler":78,"target":{"node":25,"path":"translation"}},{"sampler":79,"target":{"node":25,"path":"rotation"}},{"sampler":80,"target":{"node":25,"path":"scale"}},{"sampler":81,"target":{"node":24,"path":"translation"}},{"sampler":82,"target":{"node":24,"path":"rotation"}},{"sampler":83,"target":{"node":24,"path":"scale"}},{"sampler":84,"target":{"node":23,"path":"translation"}},{"sampler":85,"target":{"node":23,"path":"rotation"}},{"sampler":86,"target":{"node":23,"path":"scale"}}],"name":"Wasp_Death","samplers":[{"input":21,"interpolation":"STEP","output":22},{"input":21,"interpolation":"STEP","output":23},{"input":21,"interpolation":"STEP","output":24},{"input":25,"interpolation":"LINEAR","output":108},{"input":25,"interpolation":"LINEAR","output":109},{"input":21,"interpolation":"STEP","output":28},{"input":25,"interpolation":"LINEAR","output":110},{"input":25,"interpolation":"LINEAR","output":111},{"input":21,"interpolation":"STEP","output":112},{"input":21,"interpolation":"LINEAR","output":113},{"input":21,"interpolation":"LINEAR","output":114},{"input":21,"interpolation":"STEP","output":115},{"input":21,"interpolation":"STEP","output":116},{"input":25,"interpolation":"LINEAR","output":117},{"input":21,"interpolation":"STEP","output":118},{"input":21,"interpolation":"LINEAR","output":119},{"input":25,"interpolation":"LINEAR","output":120},{"input":21,"interpolation":"LINEAR","output":121},{"input":21,"interpolation":"LINEAR","output":122},{"input":25,"interpolation":"LINEAR","output":123},{"input":21,"interpolation":"STEP","output":124},{"input":21,"interpolation":"LINEAR","output":125},{"input":21,"interpolation":"LINEAR","output":126},{"input":21,"interpolation":"LINEAR","output":127},{"input":21,"interpolation":"LINEAR","output":128},{"input":25,"interpolation":"LINEAR","output":129},{"input":21,"interpolation":"STEP","output":52},{"input":21,"interpolation":"LINEAR","output":130},{"input":25,"interpolation":"LINEAR","output":131},{"input":21,"interpolation":"LINEAR","output":132},{"input":21,"interpolation":"LINEAR","output":133},{"input":25,"interpolation":"LINEAR","output":134},{"input":21,"interpolation":"LINEAR","output":135},{"input":21,"interpolation":"STEP","output":136},{"input":21,"interpolation":"STEP","output":57},{"input":21,"interpolation":"STEP","output":137},{"input":21,"interpolation":"LINEAR","output":138},{"input":25,"interpolation":"LINEAR","output":139},{"input":21,"interpolation":"LINEAR","output":140},{"input":21,"interpolation":"LINEAR","output":141},{"input":25,"interpolation":"LINEAR","output":142},{"input":21,"interpolation":"LINEAR","output":143},{"input":21,"interpolation":"LINEAR","output":144},{"input":25,"interpolation":"LINEAR","output":145},{"input":21,"interpolation":"LINEAR","output":146},{"input":21,"interpolation":"LINEAR","output":147},{"input":25,"interpolation":"LINEAR","output":148},{"input":21,"interpolation":"STEP","output":149},{"input":21,"interpolation":"LINEAR","output":150},{"input":25,"interpolation":"LINEAR","output":151},{"input":21,"interpolation":"LINEAR","output":152},{"input":21,"interpolation":"LINEAR","output":153},{"input":25,"interpolation":"LINEAR","output":154},{"input":21,"interpolation":"STEP","output":155},{"input":21,"interpolation":"LINEAR","output":156},{"input":25,"interpolation":"LINEAR","output":157},{"input":21,"interpolation":"STEP","output":158},{"input":21,"interpolation":"LINEAR","output":159},{"input":25,"interpolation":"LINEAR","output":160},{"input":21,"interpolation":"LINEAR","output":161},{"input":21,"interpolation":"LINEAR","output":162},{"input":21,"interpolation":"LINEAR","output":163},{"input":21,"interpolation":"LINEAR","output":164},{"input":21,"interpolation":"LINEAR","output":165},{"input":25,"interpolation":"LINEAR","output":166},{"input":21,"interpolation":"STEP","output":167},{"input":21,"interpolation":"LINEAR","output":168},{"input":25,"interpolation":"LINEAR","output":169},{"input":21,"interpolation":"LINEAR","output":170},{"input":21,"interpolation":"LINEAR","output":171},{"input":21,"interpolation":"LINEAR","output":172},{"input":21,"interpolation":"LINEAR","output":173},{"input":21,"interpolation":"LINEAR","output":174},{"input":25,"interpolation":"LINEAR","output":175},{"input":21,"interpolation":"LINEAR","output":176},{"input":21,"interpolation":"LINEAR","output":177},{"input":25,"interpolation":"LINEAR","output":178},{"input":21,"interpolation":"STEP","output":179},{"input":21,"interpolation":"LINEAR","output":180},{"input":21,"interpolation":"LINEAR","output":181},{"input":21,"interpolation":"STEP","output":182},{"input":21,"interpolation":"LINEAR","output":183},{"input":25,"interpolation":"LINEAR","output":184},{"input":21,"interpolation":"LINEAR","output":185},{"input":21,"interpolation":"LINEAR","output":186},{"input":25,"interpolation":"LINEAR","output":187},{"input":21,"interpolation":"LINEAR","output":188}]},{"channels":[{"sampler":0,"target":{"node":28,"path":"translation"}},{"sampler":1,"target":{"node":28,"path":"rotation"}},{"sampler":2,"target":{"node":28,"path":"scale"}},{"sampler":3,"target":{"node":27,"path":"translation"}},{"sampler":4,"target":{"node":27,"path":"rotation"}},{"sampler":5,"target":{"node":27,"path":"scale"}},{"sampler":6,"target":{"node":26,"path":"translation"}},{"sampler":7,"target":{"node":26,"path":"rotation"}},{"sampler":8,"target":{"node":26,"path":"scale"}},{"sampler":9,"target":{"node":7,"path":"translation"}},{"sampler":10,"target":{"node":7,"path":"rotation"}},{"sampler":11,"target":{"node":7,"path":"scale"}},{"sampler":12,"target":{"node":0,"path":"translation"}},{"sampler":13,"target":{"node":0,"path":"rotation"}},{"sampler":14,"target":{"node":0,"path":"scale"}},{"sampler":15,"target":{"node":1,"path":"translation"}},{"sampler":16,"target":{"node":1,"path":"rotation"}},{"sampler":17,"target":{"node":1,"path":"scale"}},{"sampler":18,"target":{"node":2,"path":"translation"}},{"sampler":19,"target":{"node":2,"path":"rotation"}},{"sampler":20,"target":{"node":2,"path":"scale"}},{"sampler":21,"target":{"node":6,"path":"translation"}},{"sampler":22,"target":{"node":6,"path":"rotation"}},{"sampler":23,"target":{"node":6,"path":"scale"}},{"sampler":24,"target":{"node":5,"path":"translation"}},{"sampler":25,"target":{"node":5,"path":"rotation"}},{"sampler":26,"target":{"node":5,"path":"scale"}},{"sampler":27,"target":{"node":4,"path":"translation"}},{"sampler":28,"target":{"node":4,"path":"rotation"}},{"sampler":29,"target":{"node":4,"path":"scale"}},{"sampler":30,"target":{"node":3,"path":"translation"}},{"sampler":31,"target":{"node":3,"path":"rotation"}},{"sampler":32,"target":{"node":3,"path":"scale"}},{"sampler":33,"target":{"node":10,"path":"translation"}},{"sampler":34,"target":{"node":10,"path":"rotation"}},{"sampler":35,"target":{"node":10,"path":"scale"}},{"sampler":36,"target":{"node":9,"path":"translation"}},{"sampler":37,"target":{"node":9,"path":"rotation"}},{"sampler":38,"target":{"node":9,"path":"scale"}},{"sampler":39,"target":{"node":8,"path":"translation"}},{"sampler":40,"target":{"node":8,"path":"rotation"}},{"sampler":41,"target":{"node":8,"path":"scale"}},{"sampler":42,"target":{"node":13,"path":"translation"}},{"sampler":43,"target":{"node":13,"path":"rotation"}},{"sampler":44,"target":{"node":13,"path":"scale"}},{"sampler":45,"target":{"node":12,"path":"translation"}},{"sampler":46,"target":{"node":12,"path":"rotation"}},{"sampler":47,"target":{"node":12,"path":"scale"}},{"sampler":48,"target":{"node":11,"path":"translation"}},{"sampler":49,"target":{"node":11,"path":"rotation"}},{"sampler":50,"target":{"node":11,"path":"scale"}},{"sampler":51,"target":{"node":16,"path":"translation"}},{"sampler":52,"target":{"node":16,"path":"rotation"}},{"sampler":53,"target":{"node":16,"path":"scale"}},{"sampler":54,"target":{"node":15,"path":"translation"}},{"sampler":55,"target":{"node":15,"path":"rotation"}},{"sampler":56,"target":{"node":15,"path":"scale"}},{"sampler":57,"target":{"node":14,"path":"translation"}},{"sampler":58,"target":{"node":14,"path":"rotation"}},{"sampler":59,"target":{"node":14,"path":"scale"}},{"sampler":60,"target":{"node":19,"path":"translation"}},{"sampler":61,"target":{"node":19,"path":"rotation"}},{"sampler":62,"target":{"node":19,"path":"scale"}},{"sampler":63,"target":{"node":18,"path":"translation"}},{"sampler":64,"target":{"node":18,"path":"rotation"}},{"sampler":65,"target":{"node":18,"path":"scale"}},{"sampler":66,"target":{"node":17,"path":"translation"}},{"sampler":67,"target":{"node":17,"path":"rotation"}},{"sampler":68,"target":{"node":17,"path":"scale"}},{"sampler":69,"target":{"node":22,"path":"translation"}},{"sampler":70,"target":{"node":22,"path":"rotation"}},{"sampler":71,"target":{"node":22,"path":"scale"}},{"sampler":72,"target":{"node":21,"path":"translation"}},{"sampler":73,"target":{"node":21,"path":"rotation"}},{"sampler":74,"target":{"node":21,"path":"scale"}},{"sampler":75,"target":{"node":20,"path":"translation"}},{"sampler":76,"target":{"node":20,"path":"rotation"}},{"sampler":77,"target":{"node":20,"path":"scale"}},{"sampler":78,"target":{"node":25,"path":"translation"}},{"sampler":79,"target":{"node":25,"path":"rotation"}},{"sampler":80,"target":{"node":25,"path":"scale"}},{"sampler":81,"target":{"node":24,"path":"translation"}},{"sampler":82,"target":{"node":24,"path":"rotation"}},{"sampler":83,"target":{"node":24,"path":"scale"}},{"sampler":84,"target":{"node":23,"path":"translation"}},{"sampler":85,"target":{"node":23,"path":"rotation"}},{"sampler":86,"target":{"node":23,"path":"scale"}}],"name":"Wasp_Flying","samplers":[{"input":189,"interpolation":"STEP","output":22},{"input":189,"interpolation":"STEP","output":23},{"input":189,"interpolation":"STEP","output":24},{"input":190,"interpolation":"LINEAR","output":191},{"input":189,"interpolation":"STEP","output":192},{"input":189,"interpolation":"STEP","output":28},{"input":189,"interpolation":"STEP","output":29},{"input":189,"interpolation":"STEP","output":193},{"input":189,"interpolation":"STEP","output":31},{"input":189,"interpolation":"STEP","output":32},{"input":189,"interpolation":"STEP","output":194},{"input":189,"interpolation":"STEP","output":34},{"input":189,"interpolation":"STEP","output":35},{"input":189,"interpolation":"STEP","output":195},{"input":189,"interpolation":"STEP","output":37},{"input":189,"interpolation":"STEP","output":38},{"input":190,"interpolation":"LINEAR","output":196},{"input":189,"interpolation":"STEP","output":40},{"input":189,"interpolation":"STEP","output":41},{"input":190,"interpolation":"LINEAR","output":197},{"input":189,"interpolation":"STEP","output":43},{"input":189,"interpolation":"STEP","output":44},{"input":189,"interpolation":"STEP","output":45},{"input":189,"interpolation":"STEP","output":46},{"input":189,"interpolation":"STEP","output":47},{"input":190,"interpolation":"LINEAR","output":198},{"input":189,"interpolation":"STEP","output":49},{"input":189,"interpolation":"STEP","output":50},{"input":190,"interpolation":"LINEAR","output":199},{"input":189,"interpolation":"STEP","output":52},{"input":189,"interpolation":"STEP","output":53},{"input":190,"interpolation":"LINEAR","output":200},{"input":189,"interpolation":"STEP","output":55},{"input":189,"interpolation":"STEP","output":56},{"input":189,"interpolation":"STEP","output":57},{"input":189,"interpolation":"STEP","output":58},{"input":189,"interpolation":"STEP","output":59},{"input":189,"interpolation":"STEP","output":60},{"input":189,"interpolation":"STEP","output":61},{"input":189,"interpolation":"STEP","output":62},{"input":190,"interpolation":"LINEAR","output":201},{"input":189,"interpolation":"STEP","output":64},{"input":189,"interpolation":"STEP","output":65},{"input":190,"interpolation":"LINEAR","output":202},{"input":189,"interpolation":"STEP","output":67},{"input":189,"interpolation":"STEP","output":68},{"input":189,"interpolation":"STEP","output":69},{"input":189,"interpolation":"STEP","output":70},{"input":189,"interpolation":"STEP","output":71},{"input":190,"interpolation":"LINEAR","output":203},{"input":189,"interpolation":"STEP","output":73},{"input":189,"interpolation":"STEP","output":74},{"input":190,"interpolation":"LINEAR","output":204},{"input":189,"interpolation":"STEP","output":76},{"input":189,"interpolation":"STEP","output":77},{"input":189,"interpolation":"STEP","output":78},{"input":189,"interpolation":"STEP","output":79},{"input":189,"interpolation":"STEP","output":80},{"input":190,"interpolation":"LINEAR","output":205},{"input":189,"interpolation":"STEP","output":82},{"input":189,"interpolation":"STEP","output":83},{"input":189,"interpolation":"STEP","output":84},{"input":189,"interpolation":"STEP","output":85},{"input":189,"interpolation":"STEP","output":86},{"input":190,"interpolation":"LINEAR","output":206},{"input":189,"interpolation":"STEP","output":88},{"input":189,"interpolation":"STEP","output":89},{"input":190,"interpolation":"LINEAR","output":207},{"input":189,"interpolation":"STEP","output":91},{"input":189,"interpolation":"STEP","output":92},{"input":189,"interpolation":"STEP","output":93},{"input":189,"interpolation":"STEP","output":94},{"input":189,"interpolation":"STEP","output":95},{"input":190,"interpolation":"LINEAR","output":208},{"input":189,"interpolation":"STEP","output":97},{"input":189,"interpolation":"STEP","output":98},{"input":190,"interpolation":"LINEAR","output":209},{"input":189,"interpolation":"STEP","output":76},{"input":189,"interpolation":"STEP","output":100},{"input":189,"interpolation":"STEP","output":101},{"input":189,"interpolation":"STEP","output":102},{"input":189,"interpolation":"STEP","output":103},{"input":190,"interpolation":"LINEAR","output":210},{"input":189,"interpolation":"STEP","output":49},{"input":189,"interpolation":"STEP","output":105},{"input":190,"interpolation":"LINEAR","output":211},{"input":189,"interpolation":"STEP","output":107}]}],"materials":[{"doubleSided":true,"name":"Yellow","pbrMetallicRoughness":{"baseColorFactor":[0.8000000715255737,0.5439131259918213,0.1114908829331398,1],"metallicFactor":0,"roughnessFactor":0.8500000238418579}},{"doubleSided":true,"name":"Black","pbrMetallicRoughness":{"baseColorFactor":[0.03740984946489334,0.03740984946489334,0.03740984946489334,1],"metallicFactor":0,"roughnessFactor":0.8500000238418579}},{"doubleSided":true,"name":"LightBlue","pbrMetallicRoughness":{"baseColorFactor":[0.3304373323917389,0.6888181567192078,0.8000000715255737,1],"metallicFactor":0,"roughnessFactor":0.8500000238418579}},{"doubleSided":true,"name":"Orange","pbrMetallicRoughness":{"baseColorFactor":[0.6151725053787231,0.09098414331674576,0.007395881228148937,1],"metallicFactor":0,"roughnessFactor":0.8500000238418579}}],"meshes":[{"name":"Cylinder.001","primitives":[{"attributes":{"POSITION":0,"NORMAL":1,"JOINTS_0":2,"WEIGHTS_0":3},"indices":4,"material":0},{"attributes":{"POSITION":5,"NORMAL":6,"JOINTS_0":7,"WEIGHTS_0":8},"indices":9,"material":1},{"attributes":{"POSITION":10,"NORMAL":11,"JOINTS_0":12,"WEIGHTS_0":13},"indices":14,"material":2},{"attributes":{"POSITION":15,"NORMAL":16,"JOINTS_0":17,"WEIGHTS_0":18},"indices":19,"material":3}]}],"skins":[{"inverseBindMatrices":20,"joints":[28,27,26,7,0,1,2,6,5,4,3,10,9,8,13,12,11,16,15,14,19,18,17,22,21,20,25,24,23],"name":"Armature"}],"accessors":[{"bufferView":0,"componentType":5126,"count":1072,"max":[1.584414005279541,3.2706189155578613,0.46413442492485046],"min":[-0.8448742032051086,0.24412129819393158,-0.46413454413414],"type":"VEC3"},{"bufferView":1,"componentType":5126,"count":1072,"type":"VEC3"},{"bufferView":2,"componentType":5121,"count":1072,"type":"VEC4"},{"bufferView":3,"componentType":5126,"count":1072,"type":"VEC4"},{"bufferView":4,"componentType":5123,"count":1608,"type":"SCALAR"},{"bufferView":5,"componentType":5126,"count":5424,"max":[2.359835386276245,3.559385061264038,0.6669759750366211],"min":[-0.8448742032051086,0.2114536315202713,-0.6669766902923584],"type":"VEC3"},{"bufferView":6,"componentType":5126,"count":5424,"type":"VEC3"},{"bufferView":7,"componentType":5121,"count":5424,"type":"VEC4"},{"bufferView":8,"componentType":5126,"count":5424,"type":"VEC4"},{"bufferView":9,"componentType":5123,"count":8136,"type":"SCALAR"},{"bufferView":10,"componentType":5126,"count":496,"max":[0.41031354665756226,3.9917500019073486,1.1935713291168213],"min":[-1.2603355646133423,2.8703150749206543,-1.193570852279663],"type":"VEC3"},{"bufferView":11,"componentType":5126,"count":496,"type":"VEC3"},{"bufferView":12,"componentType":5121,"count":496,"type":"VEC4"},{"bufferView":13,"componentType":5126,"count":496,"type":"VEC4"},{"bufferView":14,"componentType":5123,"count":744,"type":"SCALAR"},{"bufferView":15,"componentType":5126,"count":480,"max":[1.195792317390442,1.8250840902328491,0.5376972556114197],"min":[0.2702137231826782,0.9799909591674805,-0.5376973748207092],"type":"VEC3"},{"bufferView":16,"componentType":5126,"count":480,"type":"VEC3"},{"bufferView":17,"componentType":5121,"count":480,"type":"VEC4"},{"bufferView":18,"componentType":5126,"count":480,"type":"VEC4"},{"bufferView":19,"componentType":5123,"count":720,"type":"SCALAR"},{"bufferView":20,"componentType":5126,"count":29,"type":"MAT4"},{"bufferView":21,"componentType":5126,"count":2,"max":[0.75],"min":[0],"type":"SCALAR"},{"bufferView":22,"componentType":5126,"count":2,"type":"VEC3"},{"bufferView":23,"componentType":5126,"count":2,"type":"VEC4"},{"bufferView":24,"componentType":5126,"count":2,"type":"VEC3"},{"bufferView":25,"componentType":5126,"count":19,"max":[0.75],"min":[0],"type":"SCALAR"},{"bufferView":26,"componentType":5126,"count":19,"type":"VEC3"},{"bufferView":27,"componentType":5126,"count":19,"type":"VEC4"},{"bufferView":28,"componentType":5126,"count":2,"type":"VEC3"},{"bufferView":29,"componentType":5126,"count":2,"type":"VEC3"},{"bufferView":30,"componentType":5126,"count":19,"type":"VEC4"},{"bufferView":31,"componentType":5126,"count":2,"type":"VEC3"},{"bufferView":32,"componentType":5126,"count":2,"type":"VEC3"},{"bufferView":33,"componentType":5126,"count":19,"type":"VEC4"},{"bufferView":34,"componentType":5126,"count":2,"type":"VEC3"},{"bufferView":35,"componentType":5126,"count":2,"type":"VEC3"},{"bufferView":36,"componentType":5126,"count":19,"type":"VEC4"},{"bufferView":37,"componentType":5126,"count":2,"type":"VEC3"},{"bufferView":38,"componentType":5126,"count":2,"type":"VEC3"},{"bufferView":39,"componentType":5126,"count":19,"type":"VEC4"},{"bufferView":40,"componentType":5126,"count":2,"type":"VEC3"},{"bufferView":41,"componentType":5126,"count":2,"type":"VEC3"},{"bufferView":42,"componentType":5126,"count":19,"type":"VEC4"},{"bufferView":43,"componentType":5126,"count":2,"type":"VEC3"},{"bufferView":44,"componentType":5126,"count":2,"type":"VEC3"},{"bufferView":45,"componentType":5126,"count":2,"type":"VEC4"},{"bufferView":46,"componentType":5126,"count":2,"type":"VEC3"},{"bufferView":47,"componentType":5126,"count":2,"type":"VEC3"},{"bufferView":48,"componentType":5126,"count":19,"type":"VEC4"},{"bufferView":49,"componentType":5126,"count":2,"type":"VEC3"},{"bufferView":50,"componentType":5126,"count":2,"type":"VEC3"},{"bufferView":51,"componentType":5126,"count":19,"type":"VEC4"},{"bufferView":52,"componentType":5126,"count":2,"type":"VEC3"},{"bufferView":53,"componentType":5126,"count":2,"type":"VEC3"},{"bufferView":54,"componentType":5126,"count":19,"type":"VEC4"},{"bufferView":55,"componentType":5126,"count":2,"type":"VEC3"},{"bufferView":56,"componentType":5126,"count":2,"type":"VEC3"},{"bufferView":57,"componentType":5126,"count":2,"type":"VEC4"},{"bufferView":58,"componentType":5126,"count":2,"type":"VEC3"},{"bufferView":59,"componentType":5126,"count":2,"type":"VEC3"},{"bufferView":60,"componentType":5126,"count":2,"type":"VEC4"},{"bufferView":61,"componentType":5126,"count":2,"type":"VEC3"},{"bufferView":62,"componentType":5126,"count":2,"type":"VEC3"},{"bufferView":63,"componentType":5126,"count":19,"type":"VEC4"},{"bufferView":64,"componentType":5126,"count":2,"type":"VEC3"},{"bufferView":65,"componentType":5126,"count":2,"type":"VEC3"},{"bufferView":66,"componentType":5126,"count":2,"type":"VEC4"},{"bufferView":67,"componentType":5126,"count":2,"type":"VEC3"},{"bufferView":68,"componentType":5126,"count":2,"type":"VEC3"},{"bufferView":69,"componentType":5126,"count":2,"type":"VEC4"},{"bufferView":70,"componentType":5126,"count":2,"type":"VEC3"},{"bufferView":71,"componentType":5126,"count":2,"type":"VEC3"},{"bufferView":72,"componentType":5126,"count":19,"type":"VEC4"},{"bufferView":73,"componentType":5126,"count":2,"type":"VEC3"},{"bufferView":74,"componentType":5126,"count":2,"type":"VEC3"},{"bufferView":75,"componentType":5126,"count":2,"type":"VEC4"},{"bufferView":76,"componentType":5126,"count":2,"type":"VEC3"},{"bufferView":77,"componentType":5126,"count":2,"type":"VEC3"},{"bufferView":78,"componentType":5126,"count":2,"type":"VEC4"},{"bufferView":79,"componentType":5126,"count":2,"type":"VEC3"},{"bufferView":80,"componentType":5126,"count":2,"type":"VEC3"},{"bufferView":81,"componentType":5126,"count":19,"type":"VEC4"},{"bufferView":82,"componentType":5126,"count":2,"type":"VEC3"},{"bufferView":83,"componentType":5126,"count":2,"type":"VEC3"},{"bufferView":84,"componentType":5126,"count":2,"type":"VEC4"},{"bufferView":85,"componentType":5126,"count":2,"type":"VEC3"},{"bufferView":86,"componentType":5126,"count":2,"type":"VEC3"},{"bufferView":87,"componentType":5126,"count":2,"type":"VEC4"},{"bufferView":88,"componentType":5126,"count":2,"type":"VEC3"},{"bufferView":89,"componentType":5126,"count":2,"type":"VEC3"},{"bufferView":90,"componentType":5126,"count":19,"type":"VEC4"},{"bufferView":91,"componentType":5126,"count":2,"type":"VEC3"},{"bufferView":92,"componentType":5126,"count":2,"type":"VEC3"},{"bufferView":93,"componentType":5126,"count":2,"type":"VEC4"},{"bufferView":94,"componentType":5126,"count":2,"type":"VEC3"},{"bufferView":95,"componentType":5126,"count":2,"type":"VEC3"},{"bufferView":96,"componentType":5126,"count":2,"type":"VEC4"},{"bufferView":97,"componentType":5126,"count":2,"type":"VEC3"},{"bufferView":98,"componentType":5126,"count":2,"type":"VEC3"},{"bufferView":99,"componentType":5126,"count":19,"type":"VEC4"},{"bufferView":100,"componentType":5126,"count":2,"type":"VEC3"},{"bufferView":101,"componentType":5126,"count":2,"type":"VEC4"},{"bufferView":102,"componentType":5126,"count":2,"type":"VEC3"},{"bufferView":103,"componentType":5126,"count":2,"type":"VEC3"},{"bufferView":104,"componentType":5126,"count":2,"type":"VEC4"},{"bufferView":105,"componentType":5126,"count":2,"type":"VEC3"},{"bufferView":106,"componentType":5126,"count":19,"type":"VEC4"},{"bufferView":107,"componentType":5126,"count":2,"type":"VEC3"},{"bufferView":108,"componentType":5126,"count":19,"type":"VEC3"},{"bufferView":109,"componentType":5126,"count":19,"type":"VEC4"},{"bufferView":110,"componentType":5126,"count":19,"type":"VEC3"},{"bufferView":111,"componentType":5126,"count":19,"type":"VEC4"},{"bufferView":112,"componentType":5126,"count":2,"type":"VEC3"},{"bufferView":113,"componentType":5126,"count":2,"type":"VEC3"},{"bufferView":114,"componentType":5126,"count":2,"type":"VEC4"},{"bufferView":115,"componentType":5126,"count":2,"type":"VEC3"},{"bufferView":116,"componentType":5126,"count":2,"type":"VEC3"},{"bufferView":117,"componentType":5126,"count":19,"type":"VEC4"},{"bufferView":118,"componentType":5126,"count":2,"type":"VEC3"},{"bufferView":119,"componentType":5126,"count":2,"type":"VEC3"},{"bufferView":120,"componentType":5126,"count":19,"type":"VEC4"},{"bufferView":121,"componentType":5126,"count":2,"type":"VEC3"},{"bufferView":122,"componentType":5126,"count":2,"type":"VEC3"},{"bufferView":123,"componentType":5126,"count":19,"type":"VEC4"},{"bufferView":124,"componentType":5126,"count":2,"type":"VEC3"},{"bufferView":125,"componentType":5126,"count":2,"type":"VEC3"},{"bufferView":126,"componentType":5126,"count":2,"type":"VEC4"},{"bufferView":127,"componentType":5126,"count":2,"type":"VEC3"},{"bufferView":128,"componentType":5126,"count":2,"type":"VEC3"},{"bufferView":129,"componentType":5126,"count":19,"type":"VEC4"},{"bufferView":130,"componentType":5126,"count":2,"type":"VEC3"},{"bufferView":131,"componentType":5126,"count":19,"type":"VEC4"},{"bufferView":132,"componentType":5126,"count":2,"type":"VEC3"},{"bufferView":133,"componentType":5126,"count":2,"type":"VEC3"},{"bufferView":134,"componentType":5126,"count":19,"type":"VEC4"},{"bufferView":135,"componentType":5126,"count":2,"type":"VEC3"},{"bufferView":136,"componentType":5126,"count":2,"type":"VEC3"},{"bufferView":137,"componentType":5126,"count":2,"type":"VEC3"},{"bufferView":138,"componentType":5126,"count":2,"type":"VEC3"},{"bufferView":139,"componentType":5126,"count":19,"type":"VEC4"},{"bufferView":140,"componentType":5126,"count":2,"type":"VEC3"},{"bufferView":141,"componentType":5126,"count":2,"type":"VEC3"},{"bufferView":142,"componentType":5126,"count":19,"type":"VEC4"},{"bufferView":143,"componentType":5126,"count":2,"type":"VEC3"},{"bufferView":144,"componentType":5126,"count":2,"type":"VEC3"},{"bufferView":145,"componentType":5126,"count":19,"type":"VEC4"},{"bufferView":146,"componentType":5126,"count":2,"type":"VEC3"},{"bufferView":147,"componentType":5126,"count":2,"type":"VEC3"},{"bufferView":148,"componentType":5126,"count":19,"type":"VEC4"},{"bufferView":149,"componentType":5126,"count":2,"type":"VEC3"},{"bufferView":150,"componentType":5126,"count":2,"type":"VEC3"},{"bufferView":151,"componentType":5126,"count":19,"type":"VEC4"},{"bufferView":152,"componentType":5126,"count":2,"type":"VEC3"},{"bufferView":153,"componentType":5126,"count":2,"type":"VEC3"},{"bufferView":154,"componentType":5126,"count":19,"type":"VEC4"},{"bufferView":155,"componentType":5126,"count":2,"type":"VEC3"},{"bufferView":156,"componentType":5126,"count":2,"type":"VEC3"},{"bufferView":157,"componentType":5126,"count":19,"type":"VEC4"},{"bufferView":158,"componentType":5126,"count":2,"type":"VEC3"},{"bufferView":159,"componentType":5126,"count":2,"type":"VEC3"},{"bufferView":160,"componentType":5126,"count":19,"type":"VEC4"},{"bufferView":161,"componentType":5126,"count":2,"type":"VEC3"},{"bufferView":162,"componentType":5126,"count":2,"type":"VEC3"},{"bufferView":163,"componentType":5126,"count":2,"type":"VEC4"},{"bufferView":164,"componentType":5126,"count":2,"type":"VEC3"},{"bufferView":165,"componentType":5126,"count":2,"type":"VEC3"},{"bufferView":166,"componentType":5126,"count":19,"type":"VEC4"},{"bufferView":167,"componentType":5126,"count":2,"type":"VEC3"},{"bufferView":168,"componentType":5126,"count":2,"type":"VEC3"},{"bufferView":169,"componentType":5126,"count":19,"type":"VEC4"},{"bufferView":170,"componentType":5126,"count":2,"type":"VEC3"},{"bufferView":171,"componentType":5126,"count":2,"type":"VEC3"},{"bufferView":172,"componentType":5126,"count":2,"type":"VEC4"},{"bufferView":173,"componentType":5126,"count":2,"type":"VEC3"},{"bufferView":174,"componentType":5126,"count":2,"type":"VEC3"},{"bufferView":175,"componentType":5126,"count":19,"type":"VEC4"},{"bufferView":176,"componentType":5126,"count":2,"type":"VEC3"},{"bufferView":177,"componentType":5126,"count":2,"type":"VEC3"},{"bufferView":178,"componentType":5126,"count":19,"type":"VEC4"},{"bufferView":179,"componentType":5126,"count":2,"type":"VEC3"},{"bufferView":180,"componentType":5126,"count":2,"type":"VEC3"},{"bufferView":181,"componentType":5126,"count":2,"type":"VEC4"},{"bufferView":182,"componentType":5126,"count":2,"type":"VEC3"},{"bufferView":183,"componentType":5126,"count":2,"type":"VEC3"},{"bufferView":184,"componentType":5126,"count":19,"type":"VEC4"},{"bufferView":185,"componentType":5126,"count":2,"type":"VEC3"},{"bufferView":186,"componentType":5126,"count":2,"type":"VEC3"},{"bufferView":187,"componentType":5126,"count":19,"type":"VEC4"},{"bufferView":188,"componentType":5126,"count":2,"type":"VEC3"},{"bufferView":189,"componentType":5126,"count":2,"max":[1.5],"min":[0],"type":"SCALAR"},{"bufferView":190,"componentType":5126,"count":37,"max":[1.5],"min":[0],"type":"SCALAR"},{"bufferView":191,"componentType":5126,"count":37,"type":"VEC3"},{"bufferView":192,"componentType":5126,"count":2,"type":"VEC4"},{"bufferView":193,"componentType":5126,"count":2,"type":"VEC4"},{"bufferView":194,"componentType":5126,"count":2,"type":"VEC4"},{"bufferView":195,"componentType":5126,"count":2,"type":"VEC4"},{"bufferView":196,"componentType":5126,"count":37,"type":"VEC4"},{"bufferView":197,"componentType":5126,"count":37,"type":"VEC4"},{"bufferView":198,"componentType":5126,"count":37,"type":"VEC4"},{"bufferView":199,"componentType":5126,"count":37,"type":"VEC4"},{"bufferView":200,"componentType":5126,"count":37,"type":"VEC4"},{"bufferView":201,"componentType":5126,"count":37,"type":"VEC4"},{"bufferView":202,"componentType":5126,"count":37,"type":"VEC4"},{"bufferView":203,"componentType":5126,"count":37,"type":"VEC4"},{"bufferView":204,"componentType":5126,"count":37,"type":"VEC4"},{"bufferView":205,"componentType":5126,"count":37,"type":"VEC4"},{"bufferView":206,"componentType":5126,"count":37,"type":"VEC4"},{"bufferView":207,"componentType":5126,"count":37,"type":"VEC4"},{"bufferView":208,"componentType":5126,"count":37,"type":"VEC4"},{"bufferView":209,"componentType":5126,"count":37,"type":"VEC4"},{"bufferView":210,"componentType":5126,"count":37,"type":"VEC4"},{"bufferView":211,"componentType":5126,"count":37,"type":"VEC4"}],"bufferViews":[{"buffer":0,"byteLength":12864,"byteOffset":0,"target":34962},{"buffer":0,"byteLength":12864,"byteOffset":12864,"target":34962},{"buffer":0,"byteLength":4288,"byteOffset":25728,"target":34962},{"buffer":0,"byteLength":17152,"byteOffset":30016,"target":34962},{"buffer":0,"byteLength":3216,"byteOffset":47168,"target":34963},{"buffer":0,"byteLength":65088,"byteOffset":50384,"target":34962},{"buffer":0,"byteLength":65088,"byteOffset":115472,"target":34962},{"buffer":0,"byteLength":21696,"byteOffset":180560,"target":34962},{"buffer":0,"byteLength":86784,"byteOffset":202256,"target":34962},{"buffer":0,"byteLength":16272,"byteOffset":289040,"target":34963},{"buffer":0,"byteLength":5952,"byteOffset":305312,"target":34962},{"buffer":0,"byteLength":5952,"byteOffset":311264,"target":34962},{"buffer":0,"byteLength":1984,"byteOffset":317216,"target":34962},{"buffer":0,"byteLength":7936,"byteOffset":319200,"target":34962},{"buffer":0,"byteLength":1488,"byteOffset":327136,"target":34963},{"buffer":0,"byteLength":5760,"byteOffset":328624,"target":34962},{"buffer":0,"byteLength":5760,"byteOffset":334384,"target":34962},{"buffer":0,"byteLength":1920,"byteOffset":340144,"target":34962},{"buffer":0,"byteLength":7680,"byteOffset":342064,"target":34962},{"buffer":0,"byteLength":1440,"byteOffset":349744,"target":34963},{"buffer":0,"byteLength":1856,"byteOffset":351184},{"buffer":0,"byteLength":8,"byteOffset":353040},{"buffer":0,"byteLength":24,"byteOffset":353048},{"buffer":0,"byteLength":32,"byteOffset":353072},{"buffer":0,"byteLength":24,"byteOffset":353104},{"buffer":0,"byteLength":76,"byteOffset":353128},{"buffer":0,"byteLength":228,"byteOffset":353204},{"buffer":0,"byteLength":304,"byteOffset":353432},{"buffer":0,"byteLength":24,"byteOffset":353736},{"buffer":0,"byteLength":24,"byteOffset":353760},{"buffer":0,"byteLength":304,"byteOffset":353784},{"buffer":0,"byteLength":24,"byteOffset":354088},{"buffer":0,"byteLength":24,"byteOffset":354112},{"buffer":0,"byteLength":304,"byteOffset":354136},{"buffer":0,"byteLength":24,"byteOffset":354440},{"buffer":0,"byteLength":24,"byteOffset":354464},{"buffer":0,"byteLength":304,"byteOffset":354488},{"buffer":0,"byteLength":24,"byteOffset":354792},{"buffer":0,"byteLength":24,"byteOffset":354816},{"buffer":0,"byteLength":304,"byteOffset":354840},{"buffer":0,"byteLength":24,"byteOffset":355144},{"buffer":0,"byteLength":24,"byteOffset":355168},{"buffer":0,"byteLength":304,"byteOffset":355192},{"buffer":0,"byteLength":24,"byteOffset":355496},{"buffer":0,"byteLength":24,"byteOffset":355520},{"buffer":0,"byteLength":32,"byteOffset":355544},{"buffer":0,"byteLength":24,"byteOffset":355576},{"buffer":0,"byteLength":24,"byteOffset":355600},{"buffer":0,"byteLength":304,"byteOffset":355624},{"buffer":0,"byteLength":24,"byteOffset":355928},{"buffer":0,"byteLength":24,"byteOffset":355952},{"buffer":0,"byteLength":304,"byteOffset":355976},{"buffer":0,"byteLength":24,"byteOffset":356280},{"buffer":0,"byteLength":24,"byteOffset":356304},{"buffer":0,"byteLength":304,"byteOffset":356328},{"buffer":0,"byteLength":24,"byteOffset":356632},{"buffer":0,"byteLength":24,"byteOffset":356656},{"buffer":0,"byteLength":32,"byteOffset":356680},{"buffer":0,"byteLength":24,"byteOffset":356712},{"buffer":0,"byteLength":24,"byteOffset":356736},{"buffer":0,"byteLength":32,"byteOffset":356760},{"buffer":0,"byteLength":24,"byteOffset":356792},{"buffer":0,"byteLength":24,"byteOffset":356816},{"buffer":0,"byteLength":304,"byteOffset":356840},{"buffer":0,"byteLength":24,"byteOffset":357144},{"buffer":0,"byteLength":24,"byteOffset":357168},{"buffer":0,"byteLength":32,"byteOffset":357192},{"buffer":0,"byteLength":24,"byteOffset":357224},{"buffer":0,"byteLength":24,"byteOffset":357248},{"buffer":0,"byteLength":32,"byteOffset":357272},{"buffer":0,"byteLength":24,"byteOffset":357304},{"buffer":0,"byteLength":24,"byteOffset":357328},{"buffer":0,"byteLength":304,"byteOffset":357352},{"buffer":0,"byteLength":24,"byteOffset":357656},{"buffer":0,"byteLength":24,"byteOffset":357680},{"buffer":0,"byteLength":32,"byteOffset":357704},{"buffer":0,"byteLength":24,"byteOffset":357736},{"buffer":0,"byteLength":24,"byteOffset":357760},{"buffer":0,"byteLength":32,"byteOffset":357784},{"buffer":0,"byteLength":24,"byteOffset":357816},{"buffer":0,"byteLength":24,"byteOffset":357840},{"buffer":0,"byteLength":304,"byteOffset":357864},{"buffer":0,"byteLength":24,"byteOffset":358168},{"buffer":0,"byteLength":24,"byteOffset":358192},{"buffer":0,"byteLength":32,"byteOffset":358216},{"buffer":0,"byteLength":24,"byteOffset":358248},{"buffer":0,"byteLength":24,"byteOffset":358272},{"buffer":0,"byteLength":32,"byteOffset":358296},{"buffer":0,"byteLength":24,"byteOffset":358328},{"buffer":0,"byteLength":24,"byteOffset":358352},{"buffer":0,"byteLength":304,"byteOffset":358376},{"buffer":0,"byteLength":24,"byteOffset":358680},{"buffer":0,"byteLength":24,"byteOffset":358704},{"buffer":0,"byteLength":32,"byteOffset":358728},{"buffer":0,"byteLength":24,"byteOffset":358760},{"buffer":0,"byteLength":24,"byteOffset":358784},{"buffer":0,"byteLength":32,"byteOffset":358808},{"buffer":0,"byteLength":24,"byteOffset":358840},{"buffer":0,"byteLength":24,"byteOffset":358864},{"buffer":0,"byteLength":304,"byteOffset":358888},{"buffer":0,"byteLength":24,"byteOffset":359192},{"buffer":0,"byteLength":32,"byteOffset":359216},{"buffer":0,"byteLength":24,"byteOffset":359248},{"buffer":0,"byteLength":24,"byteOffset":359272},{"buffer":0,"byteLength":32,"byteOffset":359296},{"buffer":0,"byteLength":24,"byteOffset":359328},{"buffer":0,"byteLength":304,"byteOffset":359352},{"buffer":0,"byteLength":24,"byteOffset":359656},{"buffer":0,"byteLength":228,"byteOffset":359680},{"buffer":0,"byteLength":304,"byteOffset":359908},{"buffer":0,"byteLength":228,"byteOffset":360212},{"buffer":0,"byteLength":304,"byteOffset":360440},{"buffer":0,"byteLength":24,"byteOffset":360744},{"buffer":0,"byteLength":24,"byteOffset":360768},{"buffer":0,"byteLength":32,"byteOffset":360792},{"buffer":0,"byteLength":24,"byteOffset":360824},{"buffer":0,"byteLength":24,"byteOffset":360848},{"buffer":0,"byteLength":304,"byteOffset":360872},{"buffer":0,"byteLength":24,"byteOffset":361176},{"buffer":0,"byteLength":24,"byteOffset":361200},{"buffer":0,"byteLength":304,"byteOffset":361224},{"buffer":0,"byteLength":24,"byteOffset":361528},{"buffer":0,"byteLength":24,"byteOffset":361552},{"buffer":0,"byteLength":304,"byteOffset":361576},{"buffer":0,"byteLength":24,"byteOffset":361880},{"buffer":0,"byteLength":24,"byteOffset":361904},{"buffer":0,"byteLength":32,"byteOffset":361928},{"buffer":0,"byteLength":24,"byteOffset":361960},{"buffer":0,"byteLength":24,"byteOffset":361984},{"buffer":0,"byteLength":304,"byteOffset":362008},{"buffer":0,"byteLength":24,"byteOffset":362312},{"buffer":0,"byteLength":304,"byteOffset":362336},{"buffer":0,"byteLength":24,"byteOffset":362640},{"buffer":0,"byteLength":24,"byteOffset":362664},{"buffer":0,"byteLength":304,"byteOffset":362688},{"buffer":0,"byteLength":24,"byteOffset":362992},{"buffer":0,"byteLength":24,"byteOffset":363016},{"buffer":0,"byteLength":24,"byteOffset":363040},{"buffer":0,"byteLength":24,"byteOffset":363064},{"buffer":0,"byteLength":304,"byteOffset":363088},{"buffer":0,"byteLength":24,"byteOffset":363392},{"buffer":0,"byteLength":24,"byteOffset":363416},{"buffer":0,"byteLength":304,"byteOffset":363440},{"buffer":0,"byteLength":24,"byteOffset":363744},{"buffer":0,"byteLength":24,"byteOffset":363768},{"buffer":0,"byteLength":304,"byteOffset":363792},{"buffer":0,"byteLength":24,"byteOffset":364096},{"buffer":0,"byteLength":24,"byteOffset":364120},{"buffer":0,"byteLength":304,"byteOffset":364144},{"buffer":0,"byteLength":24,"byteOffset":364448},{"buffer":0,"byteLength":24,"byteOffset":364472},{"buffer":0,"byteLength":304,"byteOffset":364496},{"buffer":0,"byteLength":24,"byteOffset":364800},{"buffer":0,"byteLength":24,"byteOffset":364824},{"buffer":0,"byteLength":304,"byteOffset":364848},{"buffer":0,"byteLength":24,"byteOffset":365152},{"buffer":0,"byteLength":24,"byteOffset":365176},{"buffer":0,"byteLength":304,"byteOffset":365200},{"buffer":0,"byteLength":24,"byteOffset":365504},{"buffer":0,"byteLength":24,"byteOffset":365528},{"buffer":0,"byteLength":304,"byteOffset":365552},{"buffer":0,"byteLength":24,"byteOffset":365856},{"buffer":0,"byteLength":24,"byteOffset":365880},{"buffer":0,"byteLength":32,"byteOffset":365904},{"buffer":0,"byteLength":24,"byteOffset":365936},{"buffer":0,"byteLength":24,"byteOffset":365960},{"buffer":0,"byteLength":304,"byteOffset":365984},{"buffer":0,"byteLength":24,"byteOffset":366288},{"buffer":0,"byteLength":24,"byteOffset":366312},{"buffer":0,"byteLength":304,"byteOffset":366336},{"buffer":0,"byteLength":24,"byteOffset":366640},{"buffer":0,"byteLength":24,"byteOffset":366664},{"buffer":0,"byteLength":32,"byteOffset":366688},{"buffer":0,"byteLength":24,"byteOffset":366720},{"buffer":0,"byteLength":24,"byteOffset":366744},{"buffer":0,"byteLength":304,"byteOffset":366768},{"buffer":0,"byteLength":24,"byteOffset":367072},{"buffer":0,"byteLength":24,"byteOffset":367096},{"buffer":0,"byteLength":304,"byteOffset":367120},{"buffer":0,"byteLength":24,"byteOffset":367424},{"buffer":0,"byteLength":24,"byteOffset":367448},{"buffer":0,"byteLength":32,"byteOffset":367472},{"buffer":0,"byteLength":24,"byteOffset":367504},{"buffer":0,"byteLength":24,"byteOffset":367528},{"buffer":0,"byteLength":304,"byteOffset":367552},{"buffer":0,"byteLength":24,"byteOffset":367856},{"buffer":0,"byteLength":24,"byteOffset":367880},{"buffer":0,"byteLength":304,"byteOffset":367904},{"buffer":0,"byteLength":24,"byteOffset":368208},{"buffer":0,"byteLength":8,"byteOffset":368232},{"buffer":0,"byteLength":148,"byteOffset":368240},{"buffer":0,"byteLength":444,"byteOffset":368388},{"buffer":0,"byteLength":32,"byteOffset":368832},{"buffer":0,"byteLength":32,"byteOffset":368864},{"buffer":0,"byteLength":32,"byteOffset":368896},{"buffer":0,"byteLength":32,"byteOffset":368928},{"buffer":0,"byteLength":592,"byteOffset":368960},{"buffer":0,"byteLength":592,"byteOffset":369552},{"buffer":0,"byteLength":592,"byteOffset":370144},{"buffer":0,"byteLength":592,"byteOffset":370736},{"buffer":0,"byteLength":592,"byteOffset":371328},{"buffer":0,"byteLength":592,"byteOffset":371920},{"buffer":0,"byteLength":592,"byteOffset":372512},{"buffer":0,"byteLength":592,"byteOffset":373104},{"buffer":0,"byteLength":592,"byteOffset":373696},{"buffer":0,"byteLength":592,"byteOffset":374288},{"buffer":0,"byteLength":592,"byteOffset":374880},{"buffer":0,"byteLength":592,"byteOffset":375472},{"buffer":0,"byteLength":592,"byteOffset":376064},{"buffer":0,"byteLength":592,"byteOffset":376656},{"buffer":0,"byteLength":592,"byteOffset":377248},{"buffer":0,"byteLength":592,"byteOffset":377840}],"buffers":[{"byteLength":378432,"uri":"data:application/octet-stream;base64,"}]}