{"asset":{"generator":"Khronos glTF Blender I/O v4.5.51","version":"2.0"},"scene":0,"scenes":[{"name":"Scene","nodes":[24,27]}],"nodes":[{"name":"Nose","rotation":[-0.026605097576975822,-1.93517576008162e-06,-8.560466113749499e-09,0.999646008014679],"translation":[1.3358203432289883e-10,0.5032330751419067,1.2796775195056398e-07]},{"children":[0],"name":"Face","rotation":[-0.6918507814407349,0.0022326307371258736,-0.0031556040048599243,0.7220301628112793],"translation":[-1.7462298274040222e-09,0.3512934446334839,3.166269380017184e-08]},{"children":[1],"name":"Head","rotation":[-0.0037653970066457987,-0.9969111680984497,-0.0784422755241394,0.0008693979470990598],"scale":[0.9999999403953552,0.9999998211860657,0.9999999403953552],"translation":[9.269209443778844e-15,0.22945445775985718,7.450580596923828e-09]},{"children":[2],"name":"Neck","rotation":[-0.0812874287366867,1.9382023045441503e-14,1.938044746907508e-08,0.9966906905174255],"translation":[-7.679173594753175e-15,0.9764488339424133,5.960464477539063e-08]},{"name":"Wing4.L","rotation":[-0.18313802778720856,0.3660421669483185,-0.130818709731102,0.9029728770256042],"scale":[0.9999999403953552,1,1.0000001192092896],"translation":[5.587935447692871e-08,0.6781376004219055,6.938353180885315e-08]},{"children":[4],"name":"Wing3.L","rotation":[-0.2791694104671478,0.31836998462677,0.210017129778862,0.881247878074646],"translation":[-8.940696716308594e-08,0.6208577156066895,0]},{"children":[5],"name":"Wing2.L","rotation":[0.04546481743454933,-0.09242349117994308,-0.0820799469947815,0.9912889003753662],"scale":[0.9999998807907104,0.9999999403953552,1.0000001192092896],"translation":[0,0.5187844038009644,-2.9802322387695312e-08]},{"children":[6],"name":"Wing1.L","rotation":[-0.41009971499443054,-0.4239497184753418,0.15513934195041656,0.7924749851226807],"scale":[0.9999999403953552,0.9999998211860657,0.9999998807907104],"translation":[4.6566128730773926e-08,0.357033371925354,-4.656612873077393e-10]},{"children":[7],"name":"Shoulder.L","rotation":[-0.17561659216880798,-0.040101803839206696,-0.16488218307495117,0.9697239398956299],"translation":[0.25251251459121704,0.13838467001914978,-0.19802625477313995]},{"name":"Wing4.R","rotation":[-0.21028102934360504,0.28726837038993835,0.08021850138902664,0.931033730506897],"scale":[1.0000001192092896,1.0000001192092896,1.0000001192092896],"translation":[-8.940696716308594e-08,0.6781376600265503,1.341104507446289e-07]},{"children":[9],"name":"Wing3.R","rotation":[-0.3102304935455322,0.31904953718185425,0.1606229543685913,0.8810021281242371],"scale":[1,1.0000001192092896,1.0000001192092896],"translation":[-2.9802322387695312e-08,0.6208576560020447,5.960464477539063e-08]},{"children":[10],"name":"Wing2.R","rotation":[0.06937841325998306,-0.18159396946430206,-0.07085254043340683,0.9783610105514526],"scale":[1,0.9999999403953552,1],"translation":[-8.940696716308594e-08,0.5485662817955017,1.1920928955078125e-07]},{"children":[11],"name":"Wing1.R","rotation":[-0.43437907099723816,-0.12115421891212463,0.14166462421417236,0.8812307119369507],"scale":[1,1.0000001192092896,1.0000001192092896],"translation":[2.421438694000244e-08,0.3570334017276764,1.4901161193847656e-08]},{"children":[12],"name":"Shoulder.R","rotation":[-0.16961215436458588,0.005422187969088554,0.17105279862880707,0.9705376029014587],"scale":[1,1.0000001192092896,1.0000001192092896],"translation":[-0.25637683272361755,0.13838467001914978,-0.1980261504650116]},{"children":[3,8,13],"name":"Body","rotation":[0.15485545992851257,-1.1777132868928675e-07,-1.8460218242921655e-08,0.9879371523857117],"translation":[-3.4125782186661445e-16,0.3110966682434082,0.0012348905438557267]},{"name":"Feet.L","rotation":[-0.10453160107135773,-0.13360165059566498,0.6747698187828064,0.7182683348655701],"scale":[1.0000001192092896,1,1.0000001192092896],"translation":[5.960464477539063e-08,0.3050207793712616,-7.450580596923828e-09]},{"children":[15],"name":"LowerLeg.L","rotation":[-0.20906555652618408,0.7151892185211182,-0.44362249970436096,0.49799099564552307],"scale":[1.0000001192092896,1.0000003576278687,1],"translation":[-3.055902197957039e-08,0.2642306387424469,-7.916241884231567e-09]},{"children":[16],"name":"UpperLeg.L","rotation":[-0.0029868411365896463,0.021959859877824783,-0.9982466697692871,0.05488527938723564],"scale":[1.0000113248825073,1.0000001192092896,1.0000019073486328],"translation":[0.5236753821372986,-0.03475319594144821,-0.13887014985084534]},{"name":"Feet.R","rotation":[-0.035084716975688934,-0.12498603016138077,0.6815897226333618,0.7201271057128906],"scale":[0.9999998807907104,0.9999998807907104,0.9999999403953552],"translation":[0,0.30410411953926086,7.450580596923828e-09]},{"children":[18],"name":"LowerLeg.R","rotation":[-0.389419823884964,0.648249626159668,-0.30352720618247986,0.5796515345573425],"scale":[1.0000001192092896,1.0000001192092896,1.0000001192092896],"translation":[1.9295839592814445e-08,0.26827847957611084,-6.28642737865448e-09]},{"children":[19],"name":"UpperLeg.R","rotation":[-0.0005978188710287213,-0.021810900419950485,0.994491696357727,0.10251928120851517],"scale":[0.9999992847442627,0.9999999403953552,1],"translation":[-0.4991203844547272,-0.03475319594144821,-0.13887014985084534]},{"children":[14,17,20],"name":"BodyRoot","rotation":[-0.0035738875158131123,-3.0408959262462213e-16,-3.040894602757241e-16,0.999993622303009],"scale":[1,0.9999999403953552,0.9999999403953552],"translation":[8.773297805303698e-16,1.279430627822876,0.00651070661842823]},{"children":[21],"name":"Root","rotation":[0.0035738733131438494,3.0408959262462213e-16,3.0408959262462213e-16,0.999993622303009],"scale":[1,0.9999999403953552,0.9999999403953552],"translation":[-1.7111162706901357e-16,-0.034989990293979645,0.003565147751942277]},{"mesh":0,"name":"Bat","skin":0},{"children":[23,22],"name":"BatArmature"},{"name":"Bone"},{"mesh":1,"name":"Eyes","skin":1},{"children":[26,25],"name":"EyeArmature","translation":[0,3.090696096420288,0.9183180928230286]}],"animations":[{"channels":[{"sampler":0,"target":{"node":22,"path":"translation"}},{"sampler":1,"target":{"node":22,"path":"rotation"}},{"sampler":2,"target":{"node":22,"path":"scale"}},{"sampler":3,"target":{"node":21,"path":"translation"}},{"sampler":4,"target":{"node":21,"path":"rotation"}},{"sampler":5,"target":{"node":21,"path":"scale"}},{"sampler":6,"target":{"node":14,"path":"translation"}},{"sampler":7,"target":{"node":14,"path":"rotation"}},{"sampler":8,"target":{"node":14,"path":"scale"}},{"sampler":9,"target":{"node":3,"path":"translation"}},{"sampler":10,"target":{"node":3,"path":"rotation"}},{"sampler":11,"target":{"node":3,"path":"scale"}},{"sampler":12,"target":{"node":2,"path":"translation"}},{"sampler":13,"target":{"node":2,"path":"rotation"}},{"sampler":14,"target":{"node":2,"path":"scale"}},{"sampler":15,"target":{"node":1,"path":"translation"}},{"sampler":16,"target":{"node":1,"path":"rotation"}},{"sampler":17,"target":{"node":1,"path":"scale"}},{"sampler":18,"target":{"node":0,"path":"translation"}},{"sampler":19,"target":{"node":0,"path":"rotation"}},{"sampler":20,"target":{"node":0,"path":"scale"}},{"sampler":21,"target":{"node":8,"path":"translation"}},{"sampler":22,"target":{"node":8,"path":"rotation"}},{"sampler":23,"target":{"node":8,"path":"scale"}},{"sampler":24,"target":{"node":7,"path":"translation"}},{"sampler":25,"target":{"node":7,"path":"rotation"}},{"sampler":26,"target":{"node":7,"path":"scale"}},{"sampler":27,"target":{"node":6,"path":"translation"}},{"sampler":28,"target":{"node":6,"path":"rotation"}},{"sampler":29,"target":{"node":6,"path":"scale"}},{"sampler":30,"target":{"node":5,"path":"translation"}},{"sampler":31,"target":{"node":5,"path":"rotation"}},{"sampler":32,"target":{"node":5,"path":"scale"}},{"sampler":33,"target":{"node":4,"path":"translation"}},{"sampler":34,"target":{"node":4,"path":"rotation"}},{"sampler":35,"target":{"node":4,"path":"scale"}},{"sampler":36,"target":{"node":13,"path":"translation"}},{"sampler":37,"target":{"node":13,"path":"rotation"}},{"sampler":38,"target":{"node":13,"path":"scale"}},{"sampler":39,"target":{"node":12,"path":"translation"}},{"sampler":40,"target":{"node":12,"path":"rotation"}},{"sampler":41,"target":{"node":12,"path":"scale"}},{"sampler":42,"target":{"node":11,"path":"translation"}},{"sampler":43,"target":{"node":11,"path":"rotation"}},{"sampler":44,"target":{"node":11,"path":"scale"}},{"sampler":45,"target":{"node":10,"path":"translation"}},{"sampler":46,"target":{"node":10,"path":"rotation"}},{"sampler":47,"target":{"node":10,"path":"scale"}},{"sampler":48,"target":{"node":9,"path":"translation"}},{"sampler":49,"target":{"node":9,"path":"rotation"}},{"sampler":50,"target":{"node":9,"path":"scale"}},{"sampler":51,"target":{"node":17,"path":"translation"}},{"sampler":52,"target":{"node":17,"path":"rotation"}},{"sampler":53,"target":{"node":17,"path":"scale"}},{"sampler":54,"target":{"node":16,"path":"translation"}},{"sampler":55,"target":{"node":16,"path":"rotation"}},{"sampler":56,"target":{"node":16,"path":"scale"}},{"sampler":57,"target":{"node":15,"path":"translation"}},{"sampler":58,"target":{"node":15,"path":"rotation"}},{"sampler":59,"target":{"node":15,"path":"scale"}},{"sampler":60,"target":{"node":20,"path":"translation"}},{"sampler":61,"target":{"node":20,"path":"rotation"}},{"sampler":62,"target":{"node":20,"path":"scale"}},{"sampler":63,"target":{"node":19,"path":"translation"}},{"sampler":64,"target":{"node":19,"path":"rotation"}},{"sampler":65,"target":{"node":19,"path":"scale"}},{"sampler":66,"target":{"node":18,"path":"translation"}},{"sampler":67,"target":{"node":18,"path":"rotation"}},{"sampler":68,"target":{"node":18,"path":"scale"}}],"name":"Bat_Flying","samplers":[{"input":50,"interpolation":"STEP","output":51},{"input":50,"interpolation":"STEP","output":52},{"input":50,"interpolation":"STEP","output":53},{"input":54,"interpolation":"LINEAR","output":55},{"input":50,"interpolation":"STEP","output":56},{"input":50,"interpolation":"STEP","output":53},{"input":50,"interpolation":"STEP","output":57},{"input":54,"interpolation":"LINEAR","output":58},{"input":50,"interpolation":"STEP","output":59},{"input":50,"interpolation":"STEP","output":60},{"input":50,"interpolation":"STEP","output":61},{"input":50,"interpolation":"STEP","output":62},{"input":50,"interpolation":"STEP","output":63},{"input":54,"interpolation":"LINEAR","output":64},{"input":50,"interpolation":"STEP","output":65},{"input":50,"interpolation":"STEP","output":66},{"input":54,"interpolation":"LINEAR","output":67},{"input":50,"interpolation":"STEP","output":62},{"input":50,"interpolation":"STEP","output":68},{"input":50,"interpolation":"STEP","output":69},{"input":50,"interpolation":"STEP","output":62},{"input":50,"interpolation":"STEP","output":70},{"input":50,"interpolation":"STEP","output":71},{"input":50,"interpolation":"STEP","output":72},{"input":50,"interpolation":"STEP","output":73},{"input":54,"interpolation":"LINEAR","output":74},{"input":50,"interpolation":"STEP","output":75},{"input":50,"interpolation":"STEP","output":76},{"input":54,"interpolation":"LINEAR","output":77},{"input":50,"interpolation":"STEP","output":78},{"input":50,"interpolation":"STEP","output":79},{"input":54,"interpolation":"LINEAR","output":80},{"input":50,"interpolation":"STEP","output":81},{"input":50,"interpolation":"STEP","output":82},{"input":54,"interpolation":"LINEAR","output":83},{"input":50,"interpolation":"STEP","output":72},{"input":50,"interpolation":"STEP","output":84},{"input":50,"interpolation":"STEP","output":85},{"input":50,"interpolation":"STEP","output":62},{"input":50,"interpolation":"STEP","output":86},{"input":54,"interpolation":"LINEAR","output":87},{"input":50,"interpolation":"STEP","output":88},{"input":50,"interpolation":"STEP","output":89},{"input":54,"interpolation":"LINEAR","output":90},{"input":50,"interpolation":"STEP","output":91},{"input":50,"interpolation":"STEP","output":92},{"input":54,"interpolation":"LINEAR","output":93},{"input":50,"interpolation":"STEP","output":94},{"input":50,"interpolation":"STEP","output":95},{"input":54,"interpolation":"LINEAR","output":96},{"input":50,"interpolation":"STEP","output":97},{"input":50,"interpolation":"STEP","output":98},{"input":50,"interpolation":"STEP","output":99},{"input":50,"interpolation":"STEP","output":100},{"input":50,"interpolation":"STEP","output":101},{"input":50,"interpolation":"STEP","output":102},{"input":50,"interpolation":"STEP","output":103},{"input":50,"interpolation":"STEP","output":104},{"input":54,"interpolation":"LINEAR","output":105},{"input":50,"interpolation":"STEP","output":106},{"input":50,"interpolation":"STEP","output":107},{"input":50,"interpolation":"STEP","output":108},{"input":50,"interpolation":"STEP","output":109},{"input":50,"interpolation":"STEP","output":110},{"input":50,"interpolation":"STEP","output":111},{"input":50,"interpolation":"STEP","output":112},{"input":50,"interpolation":"STEP","output":113},{"input":54,"interpolation":"LINEAR","output":114},{"input":50,"interpolation":"STEP","output":115}]}],"materials":[{"doubleSided":true,"name":"Main","pbrMetallicRoughness":{"baseColorFactor":[0.021219007670879364,0.010960097424685955,0.04970657452940941,1],"metallicFactor":0,"roughnessFactor":0.8500000238418579}},{"doubleSided":true,"name":"Black","pbrMetallicRoughness":{"baseColorFactor":[0.0036421006079763174,0.0036421006079763174,0.0036421006079763174,1],"metallicFactor":0,"roughnessFactor":0.8500000238418579}},{"doubleSided":true,"name":"Belly","pbrMetallicRoughness":{"baseColorFactor":[0.8000000715255737,0.5303873419761658,0.09107834845781326,1],"metallicFactor":0,"roughnessFactor":0.8500000238418579}},{"doubleSided":true,"name":"Nose","pbrMetallicRoughness":{"baseColorFactor":[0.15292617678642273,0.04518621414899826,0.10224173218011856,1],"metallicFactor":0,"roughnessFactor":0.8500000238418579}},{"doubleSided":true,"name":"Eyes","pbrMetallicRoughness":{"baseColorFactor":[0,0,0,1],"metallicFactor":0,"roughnessFactor":0.8500000238418579}}],"meshes":[{"name":"Cylinder","primitives":[{"attributes":{"POSITION":0,"NORMAL":1,"TEXCOORD_0":2,"TEXCOORD_1":3,"TEXCOORD_2":4,"JOINTS_0":5,"WEIGHTS_0":6},"indices":7,"material":0},{"attributes":{"POSITION":8,"NORMAL":9,"TEXCOORD_0":10,"TEXCOORD_1":11,"TEXCOORD_2":12,"JOINTS_0":13,"WEIGHTS_0":14},"indices":15,"material":1},{"attributes":{"POSITION":16,"NORMAL":17,"TEXCOORD_0":18,"TEXCOORD_1":19,"TEXCOORD_2":20,"JOINTS_0":21,"WEIGHTS_0":22},"indices":23,"material":2},{"attributes":{"POSITION":24,"NORMAL":25,"TEXCOORD_0":26,"TEXCOORD_1":27,"TEXCOORD_2":28,"JOINTS_0":29,"WEIGHTS_0":30},"indices":31,"material":3}]},{"name":"Cylinder.001","primitives":[{"attributes":{"POSITION":33,"NORMAL":34,"TEXCOORD_0":35,"TEXCOORD_1":36,"TEXCOORD_2":37,"JOINTS_0":38,"WEIGHTS_0":39},"indices":40,"material":0},{"attributes":{"POSITION":41,"NORMAL":42,"TEXCOORD_0":43,"TEXCOORD_1":44,"TEXCOORD_2":45,"JOINTS_0":46,"WEIGHTS_0":47},"indices":48,"material":4}]}],"skins":[{"inverseBindMatrices":32,"joints":[22,21,14,3,2,1,0,8,7,6,5,4,13,12,11,10,9,17,16,15,20,19,18],"name":"BatArmature"},{"inverseBindMatrices":49,"joints":[25],"name":"EyeArmature"}],"accessors":[{"bufferView":0,"componentType":5126,"count":1436,"max":[1.4490793943405151,4.50594425201416,1.337993860244751],"min":[-1.2841073274612427,0.42780637741088867,-2.883906841278076],"type":"VEC3"},{"bufferView":1,"componentType":5126,"count":1436,"type":"VEC3"},{"bufferView":2,"componentType":5126,"count":1436,"type":"VEC2"},{"bufferView":3,"componentType":5126,"count":1436,"type":"VEC2"},{"bufferView":4,"componentType":5126,"count":1436,"type":"VEC2"},{"bufferView":5,"componentType":5121,"count":1436,"type":"VEC4"},{"bufferView":6,"componentType":5126,"count":1436,"type":"VEC4"},{"bufferView":7,"componentType":5123,"count":2070,"type":"SCALAR"},{"bufferView":8,"componentType":5126,"count":178,"max":[1.3930836915969849,4.281120300292969,0.6850408315658569],"min":[-1.2266310453414917,1.5651224851608276,-2.883906841278076],"type":"VEC3"},{"bufferView":9,"componentType":5126,"count":178,"type":"VEC3"},{"bufferView":10,"componentType":5126,"count":178,"type":"VEC2"},{"bufferView":11,"componentType":5126,"count":178,"type":"VEC2"},{"bufferView":12,"componentType":5126,"count":178,"type":"VEC2"},{"bufferView":13,"componentType":5121,"count":178,"type":"VEC4"},{"bufferView":14,"componentType":5126,"count":178,"type":"VEC4"},{"bufferView":15,"componentType":5123,"count":246,"type":"SCALAR"},{"bufferView":16,"componentType":5126,"count":36,"max":[0.5642368197441101,2.4950594902038574,0.8238949775695801],"min":[-0.5642368197441101,0.964684009552002,0.034942612051963806],"type":"VEC3"},{"bufferView":17,"componentType":5126,"count":36,"type":"VEC3"},{"bufferView":18,"componentType":5126,"count":36,"type":"VEC2"},{"bufferView":19,"componentType":5126,"count":36,"type":"VEC2"},{"bufferView":20,"componentType":5126,"count":36,"type":"VEC2"},{"bufferView":21,"componentType":5121,"count":36,"type":"VEC4"},{"bufferView":22,"componentType":5126,"count":36,"type":"VEC4"},{"bufferView":23,"componentType":5123,"count":48,"type":"SCALAR"},{"bufferView":24,"componentType":5126,"count":38,"max":[0.20440521836280823,2.9755702018737793,1.4300302267074585],"min":[-0.20440521836280823,2.7834911346435547,1.2743778228759766],"type":"VEC3"},{"bufferView":25,"componentType":5126,"count":38,"type":"VEC3"},{"bufferView":26,"componentType":5126,"count":38,"type":"VEC2"},{"bufferView":27,"componentType":5126,"count":38,"type":"VEC2"},{"bufferView":28,"componentType":5126,"count":38,"type":"VEC2"},{"bufferView":29,"componentType":5121,"count":38,"type":"VEC4"},{"bufferView":30,"componentType":5126,"count":38,"type":"VEC4"},{"bufferView":31,"componentType":5123,"count":54,"type":"SCALAR"},{"bufferView":32,"componentType":5126,"count":23,"type":"MAT4"},{"bufferView":33,"componentType":5126,"count":280,"max":[0.6519057750701904,3.3228681087493896,1.0093201398849487],"min":[-0.6519057750701904,3.02449107170105,0.6930369138717651],"type":"VEC3"},{"bufferView":34,"componentType":5126,"count":280,"type":"VEC3"},{"bufferView":35,"componentType":5126,"count":280,"type":"VEC2"},{"bufferView":36,"componentType":5126,"count":280,"type":"VEC2"},{"bufferView":37,"componentType":5126,"count":280,"type":"VEC2"},{"bufferView":38,"componentType":5121,"count":280,"type":"VEC4"},{"bufferView":39,"componentType":5126,"count":280,"type":"VEC4"},{"bufferView":40,"componentType":5123,"count":360,"type":"SCALAR"},{"bufferView":41,"componentType":5126,"count":360,"max":[0.6520992517471313,3.27018141746521,1.1435993909835815],"min":[-0.6520992517471313,2.8585240840911865,0.7318673729896545],"type":"VEC3"},{"bufferView":42,"componentType":5126,"count":360,"type":"VEC3"},{"bufferView":43,"componentType":5126,"count":360,"type":"VEC2"},{"bufferView":44,"componentType":5126,"count":360,"type":"VEC2"},{"bufferView":45,"componentType":5126,"count":360,"type":"VEC2"},{"bufferView":46,"componentType":5121,"count":360,"type":"VEC4"},{"bufferView":47,"componentType":5126,"count":360,"type":"VEC4"},{"bufferView":48,"componentType":5123,"count":360,"type":"SCALAR"},{"bufferView":49,"componentType":5126,"count":1,"type":"MAT4"},{"bufferView":50,"componentType":5126,"count":2,"max":[1.25],"min":[0],"type":"SCALAR"},{"bufferView":51,"componentType":5126,"count":2,"type":"VEC3"},{"bufferView":52,"componentType":5126,"count":2,"type":"VEC4"},{"bufferView":53,"componentType":5126,"count":2,"type":"VEC3"},{"bufferView":54,"componentType":5126,"count":31,"max":[1.25],"min":[0],"type":"SCALAR"},{"bufferView":55,"componentType":5126,"count":31,"type":"VEC3"},{"bufferView":56,"componentType":5126,"count":2,"type":"VEC4"},{"bufferView":57,"componentType":5126,"count":2,"type":"VEC3"},{"bufferView":58,"componentType":5126,"count":31,"type":"VEC4"},{"bufferView":59,"componentType":5126,"count":2,"type":"VEC3"},{"bufferView":60,"componentType":5126,"count":2,"type":"VEC3"},{"bufferView":61,"componentType":5126,"count":2,"type":"VEC4"},{"bufferView":62,"componentType":5126,"count":2,"type":"VEC3"},{"bufferView":63,"componentType":5126,"count":2,"type":"VEC3"},{"bufferView":64,"componentType":5126,"count":31,"type":"VEC4"},{"bufferView":65,"componentType":5126,"count":2,"type":"VEC3"},{"bufferView":66,"componentType":5126,"count":2,"type":"VEC3"},{"bufferView":67,"componentType":5126,"count":31,"type":"VEC4"},{"bufferView":68,"componentType":5126,"count":2,"type":"VEC3"},{"bufferView":69,"componentType":5126,"count":2,"type":"VEC4"},{"bufferView":70,"componentType":5126,"count":2,"type":"VEC3"},{"bufferView":71,"componentType":5126,"count":2,"type":"VEC4"},{"bufferView":72,"componentType":5126,"count":2,"type":"VEC3"},{"bufferView":73,"componentType":5126,"count":2,"type":"VEC3"},{"bufferView":74,"componentType":5126,"count":31,"type":"VEC4"},{"bufferView":75,"componentType":5126,"count":2,"type":"VEC3"},{"bufferView":76,"componentType":5126,"count":2,"type":"VEC3"},{"bufferView":77,"componentType":5126,"count":31,"type":"VEC4"},{"bufferView":78,"componentType":5126,"count":2,"type":"VEC3"},{"bufferView":79,"componentType":5126,"count":2,"type":"VEC3"},{"bufferView":80,"componentType":5126,"count":31,"type":"VEC4"},{"bufferView":81,"componentType":5126,"count":2,"type":"VEC3"},{"bufferView":82,"componentType":5126,"count":2,"type":"VEC3"},{"bufferView":83,"componentType":5126,"count":31,"type":"VEC4"},{"bufferView":84,"componentType":5126,"count":2,"type":"VEC3"},{"bufferView":85,"componentType":5126,"count":2,"type":"VEC4"},{"bufferView":86,"componentType":5126,"count":2,"type":"VEC3"},{"bufferView":87,"componentType":5126,"count":31,"type":"VEC4"},{"bufferView":88,"componentType":5126,"count":2,"type":"VEC3"},{"bufferView":89,"componentType":5126,"count":2,"type":"VEC3"},{"bufferView":90,"componentType":5126,"count":31,"type":"VEC4"},{"bufferView":91,"componentType":5126,"count":2,"type":"VEC3"},{"bufferView":92,"componentType":5126,"count":2,"type":"VEC3"},{"bufferView":93,"componentType":5126,"count":31,"type":"VEC4"},{"bufferView":94,"componentType":5126,"count":2,"type":"VEC3"},{"bufferView":95,"componentType":5126,"count":2,"type":"VEC3"},{"bufferView":96,"componentType":5126,"count":31,"type":"VEC4"},{"bufferView":97,"componentType":5126,"count":2,"type":"VEC3"},{"bufferView":98,"componentType":5126,"count":2,"type":"VEC3"},{"bufferView":99,"componentType":5126,"count":2,"type":"VEC4"},{"bufferView":100,"componentType":5126,"count":2,"type":"VEC3"},{"bufferView":101,"componentType":5126,"count":2,"type":"VEC3"},{"bufferView":102,"componentType":5126,"count":2,"type":"VEC4"},{"bufferView":103,"componentType":5126,"count":2,"type":"VEC3"},{"bufferView":104,"componentType":5126,"count":2,"type":"VEC3"},{"bufferView":105,"componentType":5126,"count":31,"type":"VEC4"},{"bufferView":106,"componentType":5126,"count":2,"type":"VEC3"},{"bufferView":107,"componentType":5126,"count":2,"type":"VEC3"},{"bufferView":108,"componentType":5126,"count":2,"type":"VEC4"},{"bufferView":109,"componentType":5126,"count":2,"type":"VEC3"},{"bufferView":110,"componentType":5126,"count":2,"type":"VEC3"},{"bufferView":111,"componentType":5126,"count":2,"type":"VEC4"},{"bufferView":112,"componentType":5126,"count":2,"type":"VEC3"},{"bufferView":113,"componentType":5126,"count":2,"type":"VEC3"},{"bufferView":114,"componentType":5126,"count":31,"type":"VEC4"},{"bufferView":115,"componentType":5126,"count":2,"type":"VEC3"}],"bufferViews":[{"buffer":0,"byteLength":17232,"byteOffset":0,"target":34962},{"buffer":0,"byteLength":17232,"byteOffset":17232,"target":34962},{"buffer":0,"byteLength":11488,"byteOffset":34464,"target":34962},{"buffer":0,"byteLength":11488,"byteOffset":45952,"target":34962},{"buffer":0,"byteLength":11488,"byteOffset":57440,"target":34962},{"buffer":0,"byteLength":5744,"byteOffset":68928,"target":34962},{"buffer":0,"byteLength":22976,"byteOffset":74672,"target":34962},{"buffer":0,"byteLength":4140,"byteOffset":97648,"target":34963},{"buffer":0,"byteLength":2136,"byteOffset":101788,"target":34962},{"buffer":0,"byteLength":2136,"byteOffset":103924,"target":34962},{"buffer":0,"byteLength":1424,"byteOffset":106060,"target":34962},{"buffer":0,"byteLength":1424,"byteOffset":107484,"target":34962},{"buffer":0,"byteLength":1424,"byteOffset":108908,"target":34962},{"buffer":0,"byteLength":712,"byteOffset":110332,"target":34962},{"buffer":0,"byteLength":2848,"byteOffset":111044,"target":34962},{"buffer":0,"byteLength":492,"byteOffset":113892,"target":34963},{"buffer":0,"byteLength":432,"byteOffset":114384,"target":34962},{"buffer":0,"byteLength":432,"byteOffset":114816,"target":34962},{"buffer":0,"byteLength":288,"byteOffset":115248,"target":34962},{"buffer":0,"byteLength":288,"byteOffset":115536,"target":34962},{"buffer":0,"byteLength":288,"byteOffset":115824,"target":34962},{"buffer":0,"byteLength":144,"byteOffset":116112,"target":34962},{"buffer":0,"byteLength":576,"byteOffset":116256,"target":34962},{"buffer":0,"byteLength":96,"byteOffset":116832,"target":34963},{"buffer":0,"byteLength":456,"byteOffset":116928,"target":34962},{"buffer":0,"byteLength":456,"byteOffset":117384,"target":34962},{"buffer":0,"byteLength":304,"byteOffset":117840,"target":34962},{"buffer":0,"byteLength":304,"byteOffset":118144,"target":34962},{"buffer":0,"byteLength":304,"byteOffset":118448,"target":34962},{"buffer":0,"byteLength":152,"byteOffset":118752,"target":34962},{"buffer":0,"byteLength":608,"byteOffset":118904,"target":34962},{"buffer":0,"byteLength":108,"byteOffset":119512,"target":34963},{"buffer":0,"byteLength":1472,"byteOffset":119620},{"buffer":0,"byteLength":3360,"byteOffset":121092,"target":34962},{"buffer":0,"byteLength":3360,"byteOffset":124452,"target":34962},{"buffer":0,"byteLength":2240,"byteOffset":127812,"target":34962},{"buffer":0,"byteLength":2240,"byteOffset":130052,"target":34962},{"buffer":0,"byteLength":2240,"byteOffset":132292,"target":34962},{"buffer":0,"byteLength":1120,"byteOffset":134532,"target":34962},{"buffer":0,"byteLength":4480,"byteOffset":135652,"target":34962},{"buffer":0,"byteLength":720,"byteOffset":140132,"target":34963},{"buffer":0,"byteLength":4320,"byteOffset":140852,"target":34962},{"buffer":0,"byteLength":4320,"byteOffset":145172,"target":34962},{"buffer":0,"byteLength":2880,"byteOffset":149492,"target":34962},{"buffer":0,"byteLength":2880,"byteOffset":152372,"target":34962},{"buffer":0,"byteLength":2880,"byteOffset":155252,"target":34962},{"buffer":0,"byteLength":1440,"byteOffset":158132,"target":34962},{"buffer":0,"byteLength":5760,"byteOffset":159572,"target":34962},{"buffer":0,"byteLength":720,"byteOffset":165332,"target":34963},{"buffer":0,"byteLength":64,"byteOffset":166052},{"buffer":0,"byteLength":8,"byteOffset":166116},{"buffer":0,"byteLength":24,"byteOffset":166124},{"buffer":0,"byteLength":32,"byteOffset":166148},{"buffer":0,"byteLength":24,"byteOffset":166180},{"buffer":0,"byteLength":124,"byteOffset":166204},{"buffer":0,"byteLength":372,"byteOffset":166328},{"buffer":0,"byteLength":32,"byteOffset":166700},{"buffer":0,"byteLength":24,"byteOffset":166732},{"buffer":0,"byteLength":496,"byteOffset":166756},{"buffer":0,"byteLength":24,"byteOffset":167252},{"buffer":0,"byteLength":24,"byteOffset":167276},{"buffer":0,"byteLength":32,"byteOffset":167300},{"buffer":0,"byteLength":24,"byteOffset":167332},{"buffer":0,"byteLength":24,"byteOffset":167356},{"buffer":0,"byteLength":496,"byteOffset":167380},{"buffer":0,"byteLength":24,"byteOffset":167876},{"buffer":0,"byteLength":24,"byteOffset":167900},{"buffer":0,"byteLength":496,"byteOffset":167924},{"buffer":0,"byteLength":24,"byteOffset":168420},{"buffer":0,"byteLength":32,"byteOffset":168444},{"buffer":0,"byteLength":24,"byteOffset":168476},{"buffer":0,"byteLength":32,"byteOffset":168500},{"buffer":0,"byteLength":24,"byteOffset":168532},{"buffer":0,"byteLength":24,"byteOffset":168556},{"buffer":0,"byteLength":496,"byteOffset":168580},{"buffer":0,"byteLength":24,"byteOffset":169076},{"buffer":0,"byteLength":24,"byteOffset":169100},{"buffer":0,"byteLength":496,"byteOffset":169124},{"buffer":0,"byteLength":24,"byteOffset":169620},{"buffer":0,"byteLength":24,"byteOffset":169644},{"buffer":0,"byteLength":496,"byteOffset":169668},{"buffer":0,"byteLength":24,"byteOffset":170164},{"buffer":0,"byteLength":24,"byteOffset":170188},{"buffer":0,"byteLength":496,"byteOffset":170212},{"buffer":0,"byteLength":24,"byteOffset":170708},{"buffer":0,"byteLength":32,"byteOffset":170732},{"buffer":0,"byteLength":24,"byteOffset":170764},{"buffer":0,"byteLength":496,"byteOffset":170788},{"buffer":0,"byteLength":24,"byteOffset":171284},{"buffer":0,"byteLength":24,"byteOffset":171308},{"buffer":0,"byteLength":496,"byteOffset":171332},{"buffer":0,"byteLength":24,"byteOffset":171828},{"buffer":0,"byteLength":24,"byteOffset":171852},{"buffer":0,"byteLength":496,"byteOffset":171876},{"buffer":0,"byteLength":24,"byteOffset":172372},{"buffer":0,"byteLength":24,"byteOffset":172396},{"buffer":0,"byteLength":496,"byteOffset":172420},{"buffer":0,"byteLength":24,"byteOffset":172916},{"buffer":0,"byteLength":24,"byteOffset":172940},{"buffer":0,"byteLength":32,"byteOffset":172964},{"buffer":0,"byteLength":24,"byteOffset":172996},{"buffer":0,"byteLength":24,"byteOffset":173020},{"buffer":0,"byteLength":32,"byteOffset":173044},{"buffer":0,"byteLength":24,"byteOffset":173076},{"buffer":0,"byteLength":24,"byteOffset":173100},{"buffer":0,"byteLength":496,"byteOffset":173124},{"buffer":0,"byteLength":24,"byteOffset":173620},{"buffer":0,"byteLength":24,"byteOffset":173644},{"buffer":0,"byteLength":32,"byteOffset":173668},{"buffer":0,"byteLength":24,"byteOffset":173700},{"buffer":0,"byteLength":24,"byteOffset":173724},{"buffer":0,"byteLength":32,"byteOffset":173748},{"buffer":0,"byteLength":24,"byteOffset":173780},{"buffer":0,"byteLength":24,"byteOffset":173804},{"buffer":0,"byteLength":496,"byteOffset":173828},{"buffer":0,"byteLength":24,"byteOffset":174324}],"buffers":[{"byteLength":174348,"uri":"data:application/octet-stream;base64,"}]}