{"asset":{"generator":"Khronos glTF Blender I/O v4.5.51","version":"2.0"},"scene":0,"scenes":[{"name":"Scene","nodes":[28,31]}],"nodes":[{"name":"Nose","rotation":[-0.02660488523542881,-1.1694713748511276e-06,-1.039105024247533e-09,0.999646008014679],"translation":[1.5140244613576215e-10,0.5032331943511963,-7.781727617839351e-08]},{"children":[0],"name":"Face","rotation":[-0.42001956701278687,0.0026145668234676123,-0.0027063933666795492,0.9075072407722473],"scale":[1,0.9999999403953552,0.9999999403953552],"translation":[4.656612873077393e-10,0.3778027296066284,-9.954146662494168e-08]},{"children":[1],"name":"Head","rotation":[0.003699231194332242,0.9886171221733093,0.1504063904285431,0.0006869183271192014],"scale":[1,0.9999998211860657,0.9999999403953552],"translation":[1.3991904321633292e-14,0.2814042270183563,0]},{"children":[2],"name":"Neck","rotation":[-0.006825271062552929,-2.309231026341972e-14,1.6272749814305598e-09,0.9999766945838928],"scale":[1,0.9999999403953552,1.0000001192092896],"translation":[1.380445169524118e-14,1.1033220291137695,-2.9802322387695312e-08]},{"name":"Wing4.L","rotation":[-0.07571680098772049,0.30207595229148865,-0.08247774094343185,0.9466860890388489],"scale":[0.9999999403953552,0.9999999403953552,1],"translation":[-9.685754776000977e-08,0.6751954555511475,2.384185791015625e-07]},{"children":[4],"name":"Wing3.L","rotation":[-0.06150277331471443,0.30608683824539185,0.09453882277011871,0.9452992677688599],"scale":[1,1,1.0000001192092896],"translation":[-1.4901161193847656e-07,0.6208577156066895,-5.960464477539063e-08]},{"children":[5],"name":"Wing2.L","rotation":[0.039415739476680756,-0.08096974343061447,-0.07007083296775818,0.9934688806533813],"scale":[1,1,0.9999999403953552],"translation":[-1.1920928955078125e-07,0.4932166337966919,-1.2665987014770508e-07]},{"children":[6],"name":"Wing1.L","rotation":[-0.4289214611053467,-0.4371348023414612,0.07313930988311768,0.7871404886245728],"scale":[1,1,1.0000001192092896],"translation":[-3.259629011154175e-09,0.46790874004364014,-1.3969838619232178e-09]},{"children":[7],"name":"Shoulder.L","rotation":[-0.271897554397583,-0.05198288708925247,-0.11875829100608826,0.9535543918609619],"scale":[1,1,1.0000001192092896],"translation":[0.25251251459121704,0.4385828375816345,-0.08833950757980347]},{"name":"Wing4.R","rotation":[-0.09527535736560822,0.3839787542819977,0.05880667641758919,0.9165286421775818],"translation":[-4.470348358154297e-08,0.6751959919929504,2.086162567138672e-07]},{"children":[9],"name":"Wing3.R","rotation":[-0.11132293939590454,0.39745068550109863,0.01809370145201683,0.9106661081314087],"scale":[1,0.9999998807907104,0.9999998807907104],"translation":[2.086162567138672e-07,0.6208579540252686,5.960464477539063e-08]},{"children":[10],"name":"Wing2.R","rotation":[0.0672779306769371,-0.159565269947052,-0.04401356726884842,0.9839082360267639],"scale":[0.9999999403953552,1.0000001192092896,1],"translation":[-1.341104507446289e-07,0.4932168126106262,5.960464477539063e-08]},{"children":[11],"name":"Wing1.R","rotation":[-0.3675698935985565,-0.13911688327789307,0.2328421175479889,0.8895636200904846],"scale":[1.0000001192092896,0.9999999403953552,1],"translation":[-1.1594966053962708e-07,0.4679085910320282,0]},{"children":[12],"name":"Shoulder.R","rotation":[-0.26747986674308777,0.017873436212539673,0.128399059176445,0.9548029899597168],"scale":[1,0.9999999403953552,1],"translation":[-0.25637683272361755,0.4385828375816345,-0.08833937346935272]},{"children":[3,8,13],"name":"Body","rotation":[0.27487850189208984,-1.1461725080152974e-07,-3.2768081581480146e-08,0.9614789485931396],"translation":[-3.4125782186661445e-16,0.3110966682434082,-0.11580906808376312]},{"name":"Feet.L","rotation":[-0.09352944791316986,-0.12462044507265091,0.7274904251098633,0.6681913137435913],"scale":[0.9999998807907104,1,0.9999999403953552],"translation":[0,0.42139509320259094,1.1175870895385742e-08]},{"children":[15],"name":"LowerLeg.L","rotation":[-0.22127221524715424,0.7152044773101807,-0.42262154817581177,0.5107957124710083],"scale":[0.9999998807907104,0.9999998211860657,0.9999998211860657],"translation":[4.583853296935558e-08,0.3388347327709198,1.280568540096283e-08]},{"children":[16],"name":"UpperLeg.L","rotation":[-0.0008652614778839052,-0.042448461055755615,-0.9981847405433655,0.042715609073638916],"scale":[1.0000008344650269,1.0000001192092896,1.0000008344650269],"translation":[0.5236753821372986,0.14686667919158936,-0.007700215093791485]},{"name":"Feet.R","rotation":[-0.04914536699652672,-0.1150188222527504,0.731689453125,0.6700642108917236],"scale":[1,1,0.9999999403953552],"translation":[-6.705522537231445e-08,0.4207315742969513,4.0978193283081055e-08]},{"children":[18],"name":"LowerLeg.R","rotation":[-0.36585038900375366,0.6675618290901184,-0.3096601366996765,0.5697590112686157],"scale":[1,1.000000238418579,1.0000001192092896],"translation":[3.764397860095414e-08,0.34200069308280945,4.656612873077393e-10]},{"children":[19],"name":"UpperLeg.R","rotation":[0.003380300011485815,0.04184325039386749,0.9958750605583191,0.08043992519378662],"scale":[1.0000022649765015,1,1.0000005960464478],"translation":[-0.4991203844547272,0.14686667919158936,-0.007700215093791485]},{"name":"Tail4","rotation":[0.3928031623363495,-9.867102335192612e-07,-5.742454618484771e-07,0.9196226000785828],"translation":[2.0013146695418982e-10,0.6651486754417419,-3.16686659118659e-08]},{"children":[21],"name":"Tail3","rotation":[-3.135758319672277e-08,0.9096741676330566,-0.4153226315975189,2.8556169695548306e-07],"scale":[1,0.9999997019767761,1],"translation":[-2.6481927761778934e-11,0.5028786659240723,-9.05496335690259e-08]},{"children":[22],"name":"Tail2","rotation":[-0.49307167530059814,1.0371074665727065e-07,-5.877872766291148e-08,0.8699886798858643],"translation":[-4.656612873077393e-10,0.32151153683662415,2.9802322387695312e-08]},{"children":[23],"name":"Tail1","rotation":[-0.48918572068214417,1.0481010459512996e-22,-5.878559280182047e-23,0.8721796870231628],"translation":[-0.004792680498212576,0.3070376217365265,-0.2854866087436676]},{"children":[14,17,20,24],"name":"BodyRoot","rotation":[-0.0035738875158131123,-3.0408959262462213e-16,-3.040894602757241e-16,0.999993622303009],"scale":[1,0.9999999403953552,0.9999999403953552],"translation":[8.773297805303698e-16,1.279430627822876,0.00651070661842823]},{"children":[25],"name":"Root","rotation":[0.0035738733131438494,3.0408959262462213e-16,3.0408959262462213e-16,0.999993622303009],"scale":[1,0.9999999403953552,0.9999999403953552],"translation":[-1.7111162706901357e-16,-0.034989990293979645,0.003565147751942277]},{"mesh":0,"name":"Dragon","skin":0},{"children":[27,26],"name":"DragonArmature"},{"name":"Bone"},{"mesh":1,"name":"Eyes","skin":1},{"children":[30,29],"name":"EyeArmature","translation":[0,3.179861545562744,1.2039591073989868]}],"animations":[{"channels":[{"sampler":0,"target":{"node":26,"path":"translation"}},{"sampler":1,"target":{"node":26,"path":"rotation"}},{"sampler":2,"target":{"node":26,"path":"scale"}},{"sampler":3,"target":{"node":25,"path":"translation"}},{"sampler":4,"target":{"node":25,"path":"rotation"}},{"sampler":5,"target":{"node":25,"path":"scale"}},{"sampler":6,"target":{"node":14,"path":"translation"}},{"sampler":7,"target":{"node":14,"path":"rotation"}},{"sampler":8,"target":{"node":14,"path":"scale"}},{"sampler":9,"target":{"node":3,"path":"translation"}},{"sampler":10,"target":{"node":3,"path":"rotation"}},{"sampler":11,"target":{"node":3,"path":"scale"}},{"sampler":12,"target":{"node":2,"path":"translation"}},{"sampler":13,"target":{"node":2,"path":"rotation"}},{"sampler":14,"target":{"node":2,"path":"scale"}},{"sampler":15,"target":{"node":1,"path":"translation"}},{"sampler":16,"target":{"node":1,"path":"rotation"}},{"sampler":17,"target":{"node":1,"path":"scale"}},{"sampler":18,"target":{"node":0,"path":"translation"}},{"sampler":19,"target":{"node":0,"path":"rotation"}},{"sampler":20,"target":{"node":0,"path":"scale"}},{"sampler":21,"target":{"node":8,"path":"translation"}},{"sampler":22,"target":{"node":8,"path":"rotation"}},{"sampler":23,"target":{"node":8,"path":"scale"}},{"sampler":24,"target":{"node":7,"path":"translation"}},{"sampler":25,"target":{"node":7,"path":"rotation"}},{"sampler":26,"target":{"node":7,"path":"scale"}},{"sampler":27,"target":{"node":6,"path":"translation"}},{"sampler":28,"target":{"node":6,"path":"rotation"}},{"sampler":29,"target":{"node":6,"path":"scale"}},{"sampler":30,"target":{"node":5,"path":"translation"}},{"sampler":31,"target":{"node":5,"path":"rotation"}},{"sampler":32,"target":{"node":5,"path":"scale"}},{"sampler":33,"target":{"node":4,"path":"translation"}},{"sampler":34,"target":{"node":4,"path":"rotation"}},{"sampler":35,"target":{"node":4,"path":"scale"}},{"sampler":36,"target":{"node":13,"path":"translation"}},{"sampler":37,"target":{"node":13,"path":"rotation"}},{"sampler":38,"target":{"node":13,"path":"scale"}},{"sampler":39,"target":{"node":12,"path":"translation"}},{"sampler":40,"target":{"node":12,"path":"rotation"}},{"sampler":41,"target":{"node":12,"path":"scale"}},{"sampler":42,"target":{"node":11,"path":"translation"}},{"sampler":43,"target":{"node":11,"path":"rotation"}},{"sampler":44,"target":{"node":11,"path":"scale"}},{"sampler":45,"target":{"node":10,"path":"translation"}},{"sampler":46,"target":{"node":10,"path":"rotation"}},{"sampler":47,"target":{"node":10,"path":"scale"}},{"sampler":48,"target":{"node":9,"path":"translation"}},{"sampler":49,"target":{"node":9,"path":"rotation"}},{"sampler":50,"target":{"node":9,"path":"scale"}},{"sampler":51,"target":{"node":17,"path":"translation"}},{"sampler":52,"target":{"node":17,"path":"rotation"}},{"sampler":53,"target":{"node":17,"path":"scale"}},{"sampler":54,"target":{"node":16,"path":"translation"}},{"sampler":55,"target":{"node":16,"path":"rotation"}},{"sampler":56,"target":{"node":16,"path":"scale"}},{"sampler":57,"target":{"node":15,"path":"translation"}},{"sampler":58,"target":{"node":15,"path":"rotation"}},{"sampler":59,"target":{"node":15,"path":"scale"}},{"sampler":60,"target":{"node":20,"path":"translation"}},{"sampler":61,"target":{"node":20,"path":"rotation"}},{"sampler":62,"target":{"node":20,"path":"scale"}},{"sampler":63,"target":{"node":19,"path":"translation"}},{"sampler":64,"target":{"node":19,"path":"rotation"}},{"sampler":65,"target":{"node":19,"path":"scale"}},{"sampler":66,"target":{"node":18,"path":"translation"}},{"sampler":67,"target":{"node":18,"path":"rotation"}},{"sampler":68,"target":{"node":18,"path":"scale"}},{"sampler":69,"target":{"node":24,"path":"translation"}},{"sampler":70,"target":{"node":24,"path":"rotation"}},{"sampler":71,"target":{"node":24,"path":"scale"}},{"sampler":72,"target":{"node":23,"path":"translation"}},{"sampler":73,"target":{"node":23,"path":"rotation"}},{"sampler":74,"target":{"node":23,"path":"scale"}},{"sampler":75,"target":{"node":22,"path":"translation"}},{"sampler":76,"target":{"node":22,"path":"rotation"}},{"sampler":77,"target":{"node":22,"path":"scale"}},{"sampler":78,"target":{"node":21,"path":"translation"}},{"sampler":79,"target":{"node":21,"path":"rotation"}},{"sampler":80,"target":{"node":21,"path":"scale"}}],"name":"Dragon_Flying","samplers":[{"input":38,"interpolation":"STEP","output":39},{"input":38,"interpolation":"STEP","output":40},{"input":38,"interpolation":"STEP","output":41},{"input":42,"interpolation":"LINEAR","output":43},{"input":38,"interpolation":"STEP","output":44},{"input":38,"interpolation":"STEP","output":41},{"input":38,"interpolation":"STEP","output":45},{"input":42,"interpolation":"LINEAR","output":46},{"input":38,"interpolation":"STEP","output":47},{"input":38,"interpolation":"STEP","output":48},{"input":38,"interpolation":"STEP","output":49},{"input":38,"interpolation":"STEP","output":50},{"input":38,"interpolation":"STEP","output":51},{"input":42,"interpolation":"LINEAR","output":52},{"input":38,"interpolation":"STEP","output":53},{"input":38,"interpolation":"STEP","output":54},{"input":42,"interpolation":"LINEAR","output":55},{"input":38,"interpolation":"STEP","output":56},{"input":38,"interpolation":"STEP","output":57},{"input":38,"interpolation":"STEP","output":58},{"input":38,"interpolation":"STEP","output":50},{"input":38,"interpolation":"STEP","output":59},{"input":38,"interpolation":"STEP","output":60},{"input":38,"interpolation":"STEP","output":61},{"input":38,"interpolation":"STEP","output":62},{"input":42,"interpolation":"LINEAR","output":63},{"input":38,"interpolation":"STEP","output":47},{"input":38,"interpolation":"STEP","output":64},{"input":42,"interpolation":"LINEAR","output":65},{"input":38,"interpolation":"STEP","output":41},{"input":38,"interpolation":"STEP","output":66},{"input":42,"interpolation":"LINEAR","output":67},{"input":38,"interpolation":"STEP","output":50},{"input":38,"interpolation":"STEP","output":68},{"input":42,"interpolation":"LINEAR","output":69},{"input":38,"interpolation":"STEP","output":70},{"input":38,"interpolation":"STEP","output":71},{"input":38,"interpolation":"STEP","output":72},{"input":38,"interpolation":"STEP","output":50},{"input":38,"interpolation":"STEP","output":73},{"input":42,"interpolation":"LINEAR","output":74},{"input":38,"interpolation":"STEP","output":50},{"input":38,"interpolation":"STEP","output":75},{"input":42,"interpolation":"LINEAR","output":76},{"input":38,"interpolation":"STEP","output":77},{"input":38,"interpolation":"STEP","output":78},{"input":42,"interpolation":"LINEAR","output":79},{"input":38,"interpolation":"STEP","output":80},{"input":38,"interpolation":"STEP","output":81},{"input":42,"interpolation":"LINEAR","output":82},{"input":38,"interpolation":"STEP","output":56},{"input":38,"interpolation":"STEP","output":83},{"input":38,"interpolation":"STEP","output":84},{"input":38,"interpolation":"STEP","output":85},{"input":38,"interpolation":"STEP","output":86},{"input":38,"interpolation":"STEP","output":87},{"input":38,"interpolation":"STEP","output":88},{"input":38,"interpolation":"STEP","output":89},{"input":42,"interpolation":"LINEAR","output":90},{"input":38,"interpolation":"STEP","output":91},{"input":38,"interpolation":"STEP","output":92},{"input":38,"interpolation":"STEP","output":93},{"input":38,"interpolation":"STEP","output":94},{"input":38,"interpolation":"STEP","output":95},{"input":38,"interpolation":"STEP","output":96},{"input":38,"interpolation":"STEP","output":77},{"input":38,"interpolation":"STEP","output":97},{"input":42,"interpolation":"LINEAR","output":98},{"input":38,"interpolation":"STEP","output":99},{"input":38,"interpolation":"STEP","output":100},{"input":38,"interpolation":"STEP","output":101},{"input":38,"interpolation":"STEP","output":47},{"input":38,"interpolation":"STEP","output":102},{"input":42,"interpolation":"LINEAR","output":103},{"input":38,"interpolation":"STEP","output":104},{"input":38,"interpolation":"STEP","output":105},{"input":42,"interpolation":"LINEAR","output":106},{"input":38,"interpolation":"STEP","output":107},{"input":38,"interpolation":"STEP","output":108},{"input":38,"interpolation":"STEP","output":109},{"input":38,"interpolation":"STEP","output":47}]},{"channels":[{"sampler":0,"target":{"node":26,"path":"translation"}},{"sampler":1,"target":{"node":26,"path":"rotation"}},{"sampler":2,"target":{"node":26,"path":"scale"}},{"sampler":3,"target":{"node":25,"path":"translation"}},{"sampler":4,"target":{"node":25,"path":"rotation"}},{"sampler":5,"target":{"node":25,"path":"scale"}},{"sampler":6,"target":{"node":14,"path":"translation"}},{"sampler":7,"target":{"node":14,"path":"rotation"}},{"sampler":8,"target":{"node":14,"path":"scale"}},{"sampler":9,"target":{"node":3,"path":"translation"}},{"sampler":10,"target":{"node":3,"path":"rotation"}},{"sampler":11,"target":{"node":3,"path":"scale"}},{"sampler":12,"target":{"node":2,"path":"translation"}},{"sampler":13,"target":{"node":2,"path":"rotation"}},{"sampler":14,"target":{"node":2,"path":"scale"}},{"sampler":15,"target":{"node":1,"path":"translation"}},{"sampler":16,"target":{"node":1,"path":"rotation"}},{"sampler":17,"target":{"node":1,"path":"scale"}},{"sampler":18,"target":{"node":0,"path":"translation"}},{"sampler":19,"target":{"node":0,"path":"rotation"}},{"sampler":20,"target":{"node":0,"path":"scale"}},{"sampler":21,"target":{"node":8,"path":"translation"}},{"sampler":22,"target":{"node":8,"path":"rotation"}},{"sampler":23,"target":{"node":8,"path":"scale"}},{"sampler":24,"target":{"node":7,"path":"translation"}},{"sampler":25,"target":{"node":7,"path":"rotation"}},{"sampler":26,"target":{"node":7,"path":"scale"}},{"sampler":27,"target":{"node":6,"path":"translation"}},{"sampler":28,"target":{"node":6,"path":"rotation"}},{"sampler":29,"target":{"node":6,"path":"scale"}},{"sampler":30,"target":{"node":5,"path":"translation"}},{"sampler":31,"target":{"node":5,"path":"rotation"}},{"sampler":32,"target":{"node":5,"path":"scale"}},{"sampler":33,"target":{"node":4,"path":"translation"}},{"sampler":34,"target":{"node":4,"path":"rotation"}},{"sampler":35,"target":{"node":4,"path":"scale"}},{"sampler":36,"target":{"node":13,"path":"translation"}},{"sampler":37,"target":{"node":13,"path":"rotation"}},{"sampler":38,"target":{"node":13,"path":"scale"}},{"sampler":39,"target":{"node":12,"path":"translation"}},{"sampler":40,"target":{"node":12,"path":"rotation"}},{"sampler":41,"target":{"node":12,"path":"scale"}},{"sampler":42,"target":{"node":11,"path":"translation"}},{"sampler":43,"target":{"node":11,"path":"rotation"}},{"sampler":44,"target":{"node":11,"path":"scale"}},{"sampler":45,"target":{"node":10,"path":"translation"}},{"sampler":46,"target":{"node":10,"path":"rotation"}},{"sampler":47,"target":{"node":10,"path":"scale"}},{"sampler":48,"target":{"node":9,"path":"translation"}},{"sampler":49,"target":{"node":9,"path":"rotation"}},{"sampler":50,"target":{"node":9,"path":"scale"}},{"sampler":51,"target":{"node":17,"path":"translation"}},{"sampler":52,"target":{"node":17,"path":"rotation"}},{"sampler":53,"target":{"node":17,"path":"scale"}},{"sampler":54,"target":{"node":16,"path":"translation"}},{"sampler":55,"target":{"node":16,"path":"rotation"}},{"sampler":56,"target":{"node":16,"path":"scale"}},{"sampler":57,"target":{"node":15,"path":"translation"}},{"sampler":58,"target":{"node":15,"path":"rotation"}},{"sampler":59,"target":{"node":15,"path":"scale"}},{"sampler":60,"target":{"node":20,"path":"translation"}},{"sampler":61,"target":{"node":20,"path":"rotation"}},{"sampler":62,"target":{"node":20,"path":"scale"}},{"sampler":63,"target":{"node":19,"path":"translation"}},{"sampler":64,"target":{"node":19,"path":"rotation"}},{"sampler":65,"target":{"node":19,"path":"scale"}},{"sampler":66,"target":{"node":18,"path":"translation"}},{"sampler":67,"target":{"node":18,"path":"rotation"}},{"sampler":68,"target":{"node":18,"path":"scale"}},{"sampler":69,"target":{"node":24,"path":"translation"}},{"sampler":70,"target":{"node":24,"path":"rotation"}},{"sampler":71,"target":{"node":24,"path":"scale"}},{"sampler":72,"target":{"node":23,"path":"translation"}},{"sampler":73,"target":{"node":23,"path":"rotation"}},{"sampler":74,"target":{"node":23,"path":"scale"}},{"sampler":75,"target":{"node":22,"path":"translation"}},{"sampler":76,"target":{"node":22,"path":"rotation"}},{"sampler":77,"target":{"node":22,"path":"scale"}},{"sampler":78,"target":{"node":21,"path":"translation"}},{"sampler":79,"target":{"node":21,"path":"rotation"}},{"sampler":80,"target":{"node":21,"path":"scale"}}],"name":"Dragon_Hit","samplers":[{"input":38,"interpolation":"STEP","output":39},{"input":38,"interpolation":"STEP","output":40},{"input":38,"interpolation":"STEP","output":41},{"input":42,"interpolation":"LINEAR","output":43},{"input":38,"interpolation":"STEP","output":44},{"input":38,"interpolation":"STEP","output":41},{"input":42,"interpolation":"LINEAR","output":110},{"input":42,"interpolation":"LINEAR","output":111},{"input":38,"interpolation":"STEP","output":47},{"input":38,"interpolation":"STEP","output":48},{"input":42,"interpolation":"LINEAR","output":112},{"input":38,"interpolation":"STEP","output":50},{"input":38,"interpolation":"STEP","output":51},{"input":42,"interpolation":"LINEAR","output":113},{"input":38,"interpolation":"STEP","output":53},{"input":38,"interpolation":"STEP","output":54},{"input":42,"interpolation":"LINEAR","output":114},{"input":38,"interpolation":"STEP","output":56},{"input":38,"interpolation":"STEP","output":57},{"input":38,"interpolation":"STEP","output":58},{"input":38,"interpolation":"STEP","output":50},{"input":38,"interpolation":"STEP","output":59},{"input":38,"interpolation":"STEP","output":60},{"input":38,"interpolation":"STEP","output":61},{"input":38,"interpolation":"STEP","output":62},{"input":42,"interpolation":"LINEAR","output":115},{"input":38,"interpolation":"STEP","output":47},{"input":38,"interpolation":"STEP","output":64},{"input":42,"interpolation":"LINEAR","output":116},{"input":38,"interpolation":"STEP","output":41},{"input":38,"interpolation":"STEP","output":66},{"input":42,"interpolation":"LINEAR","output":117},{"input":38,"interpolation":"STEP","output":50},{"input":38,"interpolation":"STEP","output":68},{"input":42,"interpolation":"LINEAR","output":118},{"input":38,"interpolation":"STEP","output":70},{"input":38,"interpolation":"STEP","output":71},{"input":38,"interpolation":"STEP","output":72},{"input":38,"interpolation":"STEP","output":50},{"input":38,"interpolation":"STEP","output":73},{"input":42,"interpolation":"LINEAR","output":119},{"input":38,"interpolation":"STEP","output":50},{"input":38,"interpolation":"STEP","output":75},{"input":42,"interpolation":"LINEAR","output":120},{"input":38,"interpolation":"STEP","output":77},{"input":38,"interpolation":"STEP","output":78},{"input":42,"interpolation":"LINEAR","output":121},{"input":38,"interpolation":"STEP","output":80},{"input":38,"interpolation":"STEP","output":81},{"input":42,"interpolation":"LINEAR","output":122},{"input":38,"interpolation":"STEP","output":56},{"input":42,"interpolation":"LINEAR","output":123},{"input":42,"interpolation":"LINEAR","output":124},{"input":38,"interpolation":"STEP","output":85},{"input":38,"interpolation":"STEP","output":86},{"input":38,"interpolation":"STEP","output":87},{"input":38,"interpolation":"STEP","output":88},{"input":38,"interpolation":"STEP","output":89},{"input":42,"interpolation":"LINEAR","output":125},{"input":38,"interpolation":"STEP","output":91},{"input":42,"interpolation":"LINEAR","output":126},{"input":42,"interpolation":"LINEAR","output":127},{"input":38,"interpolation":"STEP","output":94},{"input":38,"interpolation":"STEP","output":95},{"input":38,"interpolation":"STEP","output":96},{"input":38,"interpolation":"STEP","output":77},{"input":38,"interpolation":"STEP","output":97},{"input":42,"interpolation":"LINEAR","output":128},{"input":38,"interpolation":"STEP","output":99},{"input":38,"interpolation":"STEP","output":100},{"input":38,"interpolation":"STEP","output":101},{"input":38,"interpolation":"STEP","output":47},{"input":38,"interpolation":"STEP","output":102},{"input":42,"interpolation":"LINEAR","output":103},{"input":38,"interpolation":"STEP","output":104},{"input":38,"interpolation":"STEP","output":105},{"input":42,"interpolation":"LINEAR","output":129},{"input":38,"interpolation":"STEP","output":107},{"input":38,"interpolation":"STEP","output":108},{"input":38,"interpolation":"STEP","output":109},{"input":38,"interpolation":"STEP","output":47}]}],"materials":[{"doubleSided":true,"name":"Main","pbrMetallicRoughness":{"baseColorFactor":[0.04970657452940941,0.011612245813012123,0.014443841762840748,1],"metallicFactor":0,"roughnessFactor":0.8500000238418579}},{"doubleSided":true,"name":"Wings","pbrMetallicRoughness":{"baseColorFactor":[0.013410413637757301,0.013410413637757301,0.013410413637757301,1],"metallicFactor":0,"roughnessFactor":0.8500000238418579}},{"doubleSided":true,"name":"Belly","pbrMetallicRoughness":{"baseColorFactor":[0.32637572288513184,0.2261408418416977,0.023456988856196404,1],"metallicFactor":0,"roughnessFactor":0.8500000238418579}},{"doubleSided":true,"name":"Claws","pbrMetallicRoughness":{"baseColorFactor":[0.009018179029226303,0.009018179029226303,0.009018179029226303,1],"metallicFactor":0,"roughnessFactor":0.8500000238418579}},{"doubleSided":true,"name":"Eyes","pbrMetallicRoughness":{"baseColorFactor":[0.013410413637757301,0.013410413637757301,0.013410413637757301,1],"metallicFactor":0,"roughnessFactor":0.8500000238418579}}],"meshes":[{"name":"Cylinder","primitives":[{"attributes":{"POSITION":0,"NORMAL":1,"TEXCOORD_0":2,"JOINTS_0":3,"WEIGHTS_0":4},"indices":5,"material":0},{"attributes":{"POSITION":6,"NORMAL":7,"TEXCOORD_0":8,"JOINTS_0":9,"WEIGHTS_0":10},"indices":11,"material":1},{"attributes":{"POSITION":12,"NORMAL":13,"TEXCOORD_0":14,"JOINTS_0":15,"WEIGHTS_0":16},"indices":17,"material":2},{"attributes":{"POSITION":18,"NORMAL":19,"TEXCOORD_0":20,"JOINTS_0":21,"WEIGHTS_0":22},"indices":23,"material":3}]},{"name":"Cylinder.001","primitives":[{"attributes":{"POSITION":25,"NORMAL":26,"TEXCOORD_0":27,"JOINTS_0":28,"WEIGHTS_0":29},"indices":30,"material":0},{"attributes":{"POSITION":31,"NORMAL":32,"TEXCOORD_0":33,"JOINTS_0":34,"WEIGHTS_0":35},"indices":36,"material":4}]}],"skins":[{"inverseBindMatrices":24,"joints":[26,25,14,3,2,1,0,8,7,6,5,4,13,12,11,10,9,17,16,15,20,19,18,24,23,22,21],"name":"DragonArmature"},{"inverseBindMatrices":37,"joints":[29],"name":"EyeArmature"}],"accessors":[{"bufferView":0,"componentType":5126,"count":1636,"max":[1.7048425674438477,3.982264280319214,1.8113458156585693],"min":[-1.7048425674438477,0.262825608253479,-1.9001258611679077],"type":"VEC3"},{"bufferView":1,"componentType":5126,"count":1636,"type":"VEC3"},{"bufferView":2,"componentType":5126,"count":1636,"type":"VEC2"},{"bufferView":3,"componentType":5121,"count":1636,"type":"VEC4"},{"bufferView":4,"componentType":5126,"count":1636,"type":"VEC4"},{"bufferView":5,"componentType":5123,"count":2412,"type":"SCALAR"},{"bufferView":6,"componentType":5126,"count":218,"max":[1.6632330417633057,3.982264280319214,0.04712633788585663],"min":[-1.6632330417633057,2.0690181255340576,-1.9001258611679077],"type":"VEC3"},{"bufferView":7,"componentType":5126,"count":218,"type":"VEC3"},{"bufferView":8,"componentType":5126,"count":218,"type":"VEC2"},{"bufferView":9,"componentType":5121,"count":218,"type":"VEC4"},{"bufferView":10,"componentType":5126,"count":218,"type":"VEC4"},{"bufferView":11,"componentType":5123,"count":306,"type":"SCALAR"},{"bufferView":12,"componentType":5126,"count":32,"max":[0.40271952748298645,2.6453938484191895,0.8613242506980896],"min":[-0.40271952748298645,1.4221640825271606,0.5262176394462585],"type":"VEC3"},{"bufferView":13,"componentType":5126,"count":32,"type":"VEC3"},{"bufferView":14,"componentType":5126,"count":32,"type":"VEC2"},{"bufferView":15,"componentType":5121,"count":32,"type":"VEC4"},{"bufferView":16,"componentType":5126,"count":32,"type":"VEC4"},{"bufferView":17,"componentType":5123,"count":48,"type":"SCALAR"},{"bufferView":18,"componentType":5126,"count":410,"max":[0.6558294296264648,3.03350830078125,1.7198327779769897],"min":[-0.6558294296264648,0.1298896074295044,-0.011032834649085999],"type":"VEC3"},{"bufferView":19,"componentType":5126,"count":410,"type":"VEC3"},{"bufferView":20,"componentType":5126,"count":410,"type":"VEC2"},{"bufferView":21,"componentType":5121,"count":410,"type":"VEC4"},{"bufferView":22,"componentType":5126,"count":410,"type":"VEC4"},{"bufferView":23,"componentType":5123,"count":546,"type":"SCALAR"},{"bufferView":24,"componentType":5126,"count":27,"type":"MAT4"},{"bufferView":25,"componentType":5126,"count":280,"max":[0.47644591331481934,3.321826934814453,1.2596039772033691],"min":[-0.47644585371017456,3.1393792629241943,1.0662071704864502],"type":"VEC3"},{"bufferView":26,"componentType":5126,"count":280,"type":"VEC3"},{"bufferView":27,"componentType":5126,"count":280,"type":"VEC2"},{"bufferView":28,"componentType":5121,"count":280,"type":"VEC4"},{"bufferView":29,"componentType":5126,"count":280,"type":"VEC4"},{"bufferView":30,"componentType":5123,"count":360,"type":"SCALAR"},{"bufferView":31,"componentType":5126,"count":360,"max":[0.4765642583370209,3.2896108627319336,1.3417112827301025],"min":[-0.4765641987323761,3.037896156311035,1.089950680732727],"type":"VEC3"},{"bufferView":32,"componentType":5126,"count":360,"type":"VEC3"},{"bufferView":33,"componentType":5126,"count":360,"type":"VEC2"},{"bufferView":34,"componentType":5121,"count":360,"type":"VEC4"},{"bufferView":35,"componentType":5126,"count":360,"type":"VEC4"},{"bufferView":36,"componentType":5123,"count":360,"type":"SCALAR"},{"bufferView":37,"componentType":5126,"count":1,"type":"MAT4"},{"bufferView":38,"componentType":5126,"count":2,"max":[1.6666666666666667],"min":[0],"type":"SCALAR"},{"bufferView":39,"componentType":5126,"count":2,"type":"VEC3"},{"bufferView":40,"componentType":5126,"count":2,"type":"VEC4"},{"bufferView":41,"componentType":5126,"count":2,"type":"VEC3"},{"bufferView":42,"componentType":5126,"count":41,"max":[1.6666666666666667],"min":[0],"type":"SCALAR"},{"bufferView":43,"componentType":5126,"count":41,"type":"VEC3"},{"bufferView":44,"componentType":5126,"count":2,"type":"VEC4"},{"bufferView":45,"componentType":5126,"count":2,"type":"VEC3"},{"bufferView":46,"componentType":5126,"count":41,"type":"VEC4"},{"bufferView":47,"componentType":5126,"count":2,"type":"VEC3"},{"bufferView":48,"componentType":5126,"count":2,"type":"VEC3"},{"bufferView":49,"componentType":5126,"count":2,"type":"VEC4"},{"bufferView":50,"componentType":5126,"count":2,"type":"VEC3"},{"bufferView":51,"componentType":5126,"count":2,"type":"VEC3"},{"bufferView":52,"componentType":5126,"count":41,"type":"VEC4"},{"bufferView":53,"componentType":5126,"count":2,"type":"VEC3"},{"bufferView":54,"componentType":5126,"count":2,"type":"VEC3"},{"bufferView":55,"componentType":5126,"count":41,"type":"VEC4"},{"bufferView":56,"componentType":5126,"count":2,"type":"VEC3"},{"bufferView":57,"componentType":5126,"count":2,"type":"VEC3"},{"bufferView":58,"componentType":5126,"count":2,"type":"VEC4"},{"bufferView":59,"componentType":5126,"count":2,"type":"VEC3"},{"bufferView":60,"componentType":5126,"count":2,"type":"VEC4"},{"bufferView":61,"componentType":5126,"count":2,"type":"VEC3"},{"bufferView":62,"componentType":5126,"count":2,"type":"VEC3"},{"bufferView":63,"componentType":5126,"count":41,"type":"VEC4"},{"bufferView":64,"componentType":5126,"count":2,"type":"VEC3"},{"bufferView":65,"componentType":5126,"count":41,"type":"VEC4"},{"bufferView":66,"componentType":5126,"count":2,"type":"VEC3"},{"bufferView":67,"componentType":5126,"count":41,"type":"VEC4"},{"bufferView":68,"componentType":5126,"count":2,"type":"VEC3"},{"bufferView":69,"componentType":5126,"count":41,"type":"VEC4"},{"bufferView":70,"componentType":5126,"count":2,"type":"VEC3"},{"bufferView":71,"componentType":5126,"count":2,"type":"VEC3"},{"bufferView":72,"componentType":5126,"count":2,"type":"VEC4"},{"bufferView":73,"componentType":5126,"count":2,"type":"VEC3"},{"bufferView":74,"componentType":5126,"count":41,"type":"VEC4"},{"bufferView":75,"componentType":5126,"count":2,"type":"VEC3"},{"bufferView":76,"componentType":5126,"count":41,"type":"VEC4"},{"bufferView":77,"componentType":5126,"count":2,"type":"VEC3"},{"bufferView":78,"componentType":5126,"count":2,"type":"VEC3"},{"bufferView":79,"componentType":5126,"count":41,"type":"VEC4"},{"bufferView":80,"componentType":5126,"count":2,"type":"VEC3"},{"bufferView":81,"componentType":5126,"count":2,"type":"VEC3"},{"bufferView":82,"componentType":5126,"count":41,"type":"VEC4"},{"bufferView":83,"componentType":5126,"count":2,"type":"VEC3"},{"bufferView":84,"componentType":5126,"count":2,"type":"VEC4"},{"bufferView":85,"componentType":5126,"count":2,"type":"VEC3"},{"bufferView":86,"componentType":5126,"count":2,"type":"VEC3"},{"bufferView":87,"componentType":5126,"count":2,"type":"VEC4"},{"bufferView":88,"componentType":5126,"count":2,"type":"VEC3"},{"bufferView":89,"componentType":5126,"count":2,"type":"VEC3"},{"bufferView":90,"componentType":5126,"count":41,"type":"VEC4"},{"bufferView":91,"componentType":5126,"count":2,"type":"VEC3"},{"bufferView":92,"componentType":5126,"count":2,"type":"VEC3"},{"bufferView":93,"componentType":5126,"count":2,"type":"VEC4"},{"bufferView":94,"componentType":5126,"count":2,"type":"VEC3"},{"bufferView":95,"componentType":5126,"count":2,"type":"VEC3"},{"bufferView":96,"componentType":5126,"count":2,"type":"VEC4"},{"bufferView":97,"componentType":5126,"count":2,"type":"VEC3"},{"bufferView":98,"componentType":5126,"count":41,"type":"VEC4"},{"bufferView":99,"componentType":5126,"count":2,"type":"VEC3"},{"bufferView":100,"componentType":5126,"count":2,"type":"VEC3"},{"bufferView":101,"componentType":5126,"count":2,"type":"VEC4"},{"bufferView":102,"componentType":5126,"count":2,"type":"VEC3"},{"bufferView":103,"componentType":5126,"count":41,"type":"VEC4"},{"bufferView":104,"componentType":5126,"count":2,"type":"VEC3"},{"bufferView":105,"componentType":5126,"count":2,"type":"VEC3"},{"bufferView":106,"componentType":5126,"count":41,"type":"VEC4"},{"bufferView":107,"componentType":5126,"count":2,"type":"VEC3"},{"bufferView":108,"componentType":5126,"count":2,"type":"VEC3"},{"bufferView":109,"componentType":5126,"count":2,"type":"VEC4"},{"bufferView":110,"componentType":5126,"count":41,"type":"VEC3"},{"bufferView":111,"componentType":5126,"count":41,"type":"VEC4"},{"bufferView":112,"componentType":5126,"count":41,"type":"VEC4"},{"bufferView":113,"componentType":5126,"count":41,"type":"VEC4"},{"bufferView":114,"componentType":5126,"count":41,"type":"VEC4"},{"bufferView":115,"componentType":5126,"count":41,"type":"VEC4"},{"bufferView":116,"componentType":5126,"count":41,"type":"VEC4"},{"bufferView":117,"componentType":5126,"count":41,"type":"VEC4"},{"bufferView":118,"componentType":5126,"count":41,"type":"VEC4"},{"bufferView":119,"componentType":5126,"count":41,"type":"VEC4"},{"bufferView":120,"componentType":5126,"count":41,"type":"VEC4"},{"bufferView":121,"componentType":5126,"count":41,"type":"VEC4"},{"bufferView":122,"componentType":5126,"count":41,"type":"VEC4"},{"bufferView":123,"componentType":5126,"count":41,"type":"VEC3"},{"bufferView":124,"componentType":5126,"count":41,"type":"VEC4"},{"bufferView":125,"componentType":5126,"count":41,"type":"VEC4"},{"bufferView":126,"componentType":5126,"count":41,"type":"VEC3"},{"bufferView":127,"componentType":5126,"count":41,"type":"VEC4"},{"bufferView":128,"componentType":5126,"count":41,"type":"VEC4"},{"bufferView":129,"componentType":5126,"count":41,"type":"VEC4"}],"bufferViews":[{"buffer":0,"byteLength":19632,"byteOffset":0,"target":34962},{"buffer":0,"byteLength":19632,"byteOffset":19632,"target":34962},{"buffer":0,"byteLength":13088,"byteOffset":39264,"target":34962},{"buffer":0,"byteLength":6544,"byteOffset":52352,"target":34962},{"buffer":0,"byteLength":26176,"byteOffset":58896,"target":34962},{"buffer":0,"byteLength":4824,"byteOffset":85072,"target":34963},{"buffer":0,"byteLength":2616,"byteOffset":89896,"target":34962},{"buffer":0,"byteLength":2616,"byteOffset":92512,"target":34962},{"buffer":0,"byteLength":1744,"byteOffset":95128,"target":34962},{"buffer":0,"byteLength":872,"byteOffset":96872,"target":34962},{"buffer":0,"byteLength":3488,"byteOffset":97744,"target":34962},{"buffer":0,"byteLength":612,"byteOffset":101232,"target":34963},{"buffer":0,"byteLength":384,"byteOffset":101844,"target":34962},{"buffer":0,"byteLength":384,"byteOffset":102228,"target":34962},{"buffer":0,"byteLength":256,"byteOffset":102612,"target":34962},{"buffer":0,"byteLength":128,"byteOffset":102868,"target":34962},{"buffer":0,"byteLength":512,"byteOffset":102996,"target":34962},{"buffer":0,"byteLength":96,"byteOffset":103508,"target":34963},{"buffer":0,"byteLength":4920,"byteOffset":103604,"target":34962},{"buffer":0,"byteLength":4920,"byteOffset":108524,"target":34962},{"buffer":0,"byteLength":3280,"byteOffset":113444,"target":34962},{"buffer":0,"byteLength":1640,"byteOffset":116724,"target":34962},{"buffer":0,"byteLength":6560,"byteOffset":118364,"target":34962},{"buffer":0,"byteLength":1092,"byteOffset":124924,"target":34963},{"buffer":0,"byteLength":1728,"byteOffset":126016},{"buffer":0,"byteLength":3360,"byteOffset":127744,"target":34962},{"buffer":0,"byteLength":3360,"byteOffset":131104,"target":34962},{"buffer":0,"byteLength":2240,"byteOffset":134464,"target":34962},{"buffer":0,"byteLength":1120,"byteOffset":136704,"target":34962},{"buffer":0,"byteLength":4480,"byteOffset":137824,"target":34962},{"buffer":0,"byteLength":720,"byteOffset":142304,"target":34963},{"buffer":0,"byteLength":4320,"byteOffset":143024,"target":34962},{"buffer":0,"byteLength":4320,"byteOffset":147344,"target":34962},{"buffer":0,"byteLength":2880,"byteOffset":151664,"target":34962},{"buffer":0,"byteLength":1440,"byteOffset":154544,"target":34962},{"buffer":0,"byteLength":5760,"byteOffset":155984,"target":34962},{"buffer":0,"byteLength":720,"byteOffset":161744,"target":34963},{"buffer":0,"byteLength":64,"byteOffset":162464},{"buffer":0,"byteLength":8,"byteOffset":162528},{"buffer":0,"byteLength":24,"byteOffset":162536},{"buffer":0,"byteLength":32,"byteOffset":162560},{"buffer":0,"byteLength":24,"byteOffset":162592},{"buffer":0,"byteLength":164,"byteOffset":162616},{"buffer":0,"byteLength":492,"byteOffset":162780},{"buffer":0,"byteLength":32,"byteOffset":163272},{"buffer":0,"byteLength":24,"byteOffset":163304},{"buffer":0,"byteLength":656,"byteOffset":163328},{"buffer":0,"byteLength":24,"byteOffset":163984},{"buffer":0,"byteLength":24,"byteOffset":164008},{"buffer":0,"byteLength":32,"byteOffset":164032},{"buffer":0,"byteLength":24,"byteOffset":164064},{"buffer":0,"byteLength":24,"byteOffset":164088},{"buffer":0,"byteLength":656,"byteOffset":164112},{"buffer":0,"byteLength":24,"byteOffset":164768},{"buffer":0,"byteLength":24,"byteOffset":164792},{"buffer":0,"byteLength":656,"byteOffset":164816},{"buffer":0,"byteLength":24,"byteOffset":165472},{"buffer":0,"byteLength":24,"byteOffset":165496},{"buffer":0,"byteLength":32,"byteOffset":165520},{"buffer":0,"byteLength":24,"byteOffset":165552},{"buffer":0,"byteLength":32,"byteOffset":165576},{"buffer":0,"byteLength":24,"byteOffset":165608},{"buffer":0,"byteLength":24,"byteOffset":165632},{"buffer":0,"byteLength":656,"byteOffset":165656},{"buffer":0,"byteLength":24,"byteOffset":166312},{"buffer":0,"byteLength":656,"byteOffset":166336},{"buffer":0,"byteLength":24,"byteOffset":166992},{"buffer":0,"byteLength":656,"byteOffset":167016},{"buffer":0,"byteLength":24,"byteOffset":167672},{"buffer":0,"byteLength":656,"byteOffset":167696},{"buffer":0,"byteLength":24,"byteOffset":168352},{"buffer":0,"byteLength":24,"byteOffset":168376},{"buffer":0,"byteLength":32,"byteOffset":168400},{"buffer":0,"byteLength":24,"byteOffset":168432},{"buffer":0,"byteLength":656,"byteOffset":168456},{"buffer":0,"byteLength":24,"byteOffset":169112},{"buffer":0,"byteLength":656,"byteOffset":169136},{"buffer":0,"byteLength":24,"byteOffset":169792},{"buffer":0,"byteLength":24,"byteOffset":169816},{"buffer":0,"byteLength":656,"byteOffset":169840},{"buffer":0,"byteLength":24,"byteOffset":170496},{"buffer":0,"byteLength":24,"byteOffset":170520},{"buffer":0,"byteLength":656,"byteOffset":170544},{"buffer":0,"byteLength":24,"byteOffset":171200},{"buffer":0,"byteLength":32,"byteOffset":171224},{"buffer":0,"byteLength":24,"byteOffset":171256},{"buffer":0,"byteLength":24,"byteOffset":171280},{"buffer":0,"byteLength":32,"byteOffset":171304},{"buffer":0,"byteLength":24,"byteOffset":171336},{"buffer":0,"byteLength":24,"byteOffset":171360},{"buffer":0,"byteLength":656,"byteOffset":171384},{"buffer":0,"byteLength":24,"byteOffset":172040},{"buffer":0,"byteLength":24,"byteOffset":172064},{"buffer":0,"byteLength":32,"byteOffset":172088},{"buffer":0,"byteLength":24,"byteOffset":172120},{"buffer":0,"byteLength":24,"byteOffset":172144},{"buffer":0,"byteLength":32,"byteOffset":172168},{"buffer":0,"byteLength":24,"byteOffset":172200},{"buffer":0,"byteLength":656,"byteOffset":172224},{"buffer":0,"byteLength":24,"byteOffset":172880},{"buffer":0,"byteLength":24,"byteOffset":172904},{"buffer":0,"byteLength":32,"byteOffset":172928},{"buffer":0,"byteLength":24,"byteOffset":172960},{"buffer":0,"byteLength":656,"byteOffset":172984},{"buffer":0,"byteLength":24,"byteOffset":173640},{"buffer":0,"byteLength":24,"byteOffset":173664},{"buffer":0,"byteLength":656,"byteOffset":173688},{"buffer":0,"byteLength":24,"byteOffset":174344},{"buffer":0,"byteLength":24,"byteOffset":174368},{"buffer":0,"byteLength":32,"byteOffset":174392},{"buffer":0,"byteLength":492,"byteOffset":174424},{"buffer":0,"byteLength":656,"byteOffset":174916},{"buffer":0,"byteLength":656,"byteOffset":175572},{"buffer":0,"byteLength":656,"byteOffset":176228},{"buffer":0,"byteLength":656,"byteOffset":176884},{"buffer":0,"byteLength":656,"byteOffset":177540},{"buffer":0,"byteLength":656,"byteOffset":178196},{"buffer":0,"byteLength":656,"byteOffset":178852},{"buffer":0,"byteLength":656,"byteOffset":179508},{"buffer":0,"byteLength":656,"byteOffset":180164},{"buffer":0,"byteLength":656,"byteOffset":180820},{"buffer":0,"byteLength":656,"byteOffset":181476},{"buffer":0,"byteLength":656,"byteOffset":182132},{"buffer":0,"byteLength":492,"byteOffset":182788},{"buffer":0,"byteLength":656,"byteOffset":183280},{"buffer":0,"byteLength":656,"byteOffset":183936},{"buffer":0,"byteLength":492,"byteOffset":184592},{"buffer":0,"byteLength":656,"byteOffset":185084},{"buffer":0,"byteLength":656,"byteOffset":185740},{"buffer":0,"byteLength":656,"byteOffset":186396}],"buffers":[{"byteLength":187052,"uri":"data:application/octet-stream;base64,"}]}