{"asset":{"generator":"Khronos glTF Blender I/O v4.5.51","version":"2.0"},"scene":0,"scenes":[{"name":"Scene","nodes":[13]}],"nodes":[{"name":"Head","rotation":[-4.447139101415587e-09,-5.321959761772632e-08,0.07846297323703766,0.9969170093536377],"translation":[2.485772832017119e-08,0.2843303084373474,1.9056578537401947e-10]},{"children":[0],"name":"Neck","rotation":[3.2204747757447194e-09,5.493687282864812e-08,-0.05852091312408447,0.9982861876487732],"scale":[0.9999999403953552,0.9999999403953552,1],"translation":[-2.529154663477584e-11,1.1837949752807617,1.4034226558656826e-10]},{"children":[1],"name":"Torso","translation":[-2.529154663477584e-11,0.6262574195861816,1.4034226558656826e-10]},{"name":"L.DownLeg","rotation":[0.016734622418880463,-0.7071988582611084,-0.008476446382701397,0.7067658305168152],"scale":[0.9999999403953552,0.9999998807907104,1],"translation":[2.4794635788971675e-10,0.5828580856323242,-1.5365042571602316e-10]},{"children":[3],"name":"L.UpperLeg","rotation":[0.9993644952774048,-1.3097933848627008e-10,-3.672095738593839e-09,0.035646241158246994],"scale":[1,0.9999999403953552,0.9999955892562866],"translation":[-4.282441068426124e-11,-0.35528600215911865,0.5121654868125916]},{"name":"R.DownLeg","rotation":[-0.016503123566508293,-0.7065218687057495,0.024755343794822693,0.7070655226707458],"scale":[0.9999998807907104,0.9999998807907104,0.9999998807907104],"translation":[-4.384048679639818e-12,0.5839554667472839,1.5285381849139412e-08]},{"children":[5],"name":"R.UpperLeg","rotation":[-0.998895525932312,6.621817316698753e-09,-1.4077433263537387e-07,0.04698694869875908],"scale":[1,0.9999999403953552,0.9999842643737793],"translation":[1.0672351891116705e-11,-0.35528600215911865,-0.5077837109565735]},{"name":"L.DownLeg.001","rotation":[0.02887536771595478,-0.7152090072631836,-0.017903106287121773,0.6980843544006348],"scale":[0.9999998211860657,0.9999998211860657,0.9999998807907104],"translation":[2.2515678210766055e-10,0.7910152077674866,-3.0504565984301735e-07]},{"children":[7],"name":"L.UpperLeg.001","rotation":[0.6971672773361206,7.767173570982777e-08,3.216601740518854e-08,0.7169085144996643],"translation":[0.0008450756431557238,1.4149694442749023,0.7022399306297302]},{"name":"R.DownLeg.001","rotation":[-0.047704268246889114,-0.6949180364608765,0.05839555338025093,0.7151246666908264],"translation":[-1.8127366274711676e-10,0.7794647812843323,-1.1900782226348383e-07]},{"children":[9],"name":"R.UpperLeg.001","rotation":[-0.6935640573501587,-4.5073452525912217e-08,-9.846457516005103e-08,0.7203949689865112],"translation":[0.0008450821624137461,1.444927453994751,-0.7286603450775146]},{"children":[2,4,6,8,10],"name":"Hips","rotation":[0,-0.7071067094802856,0,0.7071068286895752],"translation":[0,0.3737424612045288,0]},{"mesh":0,"name":"Cylinder.001","skin":0},{"children":[12,11],"name":"SkeletonArmature","translation":[0.013542711734771729,1.354509949684143,0.0018588895909488201]}],"animations":[{"channels":[{"sampler":0,"target":{"node":11,"path":"translation"}},{"sampler":1,"target":{"node":11,"path":"rotation"}},{"sampler":2,"target":{"node":11,"path":"scale"}},{"sampler":3,"target":{"node":2,"path":"translation"}},{"sampler":4,"target":{"node":2,"path":"rotation"}},{"sampler":5,"target":{"node":2,"path":"scale"}},{"sampler":6,"target":{"node":1,"path":"translation"}},{"sampler":7,"target":{"node":1,"path":"rotation"}},{"sampler":8,"target":{"node":1,"path":"scale"}},{"sampler":9,"target":{"node":0,"path":"translation"}},{"sampler":10,"target":{"node":0,"path":"rotation"}},{"sampler":11,"target":{"node":0,"path":"scale"}},{"sampler":12,"target":{"node":4,"path":"translation"}},{"sampler":13,"target":{"node":4,"path":"rotation"}},{"sampler":14,"target":{"node":4,"path":"scale"}},{"sampler":15,"target":{"node":3,"path":"translation"}},{"sampler":16,"target":{"node":3,"path":"rotation"}},{"sampler":17,"target":{"node":3,"path":"scale"}},{"sampler":18,"target":{"node":6,"path":"translation"}},{"sampler":19,"target":{"node":6,"path":"rotation"}},{"sampler":20,"target":{"node":6,"path":"scale"}},{"sampler":21,"target":{"node":5,"path":"translation"}},{"sampler":22,"target":{"node":5,"path":"rotation"}},{"sampler":23,"target":{"node":5,"path":"scale"}},{"sampler":24,"target":{"node":8,"path":"translation"}},{"sampler":25,"target":{"node":8,"path":"rotation"}},{"sampler":26,"target":{"node":8,"path":"scale"}},{"sampler":27,"target":{"node":7,"path":"translation"}},{"sampler":28,"target":{"node":7,"path":"rotation"}},{"sampler":29,"target":{"node":7,"path":"scale"}},{"sampler":30,"target":{"node":10,"path":"translation"}},{"sampler":31,"target":{"node":10,"path":"rotation"}},{"sampler":32,"target":{"node":10,"path":"scale"}},{"sampler":33,"target":{"node":9,"path":"translation"}},{"sampler":34,"target":{"node":9,"path":"rotation"}},{"sampler":35,"target":{"node":9,"path":"scale"}}],"name":"Skeleton_Attack","samplers":[{"input":6,"interpolation":"LINEAR","output":7},{"input":8,"interpolation":"STEP","output":9},{"input":8,"interpolation":"STEP","output":10},{"input":6,"interpolation":"LINEAR","output":11},{"input":6,"interpolation":"LINEAR","output":12},{"input":8,"interpolation":"STEP","output":10},{"input":8,"interpolation":"STEP","output":13},{"input":8,"interpolation":"STEP","output":14},{"input":8,"interpolation":"STEP","output":15},{"input":8,"interpolation":"STEP","output":16},{"input":6,"interpolation":"LINEAR","output":17},{"input":8,"interpolation":"STEP","output":10},{"input":6,"interpolation":"LINEAR","output":18},{"input":6,"interpolation":"LINEAR","output":19},{"input":8,"interpolation":"STEP","output":20},{"input":8,"interpolation":"STEP","output":21},{"input":6,"interpolation":"LINEAR","output":22},{"input":8,"interpolation":"STEP","output":23},{"input":6,"interpolation":"LINEAR","output":24},{"input":6,"interpolation":"LINEAR","output":25},{"input":8,"interpolation":"STEP","output":26},{"input":8,"interpolation":"STEP","output":27},{"input":6,"interpolation":"LINEAR","output":28},{"input":8,"interpolation":"STEP","output":29},{"input":6,"interpolation":"LINEAR","output":30},{"input":6,"interpolation":"LINEAR","output":31},{"input":8,"interpolation":"STEP","output":32},{"input":8,"interpolation":"STEP","output":33},{"input":6,"interpolation":"LINEAR","output":34},{"input":8,"interpolation":"STEP","output":35},{"input":6,"interpolation":"LINEAR","output":36},{"input":6,"interpolation":"LINEAR","output":37},{"input":8,"interpolation":"STEP","output":10},{"input":8,"interpolation":"STEP","output":38},{"input":6,"interpolation":"LINEAR","output":39},{"input":8,"interpolation":"STEP","output":40}]},{"channels":[{"sampler":0,"target":{"node":11,"path":"translation"}},{"sampler":1,"target":{"node":11,"path":"rotation"}},{"sampler":2,"target":{"node":11,"path":"scale"}},{"sampler":3,"target":{"node":2,"path":"translation"}},{"sampler":4,"target":{"node":2,"path":"rotation"}},{"sampler":5,"target":{"node":2,"path":"scale"}},{"sampler":6,"target":{"node":1,"path":"translation"}},{"sampler":7,"target":{"node":1,"path":"rotation"}},{"sampler":8,"target":{"node":1,"path":"scale"}},{"sampler":9,"target":{"node":0,"path":"translation"}},{"sampler":10,"target":{"node":0,"path":"rotation"}},{"sampler":11,"target":{"node":0,"path":"scale"}},{"sampler":12,"target":{"node":4,"path":"translation"}},{"sampler":13,"target":{"node":4,"path":"rotation"}},{"sampler":14,"target":{"node":4,"path":"scale"}},{"sampler":15,"target":{"node":3,"path":"translation"}},{"sampler":16,"target":{"node":3,"path":"rotation"}},{"sampler":17,"target":{"node":3,"path":"scale"}},{"sampler":18,"target":{"node":6,"path":"translation"}},{"sampler":19,"target":{"node":6,"path":"rotation"}},{"sampler":20,"target":{"node":6,"path":"scale"}},{"sampler":21,"target":{"node":5,"path":"translation"}},{"sampler":22,"target":{"node":5,"path":"rotation"}},{"sampler":23,"target":{"node":5,"path":"scale"}},{"sampler":24,"target":{"node":8,"path":"translation"}},{"sampler":25,"target":{"node":8,"path":"rotation"}},{"sampler":26,"target":{"node":8,"path":"scale"}},{"sampler":27,"target":{"node":7,"path":"translation"}},{"sampler":28,"target":{"node":7,"path":"rotation"}},{"sampler":29,"target":{"node":7,"path":"scale"}},{"sampler":30,"target":{"node":10,"path":"translation"}},{"sampler":31,"target":{"node":10,"path":"rotation"}},{"sampler":32,"target":{"node":10,"path":"scale"}},{"sampler":33,"target":{"node":9,"path":"translation"}},{"sampler":34,"target":{"node":9,"path":"rotation"}},{"sampler":35,"target":{"node":9,"path":"scale"}}],"name":"Skeleton_Death","samplers":[{"input":41,"interpolation":"STEP","output":42},{"input":41,"interpolation":"STEP","output":9},{"input":41,"interpolation":"STEP","output":10},{"input":43,"interpolation":"LINEAR","output":44},{"input":43,"interpolation":"LINEAR","output":45},{"input":41,"interpolation":"STEP","output":10},{"input":41,"interpolation":"LINEAR","output":46},{"input":41,"interpolation":"LINEAR","output":47},{"input":41,"interpolation":"STEP","output":48},{"input":43,"interpolation":"LINEAR","output":49},{"input":43,"interpolation":"LINEAR","output":50},{"input":41,"interpolation":"LINEAR","output":51},{"input":43,"interpolation":"LINEAR","output":52},{"input":43,"interpolation":"LINEAR","output":53},{"input":41,"interpolation":"STEP","output":20},{"input":43,"interpolation":"LINEAR","output":54},{"input":43,"interpolation":"LINEAR","output":55},{"input":41,"interpolation":"LINEAR","output":56},{"input":43,"interpolation":"LINEAR","output":57},{"input":43,"interpolation":"LINEAR","output":58},{"input":41,"interpolation":"STEP","output":59},{"input":43,"interpolation":"LINEAR","output":60},{"input":41,"interpolation":"LINEAR","output":61},{"input":41,"interpolation":"STEP","output":62},{"input":43,"interpolation":"LINEAR","output":63},{"input":43,"interpolation":"LINEAR","output":64},{"input":41,"interpolation":"LINEAR","output":65},{"input":41,"interpolation":"LINEAR","output":66},{"input":41,"interpolation":"LINEAR","output":67},{"input":41,"interpolation":"STEP","output":68},{"input":43,"interpolation":"LINEAR","output":69},{"input":43,"interpolation":"LINEAR","output":70},{"input":41,"interpolation":"STEP","output":71},{"input":41,"interpolation":"LINEAR","output":72},{"input":41,"interpolation":"LINEAR","output":73},{"input":41,"interpolation":"LINEAR","output":74}]},{"channels":[{"sampler":0,"target":{"node":11,"path":"translation"}},{"sampler":1,"target":{"node":11,"path":"rotation"}},{"sampler":2,"target":{"node":11,"path":"scale"}},{"sampler":3,"target":{"node":2,"path":"translation"}},{"sampler":4,"target":{"node":2,"path":"rotation"}},{"sampler":5,"target":{"node":2,"path":"scale"}},{"sampler":6,"target":{"node":1,"path":"translation"}},{"sampler":7,"target":{"node":1,"path":"rotation"}},{"sampler":8,"target":{"node":1,"path":"scale"}},{"sampler":9,"target":{"node":0,"path":"translation"}},{"sampler":10,"target":{"node":0,"path":"rotation"}},{"sampler":11,"target":{"node":0,"path":"scale"}},{"sampler":12,"target":{"node":4,"path":"translation"}},{"sampler":13,"target":{"node":4,"path":"rotation"}},{"sampler":14,"target":{"node":4,"path":"scale"}},{"sampler":15,"target":{"node":3,"path":"translation"}},{"sampler":16,"target":{"node":3,"path":"rotation"}},{"sampler":17,"target":{"node":3,"path":"scale"}},{"sampler":18,"target":{"node":6,"path":"translation"}},{"sampler":19,"target":{"node":6,"path":"rotation"}},{"sampler":20,"target":{"node":6,"path":"scale"}},{"sampler":21,"target":{"node":5,"path":"translation"}},{"sampler":22,"target":{"node":5,"path":"rotation"}},{"sampler":23,"target":{"node":5,"path":"scale"}},{"sampler":24,"target":{"node":8,"path":"translation"}},{"sampler":25,"target":{"node":8,"path":"rotation"}},{"sampler":26,"target":{"node":8,"path":"scale"}},{"sampler":27,"target":{"node":7,"path":"translation"}},{"sampler":28,"target":{"node":7,"path":"rotation"}},{"sampler":29,"target":{"node":7,"path":"scale"}},{"sampler":30,"target":{"node":10,"path":"translation"}},{"sampler":31,"target":{"node":10,"path":"rotation"}},{"sampler":32,"target":{"node":10,"path":"scale"}},{"sampler":33,"target":{"node":9,"path":"translation"}},{"sampler":34,"target":{"node":9,"path":"rotation"}},{"sampler":35,"target":{"node":9,"path":"scale"}}],"name":"Skeleton_Idle","samplers":[{"input":75,"interpolation":"LINEAR","output":76},{"input":77,"interpolation":"STEP","output":9},{"input":77,"interpolation":"STEP","output":10},{"input":77,"interpolation":"STEP","output":78},{"input":77,"interpolation":"STEP","output":79},{"input":77,"interpolation":"STEP","output":10},{"input":77,"interpolation":"STEP","output":80},{"input":77,"interpolation":"STEP","output":14},{"input":77,"interpolation":"STEP","output":15},{"input":77,"interpolation":"STEP","output":81},{"input":75,"interpolation":"LINEAR","output":82},{"input":77,"interpolation":"STEP","output":10},{"input":75,"interpolation":"LINEAR","output":83},{"input":77,"interpolation":"STEP","output":84},{"input":77,"interpolation":"STEP","output":20},{"input":77,"interpolation":"STEP","output":85},{"input":77,"interpolation":"STEP","output":86},{"input":77,"interpolation":"STEP","output":23},{"input":75,"interpolation":"LINEAR","output":87},{"input":77,"interpolation":"STEP","output":88},{"input":77,"interpolation":"STEP","output":26},{"input":77,"interpolation":"STEP","output":89},{"input":77,"interpolation":"STEP","output":90},{"input":77,"interpolation":"STEP","output":29},{"input":77,"interpolation":"STEP","output":91},{"input":77,"interpolation":"STEP","output":92},{"input":77,"interpolation":"STEP","output":10},{"input":77,"interpolation":"STEP","output":93},{"input":75,"interpolation":"LINEAR","output":94},{"input":77,"interpolation":"STEP","output":35},{"input":77,"interpolation":"STEP","output":95},{"input":77,"interpolation":"STEP","output":96},{"input":77,"interpolation":"STEP","output":97},{"input":77,"interpolation":"STEP","output":98},{"input":75,"interpolation":"LINEAR","output":99},{"input":77,"interpolation":"STEP","output":40}]},{"channels":[{"sampler":0,"target":{"node":11,"path":"translation"}},{"sampler":1,"target":{"node":11,"path":"rotation"}},{"sampler":2,"target":{"node":11,"path":"scale"}},{"sampler":3,"target":{"node":2,"path":"translation"}},{"sampler":4,"target":{"node":2,"path":"rotation"}},{"sampler":5,"target":{"node":2,"path":"scale"}},{"sampler":6,"target":{"node":1,"path":"translation"}},{"sampler":7,"target":{"node":1,"path":"rotation"}},{"sampler":8,"target":{"node":1,"path":"scale"}},{"sampler":9,"target":{"node":0,"path":"translation"}},{"sampler":10,"target":{"node":0,"path":"rotation"}},{"sampler":11,"target":{"node":0,"path":"scale"}},{"sampler":12,"target":{"node":4,"path":"translation"}},{"sampler":13,"target":{"node":4,"path":"rotation"}},{"sampler":14,"target":{"node":4,"path":"scale"}},{"sampler":15,"target":{"node":3,"path":"translation"}},{"sampler":16,"target":{"node":3,"path":"rotation"}},{"sampler":17,"target":{"node":3,"path":"scale"}},{"sampler":18,"target":{"node":6,"path":"translation"}},{"sampler":19,"target":{"node":6,"path":"rotation"}},{"sampler":20,"target":{"node":6,"path":"scale"}},{"sampler":21,"target":{"node":5,"path":"translation"}},{"sampler":22,"target":{"node":5,"path":"rotation"}},{"sampler":23,"target":{"node":5,"path":"scale"}},{"sampler":24,"target":{"node":8,"path":"translation"}},{"sampler":25,"target":{"node":8,"path":"rotation"}},{"sampler":26,"target":{"node":8,"path":"scale"}},{"sampler":27,"target":{"node":7,"path":"translation"}},{"sampler":28,"target":{"node":7,"path":"rotation"}},{"sampler":29,"target":{"node":7,"path":"scale"}},{"sampler":30,"target":{"node":10,"path":"translation"}},{"sampler":31,"target":{"node":10,"path":"rotation"}},{"sampler":32,"target":{"node":10,"path":"scale"}},{"sampler":33,"target":{"node":9,"path":"translation"}},{"sampler":34,"target":{"node":9,"path":"rotation"}},{"sampler":35,"target":{"node":9,"path":"scale"}}],"name":"Skeleton_Running","samplers":[{"input":100,"interpolation":"LINEAR","output":101},{"input":102,"interpolation":"STEP","output":9},{"input":102,"interpolation":"STEP","output":10},{"input":100,"interpolation":"LINEAR","output":103},{"input":100,"interpolation":"LINEAR","output":104},{"input":102,"interpolation":"STEP","output":10},{"input":102,"interpolation":"STEP","output":80},{"input":102,"interpolation":"STEP","output":14},{"input":102,"interpolation":"STEP","output":15},{"input":102,"interpolation":"STEP","output":81},{"input":100,"interpolation":"LINEAR","output":105},{"input":102,"interpolation":"STEP","output":10},{"input":100,"interpolation":"LINEAR","output":106},{"input":100,"interpolation":"LINEAR","output":107},{"input":102,"interpolation":"STEP","output":20},{"input":102,"interpolation":"STEP","output":108},{"input":100,"interpolation":"LINEAR","output":109},{"input":102,"interpolation":"STEP","output":110},{"input":100,"interpolation":"LINEAR","output":111},{"input":100,"interpolation":"LINEAR","output":112},{"input":102,"interpolation":"STEP","output":113},{"input":102,"interpolation":"STEP","output":114},{"input":100,"interpolation":"LINEAR","output":115},{"input":102,"interpolation":"STEP","output":116},{"input":102,"interpolation":"STEP","output":91},{"input":100,"interpolation":"LINEAR","output":117},{"input":102,"interpolation":"STEP","output":118},{"input":102,"interpolation":"STEP","output":119},{"input":100,"interpolation":"LINEAR","output":120},{"input":102,"interpolation":"STEP","output":121},{"input":102,"interpolation":"STEP","output":95},{"input":100,"interpolation":"LINEAR","output":122},{"input":102,"interpolation":"STEP","output":97},{"input":102,"interpolation":"STEP","output":123},{"input":100,"interpolation":"LINEAR","output":124},{"input":102,"interpolation":"STEP","output":10}]},{"channels":[{"sampler":0,"target":{"node":11,"path":"translation"}},{"sampler":1,"target":{"node":11,"path":"rotation"}},{"sampler":2,"target":{"node":11,"path":"scale"}},{"sampler":3,"target":{"node":2,"path":"translation"}},{"sampler":4,"target":{"node":2,"path":"rotation"}},{"sampler":5,"target":{"node":2,"path":"scale"}},{"sampler":6,"target":{"node":1,"path":"translation"}},{"sampler":7,"target":{"node":1,"path":"rotation"}},{"sampler":8,"target":{"node":1,"path":"scale"}},{"sampler":9,"target":{"node":0,"path":"translation"}},{"sampler":10,"target":{"node":0,"path":"rotation"}},{"sampler":11,"target":{"node":0,"path":"scale"}},{"sampler":12,"target":{"node":4,"path":"translation"}},{"sampler":13,"target":{"node":4,"path":"rotation"}},{"sampler":14,"target":{"node":4,"path":"scale"}},{"sampler":15,"target":{"node":3,"path":"translation"}},{"sampler":16,"target":{"node":3,"path":"rotation"}},{"sampler":17,"target":{"node":3,"path":"scale"}},{"sampler":18,"target":{"node":6,"path":"translation"}},{"sampler":19,"target":{"node":6,"path":"rotation"}},{"sampler":20,"target":{"node":6,"path":"scale"}},{"sampler":21,"target":{"node":5,"path":"translation"}},{"sampler":22,"target":{"node":5,"path":"rotation"}},{"sampler":23,"target":{"node":5,"path":"scale"}},{"sampler":24,"target":{"node":8,"path":"translation"}},{"sampler":25,"target":{"node":8,"path":"rotation"}},{"sampler":26,"target":{"node":8,"path":"scale"}},{"sampler":27,"target":{"node":7,"path":"translation"}},{"sampler":28,"target":{"node":7,"path":"rotation"}},{"sampler":29,"target":{"node":7,"path":"scale"}},{"sampler":30,"target":{"node":10,"path":"translation"}},{"sampler":31,"target":{"node":10,"path":"rotation"}},{"sampler":32,"target":{"node":10,"path":"scale"}},{"sampler":33,"target":{"node":9,"path":"translation"}},{"sampler":34,"target":{"node":9,"path":"rotation"}},{"sampler":35,"target":{"node":9,"path":"scale"}}],"name":"Skeleton_Spawn","samplers":[{"input":125,"interpolation":"STEP","output":42},{"input":125,"interpolation":"STEP","output":9},{"input":125,"interpolation":"STEP","output":10},{"input":126,"interpolation":"LINEAR","output":127},{"input":126,"interpolation":"LINEAR","output":128},{"input":125,"interpolation":"STEP","output":10},{"input":125,"interpolation":"LINEAR","output":129},{"input":125,"interpolation":"LINEAR","output":130},{"input":125,"interpolation":"STEP","output":131},{"input":126,"interpolation":"LINEAR","output":132},{"input":126,"interpolation":"LINEAR","output":133},{"input":125,"interpolation":"LINEAR","output":134},{"input":126,"interpolation":"LINEAR","output":135},{"input":126,"interpolation":"LINEAR","output":136},{"input":125,"interpolation":"STEP","output":20},{"input":126,"interpolation":"LINEAR","output":137},{"input":126,"interpolation":"LINEAR","output":138},{"input":125,"interpolation":"LINEAR","output":139},{"input":126,"interpolation":"LINEAR","output":140},{"input":126,"interpolation":"LINEAR","output":141},{"input":125,"interpolation":"STEP","output":142},{"input":126,"interpolation":"LINEAR","output":143},{"input":125,"interpolation":"LINEAR","output":144},{"input":125,"interpolation":"STEP","output":145},{"input":126,"interpolation":"LINEAR","output":146},{"input":126,"interpolation":"LINEAR","output":147},{"input":125,"interpolation":"LINEAR","output":148},{"input":125,"interpolation":"LINEAR","output":149},{"input":125,"interpolation":"LINEAR","output":150},{"input":125,"interpolation":"STEP","output":151},{"input":126,"interpolation":"LINEAR","output":152},{"input":126,"interpolation":"LINEAR","output":153},{"input":125,"interpolation":"STEP","output":154},{"input":125,"interpolation":"LINEAR","output":155},{"input":125,"interpolation":"LINEAR","output":156},{"input":125,"interpolation":"LINEAR","output":157}]}],"materials":[{"doubleSided":true,"name":"Skeleton","pbrMetallicRoughness":{"baseColorFactor":[0.6038168668746948,0.47917306423187256,0.32039862871170044,1],"metallicFactor":0,"roughnessFactor":0.8500000238418579}}],"meshes":[{"name":"Cylinder.001","primitives":[{"attributes":{"POSITION":0,"NORMAL":1,"JOINTS_0":2,"WEIGHTS_0":3},"indices":4,"material":0}]}],"skins":[{"inverseBindMatrices":5,"joints":[11,2,1,0,4,3,6,5,8,7,10,9],"name":"SkeletonArmature"}],"accessors":[{"bufferView":0,"componentType":5126,"count":2045,"max":[2.299955368041992,5.108909606933594,0.692470371723175],"min":[-2.304621696472168,0.019311904907226562,-0.6366945505142212],"type":"VEC3"},{"bufferView":1,"componentType":5126,"count":2045,"type":"VEC3"},{"bufferView":2,"componentType":5121,"count":2045,"type":"VEC4"},{"bufferView":3,"componentType":5126,"count":2045,"type":"VEC4"},{"bufferView":4,"componentType":5123,"count":5430,"type":"SCALAR"},{"bufferView":5,"componentType":5126,"count":12,"type":"MAT4"},{"bufferView":6,"componentType":5126,"count":29,"max":[0.9333333333333333],"min":[0],"type":"SCALAR"},{"bufferView":7,"componentType":5126,"count":29,"type":"VEC3"},{"bufferView":8,"componentType":5126,"count":2,"max":[0.9333333333333333],"min":[0],"type":"SCALAR"},{"bufferView":9,"componentType":5126,"count":2,"type":"VEC4"},{"bufferView":10,"componentType":5126,"count":2,"type":"VEC3"},{"bufferView":11,"componentType":5126,"count":29,"type":"VEC3"},{"bufferView":12,"componentType":5126,"count":29,"type":"VEC4"},{"bufferView":13,"componentType":5126,"count":2,"type":"VEC3"},{"bufferView":14,"componentType":5126,"count":2,"type":"VEC4"},{"bufferView":15,"componentType":5126,"count":2,"type":"VEC3"},{"bufferView":16,"componentType":5126,"count":2,"type":"VEC3"},{"bufferView":17,"componentType":5126,"count":29,"type":"VEC4"},{"bufferView":18,"componentType":5126,"count":29,"type":"VEC3"},{"bufferView":19,"componentType":5126,"count":29,"type":"VEC4"},{"bufferView":20,"componentType":5126,"count":2,"type":"VEC3"},{"bufferView":21,"componentType":5126,"count":2,"type":"VEC3"},{"bufferView":22,"componentType":5126,"count":29,"type":"VEC4"},{"bufferView":23,"componentType":5126,"count":2,"type":"VEC3"},{"bufferView":24,"componentType":5126,"count":29,"type":"VEC3"},{"bufferView":25,"componentType":5126,"count":29,"type":"VEC4"},{"bufferView":26,"componentType":5126,"count":2,"type":"VEC3"},{"bufferView":27,"componentType":5126,"count":2,"type":"VEC3"},{"bufferView":28,"componentType":5126,"count":29,"type":"VEC4"},{"bufferView":29,"componentType":5126,"count":2,"type":"VEC3"},{"bufferView":30,"componentType":5126,"count":29,"type":"VEC3"},{"bufferView":31,"componentType":5126,"count":29,"type":"VEC4"},{"bufferView":32,"componentType":5126,"count":2,"type":"VEC3"},{"bufferView":33,"componentType":5126,"count":2,"type":"VEC3"},{"bufferView":34,"componentType":5126,"count":29,"type":"VEC4"},{"bufferView":35,"componentType":5126,"count":2,"type":"VEC3"},{"bufferView":36,"componentType":5126,"count":29,"type":"VEC3"},{"bufferView":37,"componentType":5126,"count":29,"type":"VEC4"},{"bufferView":38,"componentType":5126,"count":2,"type":"VEC3"},{"bufferView":39,"componentType":5126,"count":29,"type":"VEC4"},{"bufferView":40,"componentType":5126,"count":2,"type":"VEC3"},{"bufferView":41,"componentType":5126,"count":2,"max":[0.36666666666666664],"min":[0],"type":"SCALAR"},{"bufferView":42,"componentType":5126,"count":2,"type":"VEC3"},{"bufferView":43,"componentType":5126,"count":12,"max":[0.36666666666666664],"min":[0],"type":"SCALAR"},{"bufferView":44,"componentType":5126,"count":12,"type":"VEC3"},{"bufferView":45,"componentType":5126,"count":12,"type":"VEC4"},{"bufferView":46,"componentType":5126,"count":2,"type":"VEC3"},{"bufferView":47,"componentType":5126,"count":2,"type":"VEC4"},{"bufferView":48,"componentType":5126,"count":2,"type":"VEC3"},{"bufferView":49,"componentType":5126,"count":12,"type":"VEC3"},{"bufferView":50,"componentType":5126,"count":12,"type":"VEC4"},{"bufferView":51,"componentType":5126,"count":2,"type":"VEC3"},{"bufferView":52,"componentType":5126,"count":12,"type":"VEC3"},{"bufferView":53,"componentType":5126,"count":12,"type":"VEC4"},{"bufferView":54,"componentType":5126,"count":12,"type":"VEC3"},{"bufferView":55,"componentType":5126,"count":12,"type":"VEC4"},{"bufferView":56,"componentType":5126,"count":2,"type":"VEC3"},{"bufferView":57,"componentType":5126,"count":12,"type":"VEC3"},{"bufferView":58,"componentType":5126,"count":12,"type":"VEC4"},{"bufferView":59,"componentType":5126,"count":2,"type":"VEC3"},{"bufferView":60,"componentType":5126,"count":12,"type":"VEC3"},{"bufferView":61,"componentType":5126,"count":2,"type":"VEC4"},{"bufferView":62,"componentType":5126,"count":2,"type":"VEC3"},{"bufferView":63,"componentType":5126,"count":12,"type":"VEC3"},{"bufferView":64,"componentType":5126,"count":12,"type":"VEC4"},{"bufferView":65,"componentType":5126,"count":2,"type":"VEC3"},{"bufferView":66,"componentType":5126,"count":2,"type":"VEC3"},{"bufferView":67,"componentType":5126,"count":2,"type":"VEC4"},{"bufferView":68,"componentType":5126,"count":2,"type":"VEC3"},{"bufferView":69,"componentType":5126,"count":12,"type":"VEC3"},{"bufferView":70,"componentType":5126,"count":12,"type":"VEC4"},{"bufferView":71,"componentType":5126,"count":2,"type":"VEC3"},{"bufferView":72,"componentType":5126,"count":2,"type":"VEC3"},{"bufferView":73,"componentType":5126,"count":2,"type":"VEC4"},{"bufferView":74,"componentType":5126,"count":2,"type":"VEC3"},{"bufferView":75,"componentType":5126,"count":81,"max":[2.6666666666666665],"min":[0],"type":"SCALAR"},{"bufferView":76,"componentType":5126,"count":81,"type":"VEC3"},{"bufferView":77,"componentType":5126,"count":2,"max":[2.6666666666666665],"min":[0],"type":"SCALAR"},{"bufferView":78,"componentType":5126,"count":2,"type":"VEC3"},{"bufferView":79,"componentType":5126,"count":2,"type":"VEC4"},{"bufferView":80,"componentType":5126,"count":2,"type":"VEC3"},{"bufferView":81,"componentType":5126,"count":2,"type":"VEC3"},{"bufferView":82,"componentType":5126,"count":81,"type":"VEC4"},{"bufferView":83,"componentType":5126,"count":81,"type":"VEC3"},{"bufferView":84,"componentType":5126,"count":2,"type":"VEC4"},{"bufferView":85,"componentType":5126,"count":2,"type":"VEC3"},{"bufferView":86,"componentType":5126,"count":2,"type":"VEC4"},{"bufferView":87,"componentType":5126,"count":81,"type":"VEC3"},{"bufferView":88,"componentType":5126,"count":2,"type":"VEC4"},{"bufferView":89,"componentType":5126,"count":2,"type":"VEC3"},{"bufferView":90,"componentType":5126,"count":2,"type":"VEC4"},{"bufferView":91,"componentType":5126,"count":2,"type":"VEC3"},{"bufferView":92,"componentType":5126,"count":2,"type":"VEC4"},{"bufferView":93,"componentType":5126,"count":2,"type":"VEC3"},{"bufferView":94,"componentType":5126,"count":81,"type":"VEC4"},{"bufferView":95,"componentType":5126,"count":2,"type":"VEC3"},{"bufferView":96,"componentType":5126,"count":2,"type":"VEC4"},{"bufferView":97,"componentType":5126,"count":2,"type":"VEC3"},{"bufferView":98,"componentType":5126,"count":2,"type":"VEC3"},{"bufferView":99,"componentType":5126,"count":81,"type":"VEC4"},{"bufferView":100,"componentType":5126,"count":31,"max":[1],"min":[0],"type":"SCALAR"},{"bufferView":101,"componentType":5126,"count":31,"type":"VEC3"},{"bufferView":102,"componentType":5126,"count":2,"max":[1],"min":[0],"type":"SCALAR"},{"bufferView":103,"componentType":5126,"count":31,"type":"VEC3"},{"bufferView":104,"componentType":5126,"count":31,"type":"VEC4"},{"bufferView":105,"componentType":5126,"count":31,"type":"VEC4"},{"bufferView":106,"componentType":5126,"count":31,"type":"VEC3"},{"bufferView":107,"componentType":5126,"count":31,"type":"VEC4"},{"bufferView":108,"componentType":5126,"count":2,"type":"VEC3"},{"bufferView":109,"componentType":5126,"count":31,"type":"VEC4"},{"bufferView":110,"componentType":5126,"count":2,"type":"VEC3"},{"bufferView":111,"componentType":5126,"count":31,"type":"VEC3"},{"bufferView":112,"componentType":5126,"count":31,"type":"VEC4"},{"bufferView":113,"componentType":5126,"count":2,"type":"VEC3"},{"bufferView":114,"componentType":5126,"count":2,"type":"VEC3"},{"bufferView":115,"componentType":5126,"count":31,"type":"VEC4"},{"bufferView":116,"componentType":5126,"count":2,"type":"VEC3"},{"bufferView":117,"componentType":5126,"count":31,"type":"VEC4"},{"bufferView":118,"componentType":5126,"count":2,"type":"VEC3"},{"bufferView":119,"componentType":5126,"count":2,"type":"VEC3"},{"bufferView":120,"componentType":5126,"count":31,"type":"VEC4"},{"bufferView":121,"componentType":5126,"count":2,"type":"VEC3"},{"bufferView":122,"componentType":5126,"count":31,"type":"VEC4"},{"bufferView":123,"componentType":5126,"count":2,"type":"VEC3"},{"bufferView":124,"componentType":5126,"count":31,"type":"VEC4"},{"bufferView":125,"componentType":5126,"count":2,"max":[2.9],"min":[0],"type":"SCALAR"},{"bufferView":126,"componentType":5126,"count":88,"max":[2.9],"min":[0],"type":"SCALAR"},{"bufferView":127,"componentType":5126,"count":88,"type":"VEC3"},{"bufferView":128,"componentType":5126,"count":88,"type":"VEC4"},{"bufferView":129,"componentType":5126,"count":2,"type":"VEC3"},{"bufferView":130,"componentType":5126,"count":2,"type":"VEC4"},{"bufferView":131,"componentType":5126,"count":2,"type":"VEC3"},{"bufferView":132,"componentType":5126,"count":88,"type":"VEC3"},{"bufferView":133,"componentType":5126,"count":88,"type":"VEC4"},{"bufferView":134,"componentType":5126,"count":2,"type":"VEC3"},{"bufferView":135,"componentType":5126,"count":88,"type":"VEC3"},{"bufferView":136,"componentType":5126,"count":88,"type":"VEC4"},{"bufferView":137,"componentType":5126,"count":88,"type":"VEC3"},{"bufferView":138,"componentType":5126,"count":88,"type":"VEC4"},{"bufferView":139,"componentType":5126,"count":2,"type":"VEC3"},{"bufferView":140,"componentType":5126,"count":88,"type":"VEC3"},{"bufferView":141,"componentType":5126,"count":88,"type":"VEC4"},{"bufferView":142,"componentType":5126,"count":2,"type":"VEC3"},{"bufferView":143,"componentType":5126,"count":88,"type":"VEC3"},{"bufferView":144,"componentType":5126,"count":2,"type":"VEC4"},{"bufferView":145,"componentType":5126,"count":2,"type":"VEC3"},{"bufferView":146,"componentType":5126,"count":88,"type":"VEC3"},{"bufferView":147,"componentType":5126,"count":88,"type":"VEC4"},{"bufferView":148,"componentType":5126,"count":2,"type":"VEC3"},{"bufferView":149,"componentType":5126,"count":2,"type":"VEC3"},{"bufferView":150,"componentType":5126,"count":2,"type":"VEC4"},{"bufferView":151,"componentType":5126,"count":2,"type":"VEC3"},{"bufferView":152,"componentType":5126,"count":88,"type":"VEC3"},{"bufferView":153,"componentType":5126,"count":88,"type":"VEC4"},{"bufferView":154,"componentType":5126,"count":2,"type":"VEC3"},{"bufferView":155,"componentType":5126,"count":2,"type":"VEC3"},{"bufferView":156,"componentType":5126,"count":2,"type":"VEC4"},{"bufferView":157,"componentType":5126,"count":2,"type":"VEC3"}],"bufferViews":[{"buffer":0,"byteLength":24540,"byteOffset":0,"target":34962},{"buffer":0,"byteLength":24540,"byteOffset":24540,"target":34962},{"buffer":0,"byteLength":8180,"byteOffset":49080,"target":34962},{"buffer":0,"byteLength":32720,"byteOffset":57260,"target":34962},{"buffer":0,"byteLength":10860,"byteOffset":89980,"target":34963},{"buffer":0,"byteLength":768,"byteOffset":100840},{"buffer":0,"byteLength":116,"byteOffset":101608},{"buffer":0,"byteLength":348,"byteOffset":101724},{"buffer":0,"byteLength":8,"byteOffset":102072},{"buffer":0,"byteLength":32,"byteOffset":102080},{"buffer":0,"byteLength":24,"byteOffset":102112},{"buffer":0,"byteLength":348,"byteOffset":102136},{"buffer":0,"byteLength":464,"byteOffset":102484},{"buffer":0,"byteLength":24,"byteOffset":102948},{"buffer":0,"byteLength":32,"byteOffset":102972},{"buffer":0,"byteLength":24,"byteOffset":103004},{"buffer":0,"byteLength":24,"byteOffset":103028},{"buffer":0,"byteLength":464,"byteOffset":103052},{"buffer":0,"byteLength":348,"byteOffset":103516},{"buffer":0,"byteLength":464,"byteOffset":103864},{"buffer":0,"byteLength":24,"byteOffset":104328},{"buffer":0,"byteLength":24,"byteOffset":104352},{"buffer":0,"byteLength":464,"byteOffset":104376},{"buffer":0,"byteLength":24,"byteOffset":104840},{"buffer":0,"byteLength":348,"byteOffset":104864},{"buffer":0,"byteLength":464,"byteOffset":105212},{"buffer":0,"byteLength":24,"byteOffset":105676},{"buffer":0,"byteLength":24,"byteOffset":105700},{"buffer":0,"byteLength":464,"byteOffset":105724},{"buffer":0,"byteLength":24,"byteOffset":106188},{"buffer":0,"byteLength":348,"byteOffset":106212},{"buffer":0,"byteLength":464,"byteOffset":106560},{"buffer":0,"byteLength":24,"byteOffset":107024},{"buffer":0,"byteLength":24,"byteOffset":107048},{"buffer":0,"byteLength":464,"byteOffset":107072},{"buffer":0,"byteLength":24,"byteOffset":107536},{"buffer":0,"byteLength":348,"byteOffset":107560},{"buffer":0,"byteLength":464,"byteOffset":107908},{"buffer":0,"byteLength":24,"byteOffset":108372},{"buffer":0,"byteLength":464,"byteOffset":108396},{"buffer":0,"byteLength":24,"byteOffset":108860},{"buffer":0,"byteLength":8,"byteOffset":108884},{"buffer":0,"byteLength":24,"byteOffset":108892},{"buffer":0,"byteLength":48,"byteOffset":108916},{"buffer":0,"byteLength":144,"byteOffset":108964},{"buffer":0,"byteLength":192,"byteOffset":109108},{"buffer":0,"byteLength":24,"byteOffset":109300},{"buffer":0,"byteLength":32,"byteOffset":109324},{"buffer":0,"byteLength":24,"byteOffset":109356},{"buffer":0,"byteLength":144,"byteOffset":109380},{"buffer":0,"byteLength":192,"byteOffset":109524},{"buffer":0,"byteLength":24,"byteOffset":109716},{"buffer":0,"byteLength":144,"byteOffset":109740},{"buffer":0,"byteLength":192,"byteOffset":109884},{"buffer":0,"byteLength":144,"byteOffset":110076},{"buffer":0,"byteLength":192,"byteOffset":110220},{"buffer":0,"byteLength":24,"byteOffset":110412},{"buffer":0,"byteLength":144,"byteOffset":110436},{"buffer":0,"byteLength":192,"byteOffset":110580},{"buffer":0,"byteLength":24,"byteOffset":110772},{"buffer":0,"byteLength":144,"byteOffset":110796},{"buffer":0,"byteLength":32,"byteOffset":110940},{"buffer":0,"byteLength":24,"byteOffset":110972},{"buffer":0,"byteLength":144,"byteOffset":110996},{"buffer":0,"byteLength":192,"byteOffset":111140},{"buffer":0,"byteLength":24,"byteOffset":111332},{"buffer":0,"byteLength":24,"byteOffset":111356},{"buffer":0,"byteLength":32,"byteOffset":111380},{"buffer":0,"byteLength":24,"byteOffset":111412},{"buffer":0,"byteLength":144,"byteOffset":111436},{"buffer":0,"byteLength":192,"byteOffset":111580},{"buffer":0,"byteLength":24,"byteOffset":111772},{"buffer":0,"byteLength":24,"byteOffset":111796},{"buffer":0,"byteLength":32,"byteOffset":111820},{"buffer":0,"byteLength":24,"byteOffset":111852},{"buffer":0,"byteLength":324,"byteOffset":111876},{"buffer":0,"byteLength":972,"byteOffset":112200},{"buffer":0,"byteLength":8,"byteOffset":113172},{"buffer":0,"byteLength":24,"byteOffset":113180},{"buffer":0,"byteLength":32,"byteOffset":113204},{"buffer":0,"byteLength":24,"byteOffset":113236},{"buffer":0,"byteLength":24,"byteOffset":113260},{"buffer":0,"byteLength":1296,"byteOffset":113284},{"buffer":0,"byteLength":972,"byteOffset":114580},{"buffer":0,"byteLength":32,"byteOffset":115552},{"buffer":0,"byteLength":24,"byteOffset":115584},{"buffer":0,"byteLength":32,"byteOffset":115608},{"buffer":0,"byteLength":972,"byteOffset":115640},{"buffer":0,"byteLength":32,"byteOffset":116612},{"buffer":0,"byteLength":24,"byteOffset":116644},{"buffer":0,"byteLength":32,"byteOffset":116668},{"buffer":0,"byteLength":24,"byteOffset":116700},{"buffer":0,"byteLength":32,"byteOffset":116724},{"buffer":0,"byteLength":24,"byteOffset":116756},{"buffer":0,"byteLength":1296,"byteOffset":116780},{"buffer":0,"byteLength":24,"byteOffset":118076},{"buffer":0,"byteLength":32,"byteOffset":118100},{"buffer":0,"byteLength":24,"byteOffset":118132},{"buffer":0,"byteLength":24,"byteOffset":118156},{"buffer":0,"byteLength":1296,"byteOffset":118180},{"buffer":0,"byteLength":124,"byteOffset":119476},{"buffer":0,"byteLength":372,"byteOffset":119600},{"buffer":0,"byteLength":8,"byteOffset":119972},{"buffer":0,"byteLength":372,"byteOffset":119980},{"buffer":0,"byteLength":496,"byteOffset":120352},{"buffer":0,"byteLength":496,"byteOffset":120848},{"buffer":0,"byteLength":372,"byteOffset":121344},{"buffer":0,"byteLength":496,"byteOffset":121716},{"buffer":0,"byteLength":24,"byteOffset":122212},{"buffer":0,"byteLength":496,"byteOffset":122236},{"buffer":0,"byteLength":24,"byteOffset":122732},{"buffer":0,"byteLength":372,"byteOffset":122756},{"buffer":0,"byteLength":496,"byteOffset":123128},{"buffer":0,"byteLength":24,"byteOffset":123624},{"buffer":0,"byteLength":24,"byteOffset":123648},{"buffer":0,"byteLength":496,"byteOffset":123672},{"buffer":0,"byteLength":24,"byteOffset":124168},{"buffer":0,"byteLength":496,"byteOffset":124192},{"buffer":0,"byteLength":24,"byteOffset":124688},{"buffer":0,"byteLength":24,"byteOffset":124712},{"buffer":0,"byteLength":496,"byteOffset":124736},{"buffer":0,"byteLength":24,"byteOffset":125232},{"buffer":0,"byteLength":496,"byteOffset":125256},{"buffer":0,"byteLength":24,"byteOffset":125752},{"buffer":0,"byteLength":496,"byteOffset":125776},{"buffer":0,"byteLength":8,"byteOffset":126272},{"buffer":0,"byteLength":352,"byteOffset":126280},{"buffer":0,"byteLength":1056,"byteOffset":126632},{"buffer":0,"byteLength":1408,"byteOffset":127688},{"buffer":0,"byteLength":24,"byteOffset":129096},{"buffer":0,"byteLength":32,"byteOffset":129120},{"buffer":0,"byteLength":24,"byteOffset":129152},{"buffer":0,"byteLength":1056,"byteOffset":129176},{"buffer":0,"byteLength":1408,"byteOffset":130232},{"buffer":0,"byteLength":24,"byteOffset":131640},{"buffer":0,"byteLength":1056,"byteOffset":131664},{"buffer":0,"byteLength":1408,"byteOffset":132720},{"buffer":0,"byteLength":1056,"byteOffset":134128},{"buffer":0,"byteLength":1408,"byteOffset":135184},{"buffer":0,"byteLength":24,"byteOffset":136592},{"buffer":0,"byteLength":1056,"byteOffset":136616},{"buffer":0,"byteLength":1408,"byteOffset":137672},{"buffer":0,"byteLength":24,"byteOffset":139080},{"buffer":0,"byteLength":1056,"byteOffset":139104},{"buffer":0,"byteLength":32,"byteOffset":140160},{"buffer":0,"byteLength":24,"byteOffset":140192},{"buffer":0,"byteLength":1056,"byteOffset":140216},{"buffer":0,"byteLength":1408,"byteOffset":141272},{"buffer":0,"byteLength":24,"byteOffset":142680},{"buffer":0,"byteLength":24,"byteOffset":142704},{"buffer":0,"byteLength":32,"byteOffset":142728},{"buffer":0,"byteLength":24,"byteOffset":142760},{"buffer":0,"byteLength":1056,"byteOffset":142784},{"buffer":0,"byteLength":1408,"byteOffset":143840},{"buffer":0,"byteLength":24,"byteOffset":145248},{"buffer":0,"byteLength":24,"byteOffset":145272},{"buffer":0,"byteLength":32,"byteOffset":145296},{"buffer":0,"byteLength":24,"byteOffset":145328}],"buffers":[{"byteLength":145352,"uri":"data:application/octet-stream;base64,"}]}